<svg width="24" height="24" viewBox="0 0 24 24" fill="none" xmlns="http://www.w3.org/2000/svg">
<path d="M9.0648 13.0339C9.0648 12.7833 8.86158 12.5804 8.61084 12.5804H7.02671C6.77625 12.5804 6.573 12.7833 6.573 13.0339V14.6178C6.573 14.8687 6.77625 15.0717 7.02671 15.0717H8.61084C8.86158 15.0717 9.0648 14.8687 9.0648 14.6178V13.0339Z" fill="black"/>
<path d="M13.024 13.0339C13.024 12.7833 12.8208 12.5804 12.5705 12.5804H10.9862C10.7357 12.5804 10.5325 12.7833 10.5325 13.0339V14.6178C10.5325 14.8687 10.7357 15.0717 10.9862 15.0717H12.5705C12.8208 15.0717 13.024 14.8687 13.024 14.6178V13.0339Z" fill="black"/>
<path d="M16.983 13.0339C16.983 12.7833 16.7798 12.5804 16.5293 12.5804H14.9452C14.6944 12.5804 14.4912 12.7833 14.4912 13.0339V14.6178C14.4912 14.8687 14.6944 15.0717 14.9452 15.0717H16.5293C16.7798 15.0717 16.983 14.8687 16.983 14.6178V13.0339Z" fill="black"/>
<path d="M9.0648 16.9932C9.0648 16.7423 8.86158 16.5395 8.61084 16.5395H7.02671C6.77625 16.5395 6.573 16.7423 6.573 16.9932V18.5769C6.573 18.8276 6.77625 19.0306 7.02671 19.0306H8.61084C8.86158 19.0306 9.0648 18.8275 9.0648 18.5769V16.9932Z" fill="black"/>
<path d="M13.024 16.9932C13.024 16.7423 12.8208 16.5395 12.5705 16.5395H10.9862C10.7357 16.5395 10.5325 16.7423 10.5325 16.9932V18.5769C10.5325 18.8276 10.7357 19.0306 10.9862 19.0306H12.5705C12.8208 19.0306 13.024 18.8275 13.024 18.5769V16.9932Z" fill="black"/>
<path d="M16.983 16.9932C16.983 16.7423 16.7798 16.5395 16.5295 16.5395H14.9452C14.6944 16.5395 14.4912 16.7423 14.4912 16.9932V18.5769C14.4912 18.8276 14.6944 19.0306 14.9452 19.0306H16.5295C16.7798 19.0306 16.983 18.8275 16.983 18.5769V16.9932Z" fill="black"/>
<path d="M19.8156 4.22695V6.64627C19.8156 7.73978 18.9285 8.62098 17.8351 8.62098H16.5858C15.4924 8.62098 14.5935 7.73978 14.5935 6.64627V4.21826H8.96253V6.64627C8.96253 7.73978 8.06371 8.62098 6.97045 8.62098H5.72088C4.62758 8.62098 3.74052 7.73978 3.74052 6.64627V4.22695C2.78496 4.25575 1.99976 5.04644 1.99976 6.01831V20.1967C1.99976 21.1868 2.80229 22 3.79243 22H19.7636C20.7523 22 21.5563 21.1851 21.5563 20.1967V6.01831C21.5563 5.04644 20.7711 4.25575 19.8156 4.22695ZM19.2353 19.3138C19.2353 19.7417 18.8884 20.0888 18.4603 20.0888H5.06162C4.63356 20.0888 4.28662 19.7417 4.28662 19.3138V11.9901C4.28662 11.5621 4.63352 11.2149 5.06162 11.2149H18.4603C18.8883 11.2149 19.2353 11.5621 19.2353 11.9901L19.2353 19.3138Z" fill="black"/>
<path d="M5.71657 7.32394H6.95232C7.32741 7.32394 7.63154 7.02026 7.63154 6.64518V2.67901C7.63154 2.30388 7.32741 2 6.95232 2H5.71657C5.34144 2 5.03735 2.30388 5.03735 2.67901V6.64518C5.03735 7.02026 5.34144 7.32394 5.71657 7.32394Z" fill="black"/>
<path d="M16.57 7.32394H17.8058C18.1806 7.32394 18.4848 7.02026 18.4848 6.64518V2.67901C18.4848 2.30388 18.1807 2 17.8058 2H16.57C16.195 2 15.8909 2.30388 15.8909 2.67901V6.64518C15.8909 7.02026 16.195 7.32394 16.57 7.32394Z" fill="black"/>
</svg>
