<svg width="24" height="24" viewBox="0 0 24 24" fill="none" xmlns="http://www.w3.org/2000/svg">
<path d="M12.5777 15.0655L16.7561 10.8808C16.9187 10.7267 17 10.5343 17 10.3031C17 10.072 16.9186 9.87953 16.7561 9.72542L16.2747 9.23763C16.1163 9.07927 15.9239 9.00009 15.6971 9.00009C15.4746 9.00009 15.2798 9.07925 15.113 9.23763L12 12.3569L8.88054 9.23749C8.72221 9.07918 8.52975 9 8.30294 9C8.08046 9 7.88564 9.07916 7.71888 9.23749L7.23749 9.72533C7.07916 9.88366 7 10.0763 7 10.303C7 10.5298 7.07916 10.7224 7.23749 10.8807L11.4159 15.0655C11.5828 15.2239 11.7775 15.3031 12 15.3031C12.2268 15.3031 12.4194 15.2239 12.5777 15.0655Z" fill="black"/>
</svg>
