<svg width="24" height="24" viewBox="0 0 24 24" fill="none" xmlns="http://www.w3.org/2000/svg">
<path d="M11.4223 9.23765L7.24388 13.4223C7.08127 13.5764 7 13.7688 7 14C7 14.2312 7.08136 14.4236 7.24387 14.5777L7.72533 15.0655C7.88366 15.2238 8.07613 15.303 8.30291 15.303C8.52541 15.303 8.72016 15.2239 8.887 15.0655L12 11.9462L15.1195 15.0656C15.2778 15.2239 15.4703 15.3031 15.6971 15.3031C15.9195 15.3031 16.1144 15.224 16.2811 15.0656L16.7625 14.5778C16.9208 14.4195 17 14.2268 17 14.0001C17 13.7733 16.9208 13.5807 16.7625 13.4224L12.5841 9.23765C12.4172 9.07925 12.2225 9 12 9C11.7732 8.99998 11.5806 9.07925 11.4223 9.23765Z" fill="black"/>
</svg>
