<svg width="24" height="23" viewBox="0 0 24 23" fill="none" xmlns="http://www.w3.org/2000/svg">
<path d="M6.00014 7.3334C6.73637 7.3334 7.36475 7.07308 7.88546 6.55222C8.40636 6.0314 8.66683 5.40284 8.66683 4.66676C8.66683 3.93075 8.40636 3.30218 7.88546 2.78129C7.36475 2.26047 6.73634 2 6.00014 2C5.26399 2 4.63557 2.26047 4.11475 2.78129C3.59396 3.30218 3.3335 3.9306 3.3335 4.66676C3.3335 5.40299 3.59396 6.0314 4.11475 6.55222C4.63557 7.07294 5.26399 7.3334 6.00014 7.3334Z" fill="black"/>
<path d="M9.17165 11.4952C9.9529 12.2761 10.8955 12.6668 11.9998 12.6668C13.1042 12.6668 14.0467 12.2761 14.8279 11.4952C15.6091 10.7136 15.9997 9.77095 15.9997 8.66684C15.9997 7.56266 15.6091 6.62 14.8279 5.83871C14.0467 5.05742 13.1042 4.66678 11.9998 4.66678C10.8955 4.66678 9.95283 5.0575 9.17165 5.83871C8.39047 6.61989 7.99976 7.56255 7.99976 8.66684C7.99976 9.77113 8.39047 10.7138 9.17165 11.4952Z" fill="black"/>
<path d="M18 7.3334C18.7359 7.3334 19.3644 7.07308 19.8852 6.55222C20.406 6.0314 20.6663 5.40284 20.6663 4.66676C20.6663 3.93075 20.406 3.30218 19.8852 2.78129C19.3644 2.26047 18.7359 2 18 2C17.2636 2 16.6352 2.26047 16.1144 2.78129C15.5937 3.30218 15.3333 3.9306 15.3333 4.66676C15.3333 5.40299 15.5937 6.0314 16.1144 6.55222C16.6352 7.07294 17.2636 7.3334 18 7.3334Z" fill="black"/>
<path d="M20.7082 7.33353C20.6667 7.33353 20.5157 7.40646 20.2552 7.55229C19.995 7.69819 19.6563 7.84578 19.2397 7.99511C18.8232 8.1443 18.4098 8.21898 18.0003 8.21898C17.5348 8.21898 17.0733 8.13919 16.6148 7.97938C16.6493 8.2362 16.6668 8.46544 16.6668 8.66683C16.6668 9.63212 16.3855 10.521 15.8228 11.3335C16.948 11.3683 17.868 11.8127 18.5835 12.6671H19.9793C20.5486 12.6671 21.0278 12.5261 21.4166 12.245C21.8054 11.9639 22 11.5523 22 11.0107C22.0001 8.55909 21.5697 7.33338 20.7082 7.33353Z" fill="black"/>
<path d="M19.1515 15.7553C19.0785 15.349 18.9864 14.9722 18.8753 14.6251C18.7642 14.2777 18.6148 13.9394 18.4276 13.6095C18.24 13.2799 18.0246 12.9984 17.7816 12.7657C17.5383 12.533 17.2414 12.3474 16.8908 12.2083C16.5403 12.0695 16.1529 12.0001 15.7294 12.0001C15.6599 12.0001 15.5107 12.0748 15.2815 12.2241C15.0522 12.3733 14.799 12.5403 14.5211 12.724C14.2432 12.9078 13.872 13.0746 13.4065 13.2239C12.9408 13.3733 12.4721 13.448 12.0002 13.448C11.528 13.448 11.0592 13.3733 10.5939 13.2239C10.1285 13.0746 9.75709 12.9078 9.47929 12.724C9.20142 12.5403 8.94804 12.3733 8.71891 12.2241C8.48968 12.0748 8.34045 12.0001 8.27091 12.0001C7.84736 12.0001 7.46022 12.0695 7.10949 12.2083C6.75876 12.3474 6.46192 12.533 6.21889 12.7657C5.97564 12.9982 5.76057 13.2799 5.57292 13.6095C5.3855 13.9394 5.2362 14.2777 5.12507 14.6251C5.01398 14.9722 4.92207 15.349 4.84903 15.7553C4.77606 16.1616 4.7275 16.5399 4.7032 16.8907C4.67886 17.2415 4.66675 17.601 4.66675 17.969C4.66675 18.8022 4.92014 19.4603 5.42706 19.9428C5.93416 20.4252 6.60782 20.6667 7.44792 20.6667H16.5522C17.3924 20.6667 18.0659 20.4252 18.5732 19.9428C19.0801 19.4603 19.3335 18.8022 19.3335 17.969C19.3335 17.601 19.3213 17.2416 19.2973 16.8907C19.2727 16.5399 19.2241 16.1616 19.1515 15.7553Z" fill="black"/>
<path d="M8.17701 11.3334C7.61448 10.5209 7.33329 9.63205 7.3334 8.66677C7.3334 8.46537 7.35081 8.23628 7.38547 7.97932C6.92707 8.13901 6.46528 8.21892 5.99999 8.21892C5.59026 8.21892 5.17718 8.14427 4.76045 7.99504C4.3439 7.84571 4.00525 7.69813 3.74493 7.55223C3.4845 7.4064 3.33334 7.33347 3.29171 7.33347C2.43056 7.3335 2 8.55921 2 11.0106C2 11.5522 2.19446 11.9638 2.58328 12.2449C2.97221 12.5261 3.45141 12.6667 4.02068 12.6667H5.41659C6.13195 11.8126 7.05196 11.3682 8.17701 11.3334Z" fill="black"/>
</svg>
