<svg width="24" height="24" viewBox="0 0 24 24" fill="none" xmlns="http://www.w3.org/2000/svg">
<path d="M10.2917 18.25C8.3392 18.25 6.75 16.6608 6.75 14.7083V6.16672H5.29172C4.02753 6.16672 3 7.19409 3 8.45828V19.7083C3 20.9725 4.02753 22 5.29172 22H15.7083C16.9725 22 18 20.9725 18 19.7083V18.25H10.2917Z" fill="black"/>
<path d="M21.3333 4.29172C21.3333 3.02585 20.3074 2 19.0417 2H10.2917C9.02585 2 8 3.02585 8 4.29172V14.7083C8 15.9742 9.02585 17 10.2917 17H19.0417C20.3074 17 21.3333 15.9742 21.3333 14.7083V4.29172Z" fill="black"/>
</svg>
