<svg width="24" height="24" viewBox="0 0 24 24" fill="none" xmlns="http://www.w3.org/2000/svg">
<path d="M18.9273 7.98429C18.2119 6.75868 17.2415 5.78829 16.0159 5.07292C14.79 4.35759 13.4518 4 12.0002 4C10.5488 4 9.2102 4.35759 7.98455 5.07292C6.75883 5.78818 5.78843 6.75857 5.07303 7.98429C4.35759 9.21009 4 10.5487 4 12C4 13.4514 4.3577 14.7898 5.07292 16.0156C5.78829 17.2412 6.75868 18.2116 7.9844 18.9271C9.2102 19.6424 10.5487 20 12.0001 20C13.4515 20 14.7901 19.6424 16.0158 18.9271C17.2415 18.2119 18.2118 17.2412 18.9272 16.0156C19.6424 14.7899 19.9999 13.4513 19.9999 12C20 10.5485 19.6424 9.2099 18.9273 7.98429ZM13.3336 17C13.3336 17.0971 13.3022 17.1771 13.2398 17.2395C13.1776 17.3019 13.0977 17.3331 13.0005 17.3331H11.0003C10.9031 17.3331 10.8232 17.3019 10.7607 17.2395C10.6982 17.177 10.6669 17.0971 10.6669 17V14.9998C10.6669 14.9027 10.6981 14.8227 10.7607 14.7603C10.8232 14.698 10.9031 14.6668 11.0003 14.6668H13.0005C13.0977 14.6668 13.1776 14.698 13.2398 14.7603C13.3022 14.8228 13.3336 14.9027 13.3336 14.9998V17ZM15.87 10.8437C15.7831 11.1006 15.686 11.3108 15.5784 11.474C15.4708 11.6372 15.3161 11.8039 15.1147 11.9739C14.9136 12.144 14.7538 12.2656 14.6354 12.3387C14.5176 12.4115 14.3473 12.5106 14.1253 12.6355C13.8961 12.7673 13.707 12.9393 13.5578 13.1512C13.4084 13.3629 13.3338 13.5347 13.3338 13.6666C13.3338 13.764 13.3023 13.8439 13.2399 13.9063C13.1776 13.9687 13.0977 13.9999 13.0005 13.9999H11.0004C10.9032 13.9999 10.8233 13.9687 10.7608 13.9063C10.6982 13.8439 10.6671 13.764 10.6671 13.6666V13.2915C10.6671 12.8263 10.8493 12.3903 11.2139 11.9842C11.5786 11.5779 11.9796 11.2776 12.4172 11.0831C12.7503 10.9304 12.9865 10.7741 13.1253 10.6144C13.2644 10.4547 13.3339 10.2427 13.3339 9.9789C13.3339 9.74967 13.2035 9.54484 12.9431 9.36416C12.6826 9.18367 12.3859 9.09341 12.0525 9.09341C11.6913 9.09341 11.3928 9.17678 11.1566 9.34351C10.9274 9.51007 10.6288 9.82957 10.2608 10.3017C10.1983 10.3851 10.1114 10.4269 10.0003 10.4269C9.91695 10.4269 9.85095 10.4061 9.80239 10.3646L8.42748 9.32283C8.26778 9.19779 8.24002 9.05203 8.34407 8.88533C9.23307 7.40615 10.5212 6.66656 12.2087 6.66656C12.813 6.66656 13.4033 6.80896 13.9797 7.09373C14.556 7.37835 15.037 7.78118 15.4225 8.30208C15.8076 8.8228 16.0006 9.38886 16.0006 9.99999C16.0001 10.3055 15.9566 10.5866 15.87 10.8437Z" fill="black"/>
</svg>
