<svg width="24" height="24" viewBox="0 0 24 24" fill="none" xmlns="http://www.w3.org/2000/svg">
<path d="M13.4071 2H7.47844C6.86708 2 6.37144 2.49565 6.37144 3.10701V11.4858H5.10701C4.49564 11.4858 4 11.9815 4 12.5928C4 13.2042 4.49564 13.6999 5.10701 13.6999H6.37144V16.2288H5.10701C4.49564 16.2288 4 16.7244 4 17.3358C4 17.9472 4.49564 18.4428 5.10701 18.4428H6.37144V20.893C6.37144 21.5044 6.86708 22 7.47844 22C8.08981 22 8.58545 21.5044 8.58545 20.893V18.4428H13.4071C14.0185 18.4428 14.5142 17.9472 14.5142 17.3358C14.5142 16.7244 14.0185 16.2288 13.4071 16.2288H8.58545V13.6999H13.4071C16.6328 13.6999 19.2571 11.0756 19.2571 7.84989C19.257 4.5445 16.5646 2 13.4071 2ZM13.4071 11.4858H8.58545V4.21402H13.4071C15.3999 4.21402 17.0431 5.8214 17.0431 7.84996C17.043 9.85483 15.412 11.4858 13.4071 11.4858Z" fill="black"/>
</svg>
