<svg width="24" height="24" viewBox="0 0 24 24" fill="none" xmlns="http://www.w3.org/2000/svg">
<path d="M14.2056 14.7747H9.79454C9.46208 14.7747 9.19165 15.0451 9.19165 15.3776V16.7305C9.19165 17.0629 9.46208 17.3334 9.79454 17.3334H14.2056C14.5381 17.3334 14.8085 17.063 14.8085 16.7305V15.3776C14.8085 15.0452 14.538 14.7747 14.2056 14.7747ZM14.0333 16.5582H9.96677V15.5499H14.0333V16.5582Z" fill="black"/>
<path d="M21.8038 11.4241L21.81 11.4209L18.9035 5.67469C18.6686 5.21023 18.1994 4.92176 17.6791 4.92176H17.1267V4.38758C17.1267 4.17352 16.9532 4 16.7391 4H7.26094C7.04687 4 6.87336 4.17352 6.87336 4.38758V4.92176H6.32098C5.80062 4.92176 5.33148 5.21023 5.09652 5.67469L2.19004 11.4209L2.19625 11.4241C2.07176 11.6291 2 11.8696 2 12.1264V18.1971C2 18.9456 2.60898 19.5546 3.3575 19.5546H20.6425C21.3911 19.5546 22 18.9456 22 18.1971V12.1264C22 11.8696 21.9282 11.6291 21.8038 11.4241ZM17.1266 5.78305H17.679C17.8727 5.78305 18.0474 5.89051 18.1349 6.06348L20.515 10.769H18.8966V9.32113C18.8966 9.10707 18.7231 8.93355 18.509 8.93355H18.0295V6.85437C18.0295 6.64031 17.856 6.4668 17.642 6.4668H17.1266V5.78305ZM18.1215 9.70867V10.769H16.0762C15.7253 10.769 15.4054 10.9757 15.2612 11.2956L14.7027 12.5343C14.6974 12.546 14.6857 12.5536 14.6729 12.5536H9.32715C9.3143 12.5536 9.30262 12.546 9.29731 12.5343L8.73891 11.2957C8.59469 10.9757 8.27477 10.769 7.92383 10.769H5.87855V9.70867H18.1215ZM7.64852 4.77516H16.3515V6.46676H7.64852V4.77516ZM17.2544 7.24191V8.93352H6.74563V7.24191H17.2544ZM5.86508 6.06348C5.95258 5.89047 6.12727 5.78305 6.32098 5.78305H6.87336V6.46676H6.35805C6.14398 6.46676 5.97047 6.64027 5.97047 6.85434V8.93352H5.49098C5.27691 8.93352 5.1034 9.10703 5.1034 9.32109V10.769H3.485L5.86508 6.06348ZM20.6425 18.6932H3.3575C3.08391 18.6932 2.86129 18.4706 2.86129 18.1971V12.1264C2.86129 11.8529 3.08387 11.6303 3.3575 11.6303H7.92383C7.93664 11.6303 7.9484 11.6379 7.95371 11.6496L8.51211 12.8882C8.65633 13.2082 8.97621 13.4148 9.32715 13.4148H14.6729C15.0238 13.4148 15.3437 13.2081 15.4879 12.8883L16.0463 11.6496V11.6496C16.0516 11.6379 16.0633 11.6303 16.0762 11.6303H20.6425C20.9161 11.6303 21.1386 11.8529 21.1386 12.1264V18.1971H21.1387C21.1387 18.4707 20.9161 18.6932 20.6425 18.6932Z" fill="black"/>
</svg>
