<svg width="24" height="24" viewBox="0 0 24 24" fill="none" xmlns="http://www.w3.org/2000/svg">
<path d="M6 16H15V17H6V16Z" fill="black"/>
<path d="M6 8H15V9H6V8Z" fill="black"/>
<path d="M7 14H12V15H7V14Z" fill="black"/>
<path d="M13 14H14V15H13V14Z" fill="black"/>
<path d="M7 12H12V13H7V12Z" fill="black"/>
<path d="M13 12H14V13H13V12Z" fill="black"/>
<path d="M7 10H12V11H7V10Z" fill="black"/>
<path d="M13 10H14V11H13V10Z" fill="black"/>
<path d="M16.8903 17.312V3.75777L15.1325 2L13.9607 3.17185L12.7888 2L11.617 3.17185L10.4451 2L9.2733 3.17185L8.10146 2L6.92961 3.17185L5.75777 2L4 3.75777V19.0704C4 20.6858 5.31422 22 6.92961 22H17.4762C18.4455 22 19.234 21.2109 19.234 20.2416V17.312H16.8903ZM5.17185 19.0704V4.24315L5.75777 3.65722L6.92961 4.82907L8.10146 3.65722L9.2733 4.82907L10.4451 3.65722L11.617 4.82907L12.7888 3.65722L13.9607 4.82907L15.1325 3.65722L15.7185 4.24315V20.2416C15.7185 20.4472 15.7543 20.6446 15.8194 20.8281H6.92961C5.96038 20.8282 5.17185 20.0396 5.17185 19.0704ZM18.0621 20.2416C18.0621 20.5647 17.7993 20.8276 17.4762 20.8276C17.1531 20.8276 16.8903 20.5647 16.8903 20.2416V18.4839H18.0621V20.2416Z" fill="black"/>
</svg>
