<svg width="24" height="24" viewBox="0 0 24 24" fill="none" xmlns="http://www.w3.org/2000/svg">
<path d="M10.5711 10.5714H9.14256V13.4286H6.2854V14.8572H9.14256V17.7144H10.5711V14.8572H13.4283V13.4286H10.5711V10.5714Z" fill="black"/>
<path d="M19.8571 2H8.42858C7.24692 2 6.28567 2.96124 6.28567 4.14284V6.28567H4.14284C2.96124 6.28567 2 7.24692 2 8.42858V19.8572C2 21.0388 2.96124 22 4.14284 22H15.5714C16.7531 22 17.7143 21.0388 17.7143 19.8572V17.7143H19.8571C21.0388 17.7143 21.9999 16.7531 21.9999 15.5715V4.14284C21.9999 2.96124 21.0388 2 19.8571 2V2ZM16.2857 19.8571C16.2857 20.2512 15.9655 20.5713 15.5714 20.5713H4.14284C3.74871 20.5713 3.42858 20.2511 3.42858 19.8571V8.42858C3.42858 8.03446 3.74878 7.71433 4.14284 7.71433H15.5714C15.9655 7.71433 16.2857 8.03453 16.2857 8.42858V19.8571ZM20.5714 15.5714C20.5714 15.9655 20.2512 16.2857 19.8572 16.2857H17.7143V8.42858C17.7143 7.24692 16.7531 6.28574 15.5715 6.28574H7.71426V4.14284C7.71426 3.74871 8.03446 3.42858 8.42851 3.42858H19.8571C20.2512 3.42858 20.5714 3.74878 20.5714 4.14284V15.5714H20.5714Z" fill="black"/>
</svg>
