<svg width="24" height="24" viewBox="0 0 24 24" fill="none" xmlns="http://www.w3.org/2000/svg">
<path d="M17.3188 11.1163C17.2176 10.8925 16.9951 10.75 16.7501 10.75H14.2501V2.625C14.2501 2.28 13.9701 2 13.6251 2H11.1251C10.7801 2 10.5001 2.28 10.5001 2.625V10.75H8.00008C7.75508 10.75 7.53258 10.8938 7.43133 11.1163C7.32883 11.34 7.36883 11.6012 7.53008 11.7863L11.9051 16.7863C12.0238 16.9225 12.1951 17 12.3751 17C12.5551 17 12.7263 16.9213 12.8451 16.7863L17.2201 11.7863C17.3826 11.6025 17.4201 11.34 17.3188 11.1163Z" fill="black"/>
<path d="M19.25 15.75V19.5H5.5V15.75H3V20.75C3 21.4412 3.56 22 4.25 22H20.5C21.1912 22 21.75 21.4412 21.75 20.75V15.75H19.25Z" fill="black"/>
</svg>
