<svg width="24" height="24" viewBox="0 0 24 24" fill="none" xmlns="http://www.w3.org/2000/svg">
<path d="M12 3.81818C6.54545 3.81818 1.85455 7.19999 0 12C1.85455 16.8 6.54545 20.1818 12 20.1818C17.4545 20.1818 22.1455 16.8 24 12C22.1455 7.19999 17.4545 3.81818 12 3.81818ZM12 17.4545C8.94545 17.4545 6.54545 15.0545 6.54545 12C6.54545 8.94545 8.94545 6.54545 12 6.54545C15.0545 6.54545 17.4545 8.94545 17.4545 12C17.4545 15.0545 15.0545 17.4545 12 17.4545ZM12 8.72727C10.1455 8.72727 8.72727 10.1454 8.72727 12C8.72727 13.8545 10.1455 15.2727 12 15.2727C13.8545 15.2727 15.2727 13.8545 15.2727 12C15.2727 10.1454 13.8545 8.72727 12 8.72727Z" fill="#999999"/>
</svg>
