<svg width="14" height="24" viewBox="0 0 14 24" fill="none" xmlns="http://www.w3.org/2000/svg">
<path d="M12.999 0.0049936L9.88673 0C6.39024 0 4.13066 2.31828 4.13066 5.90643V8.62969H1.00145C0.731052 8.62969 0.512085 8.84891 0.512085 9.11932V13.065C0.512085 13.3354 0.731302 13.5544 1.00145 13.5544H4.13066V23.5106C4.13066 23.781 4.34963 24 4.62003 24H8.70276C8.97316 24 9.19213 23.7808 9.19213 23.5106V13.5544H12.8509C13.1213 13.5544 13.3403 13.3354 13.3403 13.065L13.3418 9.11932C13.3418 8.98948 13.2901 8.86514 13.1985 8.77326C13.1068 8.68138 12.982 8.62969 12.8521 8.62969H9.19213V6.32115C9.19213 5.21157 9.45653 4.64829 10.9019 4.64829L12.9985 4.64755C13.2686 4.64755 13.4876 4.42833 13.4876 4.15817V0.494367C13.4876 0.224462 13.2689 0.00549296 12.999 0.0049936Z" fill="#999999"/>
</svg>
