<svg width="24" height="24" viewBox="0 0 24 24" fill="none" xmlns="http://www.w3.org/2000/svg">
<path d="M19.2514 9.54554L18.7465 8.34585C18.7465 8.34585 19.9212 5.69543 19.8174 5.59353L18.262 4.07516C18.1545 3.97048 15.5032 5.18035 15.5032 5.18035L14.2803 4.68658C14.2803 4.68658 13.2001 2.00003 13.0519 2.00003H10.8573C10.7044 2.00003 9.70485 4.69214 9.70485 4.69214L8.48386 5.18776C8.48386 5.18776 5.77692 4.03718 5.67317 4.14001L4.12052 5.66023C4.01306 5.76491 5.24888 8.3616 5.24888 8.3616L4.74399 9.55944C4.74399 9.55944 2 10.6165 2 10.7591V12.9102C2 13.0603 4.75047 14.0395 4.75047 14.0395L5.25536 15.2355C5.25536 15.2355 4.08069 17.884 4.18352 17.9859L5.73801 19.508C5.84362 19.6109 8.4959 18.401 8.4959 18.401L9.71967 18.8966C9.71967 18.8966 10.7999 21.5813 10.949 21.5813H13.1436C13.2956 21.5813 14.2961 18.8892 14.2961 18.8892L15.5208 18.3936C15.5208 18.3936 18.2222 19.5441 18.3268 19.4432L19.8813 17.923C19.9897 17.8164 18.7511 15.2216 18.7511 15.2216L19.2551 14.0237C19.2551 14.0237 22 12.9649 22 12.8204V10.6711C22.0009 10.522 19.2514 9.54554 19.2514 9.54554ZM15.2067 11.7902C15.2067 13.5198 13.768 14.9279 12.0005 14.9279C10.2347 14.9279 8.7942 13.5198 8.7942 11.7902C8.7942 10.0606 10.2347 8.65435 12.0005 8.65435C13.769 8.65527 15.2067 10.0606 15.2067 11.7902Z" fill="black"/>
</svg>
