<svg width="24" height="24" viewBox="0 0 24 24" fill="none" xmlns="http://www.w3.org/2000/svg">
<path d="M20.8604 2H2.51181C2.23018 2 1.99976 2.23042 1.99976 2.51205C1.99976 2.79368 2.23018 3.02411 2.51181 3.02411H3.617V21.4751C3.617 21.6629 3.71941 21.8378 3.88582 21.9275C4.05224 22.0171 4.2528 22.0085 4.41068 21.9019L6.63385 20.4212L8.86556 21.9061C9.03624 22.0213 9.2624 22.0213 9.43308 21.9061L11.6563 20.4254L13.888 21.9104C14.0586 22.0256 14.2848 22.0256 14.4555 21.9104L16.6787 20.4297L18.9104 21.9147C18.9957 21.9701 19.0938 22 19.192 22C19.2731 22 19.3584 21.9787 19.4352 21.9403C19.6016 21.8507 19.704 21.6757 19.704 21.4879L19.6955 3.03691H20.8604C21.1421 3.03691 21.3725 2.80649 21.3725 2.52486C21.3725 2.24323 21.1421 2 20.8604 2ZM18.6842 20.5193L16.9646 19.3757C16.7939 19.2605 16.5677 19.2605 16.397 19.3757L14.1739 20.8607L11.9422 19.3757C11.7715 19.2605 11.5453 19.2605 11.3746 19.3757L9.15145 20.8564L6.91975 19.3757C6.74906 19.2605 6.52291 19.2605 6.35222 19.3757L4.6411 20.515V3.01984H18.6799L18.6842 20.5193Z" fill="black"/>
<path d="M6.99667 10.1758H12.3604C12.6421 10.1758 12.8725 9.94542 12.8725 9.66379C12.8725 9.38216 12.6421 9.15173 12.3604 9.15173H6.99667C6.71504 9.15173 6.48462 9.38216 6.48462 9.66379C6.48462 9.94542 6.71078 10.1758 6.99667 10.1758Z" fill="black"/>
<path d="M6.99667 11.9552H11.0163C11.2979 11.9552 11.5284 11.7248 11.5284 11.4432C11.5284 11.1615 11.2979 10.9311 11.0163 10.9311H6.99667C6.71504 10.9311 6.48462 11.1615 6.48462 11.4432C6.48462 11.7248 6.71078 11.9552 6.99667 11.9552Z" fill="black"/>
<path d="M15.0399 10.1758H16.3798C16.6614 10.1758 16.8918 9.94542 16.8918 9.66379C16.8918 9.38216 16.6614 9.15173 16.3798 9.15173H15.0399C14.7583 9.15173 14.5278 9.38216 14.5278 9.66379C14.5278 9.94542 14.754 10.1758 15.0399 10.1758Z" fill="black"/>
<path d="M15.0399 11.9552H16.3798C16.6614 11.9552 16.8918 11.7248 16.8918 11.4432C16.8918 11.1615 16.6614 10.9311 16.3798 10.9311H15.0399C14.7583 10.9311 14.5278 11.1615 14.5278 11.4432C14.5278 11.7248 14.754 11.9552 15.0399 11.9552Z" fill="black"/>
<path d="M6.99667 6.06656H12.3604C12.6421 6.06656 12.8725 5.83613 12.8725 5.5545C12.8725 5.27287 12.6421 5.04245 12.3604 5.04245H6.99667C6.71504 5.04245 6.48462 5.27287 6.48462 5.5545C6.48462 5.83613 6.71078 6.06656 6.99667 6.06656Z" fill="black"/>
<path d="M6.99667 7.84168H11.0163C11.2979 7.84168 11.5284 7.61126 11.5284 7.32962C11.5284 7.04799 11.2979 6.81757 11.0163 6.81757H6.99667C6.71504 6.81757 6.48462 7.04799 6.48462 7.32962C6.48462 7.61126 6.71078 7.84168 6.99667 7.84168Z" fill="black"/>
<path d="M15.0399 6.06656H16.3798C16.6614 6.06656 16.8918 5.83613 16.8918 5.5545C16.8918 5.27287 16.6614 5.04245 16.3798 5.04245H15.0399C14.7583 5.04245 14.5278 5.27287 14.5278 5.5545C14.5278 5.83613 14.754 6.06656 15.0399 6.06656Z" fill="black"/>
<path d="M15.0399 7.84168H16.3798C16.6614 7.84168 16.8918 7.61126 16.8918 7.32962C16.8918 7.04799 16.6614 6.81757 16.3798 6.81757H15.0399C14.7583 6.81757 14.5278 7.04799 14.5278 7.32962C14.5278 7.61126 14.754 7.84168 15.0399 7.84168Z" fill="black"/>
<path d="M6.99667 14.3363H12.3604C12.6421 14.3363 12.8725 14.1058 12.8725 13.8242C12.8725 13.5426 12.6421 13.3122 12.3604 13.3122H6.99667C6.71504 13.3122 6.48462 13.5426 6.48462 13.8242C6.48462 14.1058 6.71078 14.3363 6.99667 14.3363Z" fill="black"/>
<path d="M6.99667 16.1114H11.0163C11.2979 16.1114 11.5284 15.8809 11.5284 15.5993C11.5284 15.3177 11.2979 15.0872 11.0163 15.0872H6.99667C6.71504 15.0872 6.48462 15.3177 6.48462 15.5993C6.48462 15.8809 6.71078 16.1114 6.99667 16.1114Z" fill="black"/>
<path d="M15.0399 14.3363H16.3798C16.6614 14.3363 16.8918 14.1058 16.8918 13.8242C16.8918 13.5426 16.6614 13.3122 16.3798 13.3122H15.0399C14.7583 13.3122 14.5278 13.5426 14.5278 13.8242C14.5278 14.1058 14.754 14.3363 15.0399 14.3363Z" fill="black"/>
<path d="M15.0399 16.1114H16.3798C16.6614 16.1114 16.8918 15.8809 16.8918 15.5993C16.8918 15.3177 16.6614 15.0872 16.3798 15.0872H15.0399C14.7583 15.0872 14.5278 15.3177 14.5278 15.5993C14.5278 15.8809 14.754 16.1114 15.0399 16.1114Z" fill="black"/>
</svg>
