<svg width="11" height="11" viewBox="0 0 11 11" fill="none" xmlns="http://www.w3.org/2000/svg">
<g clip-path="url(#clip0)">
<path d="M0.618324 6.3627L0.601153 6.35894L7.96185 6.35894L5.64792 8.67798C5.53461 8.7912 5.47245 8.94457 5.47245 9.10555C5.47245 9.26652 5.53461 9.41882 5.64792 9.53231L6.00797 9.89254C6.12118 10.0058 6.27205 10.0684 6.43294 10.0684C6.59392 10.0684 6.74488 10.0062 6.8581 9.89298L10.8246 5.92681C10.9383 5.81315 11.0004 5.66174 11 5.50068C11.0004 5.33872 10.9383 5.18722 10.8246 5.07373L6.8581 1.1072C6.74488 0.994074 6.59401 0.931831 6.43294 0.931831C6.27206 0.931831 6.12119 0.994164 6.00797 1.1072L5.64792 1.46743C5.53461 1.58047 5.47245 1.73143 5.47245 1.89241C5.47245 2.05329 5.53461 2.19629 5.64792 2.30942L7.98797 4.64142L0.610095 4.64142C0.278575 4.64142 -1.45789e-06 4.92716 -1.48686e-06 5.2585L-1.5314e-06 5.76798C-1.56036e-06 6.09933 0.286803 6.3627 0.618324 6.3627Z" fill="#333333"/>
</g>
<defs>
<clipPath id="clip0">
<rect width="11" height="11" fill="white" transform="translate(11 11) rotate(-180)"/>
</clipPath>
</defs>
</svg>
