<svg width="24" height="24" viewBox="0 0 24 24" fill="none" xmlns="http://www.w3.org/2000/svg">
<path d="M9.9483 12.0042L17.4302 4.52195C17.6363 4.31642 17.7496 4.04163 17.7496 3.74862C17.7496 3.45545 17.6363 3.18081 17.4302 2.97496L16.7746 2.31967C16.5689 2.1135 16.294 2 16.001 2C15.708 2 15.4333 2.1135 15.2275 2.31967L6.31903 11.228C6.11236 11.4345 5.99919 11.7104 6 12.0037C5.99919 12.2984 6.1122 12.574 6.31903 12.7807L15.2192 21.6803C15.425 21.8865 15.6997 22 15.9928 22C16.2859 22 16.5605 21.8865 16.7665 21.6803L17.422 21.025C17.8485 20.5985 17.8485 19.9042 17.422 19.4779L9.9483 12.0042Z" fill="black"/>
</svg>
