<svg width="24" height="24" viewBox="0 0 24 24" fill="none" xmlns="http://www.w3.org/2000/svg">
<path d="M14.0517 11.9958L6.56975 19.478C6.36374 19.6836 6.2504 19.9584 6.2504 20.2514C6.2504 20.5446 6.36374 20.8192 6.56975 21.025L7.22536 21.6803C7.43105 21.8865 7.70601 22 7.99902 22C8.29203 22 8.56666 21.8865 8.77252 21.6803L17.681 12.772C17.8876 12.5655 18.0008 12.2896 18 11.9963C18.0008 11.7016 17.8878 11.426 17.681 11.2193L8.78081 2.31967C8.57496 2.1135 8.30032 2 8.00715 2C7.71414 2 7.43951 2.1135 7.23349 2.31967L6.57805 2.97496C6.15154 3.40146 6.15154 4.09577 6.57805 4.52211L14.0517 11.9958Z" fill="black"/>
</svg>
