<svg width="24" height="24" viewBox="0 0 24 24" fill="none" xmlns="http://www.w3.org/2000/svg">
<path d="M11.9515 9.2996C11.7199 9.06804 11.3435 9.06685 11.1107 9.29841L9.15609 11.2542L8.38897 10.4859C8.1574 10.2544 7.78097 10.2544 7.5494 10.4859C7.31784 10.7175 7.31784 11.0939 7.5494 11.3255L8.7369 12.513C8.85209 12.6294 9.00409 12.6875 9.15609 12.6875C9.30809 12.6875 9.46009 12.6294 9.57647 12.5142L11.9515 10.1392C12.183 9.9076 12.183 9.53116 11.9515 9.2996Z" fill="black"/>
<path d="M11.9515 14.0496C11.7199 13.818 11.3435 13.8169 11.1107 14.0484L9.15609 16.0042L8.38897 15.2371C8.1574 15.0055 7.78097 15.0055 7.5494 15.2371C7.31784 15.4687 7.31784 15.8451 7.5494 16.0767L8.7369 17.2642C8.85209 17.3793 9.00409 17.4375 9.15609 17.4375C9.30809 17.4375 9.46009 17.3793 9.57647 17.2642L11.9515 14.8892C12.183 14.6576 12.183 14.2812 11.9515 14.0496Z" fill="black"/>
<path d="M16.2812 10.3125H13.9062C13.5785 10.3125 13.3125 10.5785 13.3125 10.9062C13.3125 11.234 13.5785 11.5 13.9062 11.5H16.2812C16.609 11.5 16.875 11.234 16.875 10.9062C16.875 10.5785 16.609 10.3125 16.2812 10.3125Z" fill="black"/>
<path d="M16.2812 15.0625H13.9062C13.5785 15.0625 13.3125 15.3285 13.3125 15.6562C13.3125 15.984 13.5785 16.25 13.9062 16.25H16.2812C16.609 16.25 16.875 15.984 16.875 15.6562C16.875 15.3285 16.609 15.0625 16.2812 15.0625Z" fill="black"/>
<path d="M18.0625 4.375H15.6875V3.78125C15.6875 3.4535 15.4215 3.1875 15.0938 3.1875H13.8053C13.5595 2.49637 12.8993 2 12.125 2C11.3507 2 10.6905 2.49637 10.4447 3.1875H9.15625C8.8285 3.1875 8.5625 3.4535 8.5625 3.78125V4.375H6.1875C5.53319 4.375 5 4.90819 5 5.5625V19.8125C5 20.4668 5.53319 21 6.1875 21H18.0625C18.7168 21 19.25 20.4668 19.25 19.8125V5.5625C19.25 4.90819 18.7168 4.375 18.0625 4.375ZM9.75 4.375H10.9375C11.2653 4.375 11.5312 4.109 11.5312 3.78125C11.5312 3.4535 11.7972 3.1875 12.125 3.1875C12.4528 3.1875 12.7188 3.4535 12.7188 3.78125C12.7188 4.109 12.9847 4.375 13.3125 4.375H14.5V5.5625H9.75V4.375ZM18.0625 19.8125H6.1875V5.5625H8.5625V6.15625C8.5625 6.484 8.8285 6.75 9.15625 6.75H15.0938C15.4215 6.75 15.6875 6.484 15.6875 6.15625V5.5625H18.0625V19.8125Z" fill="black"/>
</svg>
