<svg width="24" height="24" viewBox="0 0 24 24" fill="none" xmlns="http://www.w3.org/2000/svg">
<path d="M21.3479 12.2172H8.73932C8.37933 12.2172 8.08716 11.9251 8.08716 11.5651C8.08716 11.2051 8.37933 10.9129 8.73932 10.9129H21.3479C21.7079 10.9129 22 11.2051 22 11.5651C22 11.9251 21.7079 12.2172 21.3479 12.2172Z" fill="black"/>
<path d="M12.2173 15.6954C12.0503 15.6954 11.8834 15.632 11.7564 15.5042L8.27822 12.026C8.02347 11.7711 8.02347 11.3581 8.27822 11.1033L11.7564 7.62521C12.0111 7.37046 12.4241 7.37046 12.679 7.62521C12.9338 7.87996 12.9338 8.29297 12.679 8.54772L9.66167 11.5651L12.679 14.5824C12.9338 14.8372 12.9338 15.2502 12.679 15.505C12.5512 15.632 12.3842 15.6954 12.2173 15.6954Z" fill="black"/>
<path d="M11.5651 21.1301C6.29127 21.1301 2 16.8389 2 11.5651C2 6.29127 6.29127 2 11.5651 2C15.5223 2 19.0162 4.3808 20.4675 8.06608C20.5996 8.40076 20.4344 8.77906 20.0997 8.91201C19.7648 9.04257 19.3865 8.87985 19.2536 8.54342C18.0005 5.36079 14.9824 3.30432 11.5651 3.30432C7.0103 3.30432 3.30432 7.01046 3.30432 11.5651C3.30432 16.1197 7.0103 19.8258 11.5651 19.8258C14.9824 19.8258 18.0005 17.7694 19.2536 14.5877C19.3857 14.2511 19.764 14.0885 20.0997 14.2189C20.4344 14.3511 20.5996 14.7302 20.4675 15.065C19.0162 18.7493 15.5223 21.1301 11.5651 21.1301Z" fill="black"/>
</svg>
