<svg width="27" height="14" viewBox="0 0 27 14" fill="none" xmlns="http://www.w3.org/2000/svg">
<path d="M0.865782 7.8658L24.0442 7.8658L20.1838 11.7265C19.8456 12.0645 19.8456 12.6128 20.1838 12.9507C20.522 13.2889 21.0703 13.2889 21.408 12.9507L26.7464 7.61225C27.0845 7.27426 27.0845 6.72591 26.7464 6.38802L21.408 1.04932C21.239 0.880171 21.0174 0.795723 20.7959 0.795723C20.5744 0.795723 20.3529 0.880171 20.1838 1.04932C19.8456 1.38732 19.8456 1.93561 20.1838 2.27351L24.0442 6.13437L0.865782 6.13437C0.387686 6.13437 -1.08599e-05 6.52201 -1.09017e-05 7.00011C-1.09435e-05 7.4782 0.387637 7.8658 0.865782 7.8658Z" fill="#87B8A3"/>
</svg>
