<svg width="24" height="24" viewBox="0 0 24 24" fill="none" xmlns="http://www.w3.org/2000/svg">
<path d="M5.00006 22H17.6667C18.2189 22 19 21.5523 19 20.9999V5H20.0001C20.3683 5 21 5 21 4V3.66672C20.9988 2.74661 19.92 2.00107 19 2H5.00006C4.44769 2 4 2.44769 4 3.00006V20.9999C4 21.5523 4.44769 22 5.00006 22ZM19 3.00006C19.5522 3.00006 20.0001 3.11435 20.0001 3.66672V4H8H7C6.99878 3.63806 7 3.5 7 3.00006H19ZM5.00006 4.00006C5.00006 3.81589 5.00006 3.00006 5.00006 3.00006C5.55228 3.00006 5.99997 3.11435 5.99997 3.66672V4.66663C5.99997 5.03482 6.29843 5 6.66663 5H17.9999V19.9999C17.9999 20.9999 17.9999 20.9999 17.6667 20.9999H5.00006C5.00006 20.6665 5.00006 20.6842 5.00006 20.5V4.00006Z" fill="black"/>
<path d="M6.98433 12H9.98419C10.5365 12 10.9844 11.5523 10.9844 11V10.5001C10.9844 10.2238 10.7603 10 10.4843 10C10.2083 10 9.98419 10.2238 9.98419 10.5001V11H6.98433V8H8.48438C8.7604 8 8.98424 7.77615 8.98424 7.50011C8.98424 7.22385 8.7604 7 8.48438 7H6.98433C6.43205 7 5.98438 7.4477 5.98438 8V11C5.98438 11.5523 6.43205 12 6.98433 12Z" fill="black"/>
<path d="M6.98433 20H9.98419C10.5365 20 10.9844 19.5523 10.9844 19V16.0002C10.9844 15.4479 10.5365 15 9.98419 15H6.98433C6.43205 15 5.98438 15.4479 5.98438 16.0002V19C5.98438 19.5523 6.43205 20 6.98433 20ZM6.98433 16.0002H9.98419V19H6.98433V16.0002Z" fill="black"/>
<path d="M7.9272 8.93998C7.70896 8.72934 7.36186 8.7324 7.14719 8.94659C6.93276 9.16104 6.92971 9.50751 7.14056 9.72578L8.25316 10.8372C8.35757 10.9412 8.49891 11 8.64636 11H8.6927C8.85568 10.9863 9.00441 10.9018 9.09939 10.7688L11.8808 6.87868C11.9964 6.71715 12.0168 6.50626 11.9342 6.32564C11.852 6.14478 11.6793 6.02165 11.4815 6.00257C11.2836 5.98349 11.0906 6.07151 10.9752 6.23305L8.57582 9.58892L7.9272 8.93998Z" fill="black"/>
<rect x="12.9844" y="7" width="2" height="1" rx="0.5" fill="#333333"/>
<rect x="12.9844" y="9" width="4" height="1" rx="0.5" fill="#333333"/>
<rect x="12.9844" y="11" width="4" height="1" rx="0.5" fill="#333333"/>
<rect x="12.9844" y="11" width="4" height="1" rx="0.5" fill="#333333"/>
<rect x="12.9844" y="15" width="4" height="1" rx="0.5" fill="#333333"/>
<rect x="12.9844" y="19" width="3" height="1" rx="0.5" fill="#333333"/>
<rect x="12.9844" y="17" width="2" height="1" rx="0.5" fill="#333333"/>
</svg>
