<svg width="24" height="24" viewBox="0 0 24 24" fill="none" xmlns="http://www.w3.org/2000/svg">
<path d="M7.67954 12.2478C7.67954 11.7092 7.30558 11.3878 6.64563 11.3878C6.37642 11.3878 6.19403 11.4138 6.09839 11.4398V13.1692C6.21146 13.1949 6.35046 13.2036 6.54109 13.2036C7.24519 13.2036 7.67954 12.8475 7.67954 12.2478Z" fill="black"/>
<path d="M11.7641 11.4052C11.4684 11.4052 11.2777 11.4312 11.1643 11.4573V15.2889C11.2775 15.3153 11.4599 15.3153 11.6251 15.3153C12.824 15.3237 13.606 14.6637 13.606 13.2647C13.6148 12.0478 12.9021 11.4052 11.7641 11.4052Z" fill="black"/>
<path d="M19.5909 9.15391H19.1107V6.8367C19.1107 6.82225 19.1084 6.80769 19.1065 6.79306C19.1057 6.70104 19.0764 6.61067 19.0134 6.53906L15.1573 2.13413C15.1562 2.13301 15.1551 2.13261 15.1543 2.13137C15.1313 2.1057 15.1045 2.08435 15.0761 2.06587C15.0678 2.06024 15.0593 2.05552 15.0505 2.05065C15.026 2.03725 14.9999 2.02614 14.9731 2.01812C14.9659 2.01609 14.9593 2.01311 14.9521 2.01122C14.923 2.00432 14.8927 2 14.8621 2H5.38522C4.95247 2 4.60091 2.35196 4.60091 2.78435V9.15373H4.12078C3.50171 9.15373 2.99976 9.65547 2.99976 10.2747V16.1043C2.99976 16.7231 3.50171 17.2252 4.12078 17.2252H4.60095V21.2157C4.60095 21.648 4.95251 22 5.38526 22H18.3264C18.7587 22 19.1107 21.648 19.1107 21.2157V17.2252H19.591C20.2098 17.2252 20.7119 16.7231 20.7119 16.1043V10.2749C20.7119 9.65569 20.2098 9.15391 19.5909 9.15391ZM5.38522 2.78449H14.4699V6.7973C14.4699 7.01397 14.6457 7.18946 14.8621 7.18946H18.3264V9.15416H5.38522V2.78449ZM15.0133 13.2209C15.0133 14.342 14.6051 15.115 14.0395 15.5931C13.4233 16.1057 12.4847 16.3489 11.3381 16.3489C10.6518 16.3489 10.1654 16.3055 9.83481 16.2622V10.51C10.3213 10.4319 10.956 10.3885 11.6251 10.3885C12.7366 10.3885 13.458 10.5885 14.023 11.014C14.6309 11.4659 15.0133 12.1869 15.0133 13.2209ZM4.7861 16.2882V10.51C5.19427 10.4408 5.76801 10.3885 6.57607 10.3885C7.39273 10.3885 7.97501 10.5449 8.36586 10.8579C8.73957 11.1531 8.99095 11.6398 8.99095 12.2133C8.99095 12.787 8.80032 13.2735 8.4525 13.6035C8.00072 14.0293 7.33177 14.2206 6.54956 14.2206C6.37607 14.2206 6.21914 14.2118 6.09804 14.1944V16.2884H4.7861V16.2882ZM18.3264 21.0033H5.38522V17.2252H18.3264V21.0033H18.3264ZM19.4628 11.518H17.2119V12.8561H19.3148V13.9336H17.2119V16.2883H15.8832V10.4319H19.4628V11.518Z" fill="black"/>
</svg>
