<svg width="18" height="18" viewBox="0 0 18 18" fill="none" xmlns="http://www.w3.org/2000/svg">
<path d="M10.5056 10.382V17.0899C10.5056 17.3371 10.4164 17.5506 10.2379 17.7303C10.0595 17.9101 9.84758 18 9.60223 18H8.36431C8.11896 18 7.90706 17.9101 7.72862 17.7303C7.55019 17.5506 7.46097 17.3371 7.46097 17.0899V10.382H0.903346C0.657992 10.382 0.446097 10.2921 0.267658 10.1124C0.0892193 9.93259 0 9.7191 0 9.47191V8.42697C0 8.17978 0.0892193 7.96629 0.267658 7.78652C0.446097 7.60674 0.657992 7.51685 0.903346 7.51685H7.46097V0.910113C7.46097 0.662922 7.55019 0.449439 7.72862 0.269663C7.90706 0.0898878 8.11896 0 8.36431 0H9.60223C9.84758 0 10.0595 0.0898878 10.2379 0.269663C10.4164 0.449439 10.5056 0.662922 10.5056 0.910113V7.51685H17.0967C17.342 7.51685 17.5539 7.60674 17.7323 7.78652C17.9108 7.96629 18 8.17978 18 8.42697V9.47191C18 9.7191 17.9108 9.93259 17.7323 10.1124C17.5539 10.2921 17.342 10.382 17.0967 10.382H10.5056Z" fill="white"/>
</svg>
