<svg width="46" height="46" viewBox="0 0 46 46" fill="none" xmlns="http://www.w3.org/2000/svg">
<path d="M25.0154 20.9168V18.1151C25.0154 17.7431 24.7136 17.4413 24.3416 17.4413H11.834C11.4616 17.4413 11.1602 17.7431 11.1602 18.1151V20.9168C11.1602 21.2888 11.4616 21.5906 11.834 21.5906H24.3416C24.7136 21.5906 25.0154 21.2891 25.0154 20.9168ZM23.6677 20.2429H12.5078V18.7889H23.6677V20.2429Z" fill="#315658"/>
<path d="M25.5996 39.0195H34.2952C34.6672 39.0195 34.969 38.7177 34.969 38.3457V35.5437C34.969 35.1717 34.6672 34.8699 34.2952 34.8699H25.5996C25.2272 34.8699 24.9258 35.1717 24.9258 35.5437V38.3457C24.9258 38.7177 25.2272 39.0195 25.5996 39.0195ZM26.2734 36.2175H33.6213V37.6719H26.2734V36.2175Z" fill="#315658"/>
<path d="M34.2949 13.3593H11.834C11.4616 13.3593 11.1602 13.6612 11.1602 14.0332C11.1602 14.4055 11.4616 14.707 11.834 14.707H34.2949C34.6669 14.707 34.9688 14.4055 34.9688 14.0332C34.9688 13.6612 34.6669 13.3593 34.2949 13.3593Z" fill="#315658"/>
<path d="M19.9841 24.5449C19.9841 24.1729 19.6823 23.8711 19.3103 23.8711H11.834C11.4616 23.8711 11.1602 24.1729 11.1602 24.5449C11.1602 24.9173 11.4616 25.2188 11.834 25.2188H19.3103C19.6823 25.2188 19.9841 24.9173 19.9841 24.5449Z" fill="#315658"/>
<path d="M18.0876 27.2704H11.834C11.4616 27.2704 11.1602 27.5719 11.1602 27.9442C11.1602 28.3162 11.4616 28.618 11.834 28.618H18.0876C18.46 28.618 18.7614 28.3162 18.7614 27.9442C18.7614 27.5719 18.46 27.2704 18.0876 27.2704Z" fill="#315658"/>
<path d="M18.0876 30.6694H11.834C11.4616 30.6694 11.1602 30.9712 11.1602 31.3432C11.1602 31.7156 11.4616 32.017 11.834 32.017H18.0876C18.46 32.017 18.7614 31.7156 18.7614 31.3432C18.7614 30.9712 18.46 30.6694 18.0876 30.6694Z" fill="#315658"/>
<path d="M34.295 30.6694H31.168C30.7956 30.6694 30.4941 30.9712 30.4941 31.3432C30.4941 31.7156 30.7956 32.017 31.168 32.017H34.295C34.667 32.017 34.9688 31.7156 34.9688 31.3432C34.9688 30.9712 34.667 30.6694 34.295 30.6694Z" fill="#315658"/>
<path d="M34.295 27.2704H31.168C30.7956 27.2704 30.4941 27.5722 30.4941 27.9442C30.4941 28.3162 30.7956 28.618 31.168 28.618H34.295C34.667 28.618 34.9688 28.3162 34.9688 27.9442C34.9688 27.5722 34.667 27.2704 34.295 27.2704Z" fill="#315658"/>
<path d="M34.295 23.8711H31.168C30.7956 23.8711 30.4941 24.1729 30.4941 24.5449C30.4941 24.9173 30.7956 25.2188 31.168 25.2188H34.295C34.667 25.2188 34.9688 24.9173 34.9688 24.5449C34.9688 24.1729 34.667 23.8711 34.295 23.8711Z" fill="#315658"/>
<path d="M37.0097 15.8515C37.3817 15.8515 37.6835 15.5496 37.6835 15.1776V0.673828C37.6835 0.301819 37.3817 0 37.0097 0C34.8738 0 34.6948 2.69531 33.5226 2.69531C32.3511 2.69531 32.1742 0 30.0359 0C27.9007 0 27.721 2.69531 26.5499 2.69531C25.3745 2.69531 25.2054 0 23.0632 0C20.928 0 20.7486 2.69531 19.5772 2.69531C18.4074 2.69531 18.2274 0 16.0912 0C13.9556 0 13.7766 2.69531 12.6051 2.69531C11.4298 2.69531 11.2617 0 9.11914 0C8.74678 0 8.44531 0.301819 8.44531 0.673828V45.3262C8.44531 45.6982 8.74678 46 9.11914 46C11.2547 46 11.434 43.3047 12.6051 43.3047C13.7801 43.3047 13.9489 46 16.0912 46C18.2263 46 18.4057 43.3047 19.5772 43.3047C20.7525 43.3047 20.9213 46 23.0632 46C25.1987 46 25.3784 43.3047 26.5499 43.3047C27.7252 43.3047 27.8937 46 30.0359 46C32.1718 46 32.3508 43.3047 33.5226 43.3047C34.6944 43.3047 34.8713 46 37.0097 46C37.3817 46 37.6835 45.6982 37.6835 45.3262V17.6933C37.6835 17.3209 37.3817 17.0194 37.0097 17.0194C36.6373 17.0194 36.3358 17.3209 36.3358 17.6933V44.3123C35.6631 43.5686 35.1728 41.957 33.5226 41.957C31.3871 41.957 31.2081 44.6523 30.0359 44.6523C28.8662 44.6523 28.6861 41.957 26.5499 41.957C24.4143 41.957 24.2346 44.6523 23.0632 44.6523C21.8882 44.6523 21.7194 41.957 19.5772 41.957C17.4416 41.957 17.2623 44.6523 16.0912 44.6523C14.9155 44.6523 14.7474 41.957 12.6051 41.957C10.956 41.957 10.4661 43.5676 9.79297 44.3119V1.68808C10.4647 2.43105 10.9557 4.04297 12.6055 4.04297C14.7407 4.04297 14.92 1.34766 16.0912 1.34766C17.2668 1.34766 17.435 4.04297 19.5772 4.04297C21.7127 4.04297 21.892 1.34766 23.0635 1.34766C24.2389 1.34766 24.4077 4.04297 26.5499 4.04297C28.6854 4.04297 28.8644 1.34766 30.0362 1.34766C31.2081 1.34766 31.3849 4.04297 33.5229 4.04297C35.1728 4.04297 35.6634 2.4314 36.3358 1.68773V15.1776C36.3358 15.5496 36.6373 15.8515 37.0097 15.8515V15.8515Z" fill="#315658"/>
<path d="M34.9688 7.65427C34.9688 7.28226 34.6669 6.98044 34.2949 6.98044H18.0876C17.7152 6.98044 17.4138 7.28226 17.4138 7.65427C17.4138 8.02663 17.7152 8.32809 18.0876 8.32809H33.6211V9.78244H12.5078V8.32809H15.572C15.9443 8.32809 16.2458 8.02663 16.2458 7.65427C16.2458 7.28226 15.9443 6.98044 15.572 6.98044H11.834C11.4616 6.98044 11.1602 7.28226 11.1602 7.65427V10.4563C11.1602 10.8283 11.4616 11.1301 11.834 11.1301H34.2949C34.6669 11.1301 34.9688 10.8283 34.9688 10.4563V7.65427Z" fill="#315658"/>
</svg>
