<svg width="24" height="24" viewBox="0 0 24 24" fill="none" xmlns="http://www.w3.org/2000/svg">
<path d="M21.5557 19.3799L17.433 15.2575C18.4265 13.8233 18.9235 12.2244 18.9235 10.4618C18.9235 9.31593 18.7011 8.22007 18.2562 7.17444C17.8116 6.12863 17.2106 5.22722 16.4533 4.47C15.6961 3.71278 14.7948 3.11174 13.7492 2.6671C12.7033 2.22233 11.6075 1.99997 10.4617 1.99997C9.31596 1.99997 8.2201 2.22233 7.17447 2.6671C6.12866 3.11174 5.22725 3.71278 4.47003 4.47C3.71273 5.22722 3.11177 6.1288 2.66709 7.17444C2.22236 8.2202 2 9.31593 2 10.4618C2 11.6075 2.22236 12.703 2.66709 13.7489C3.11173 14.7946 3.71273 15.6958 4.47003 16.4531C5.22725 17.2105 6.12883 17.8113 7.17447 18.2562C8.22023 18.7009 9.31596 18.9232 10.4617 18.9232C12.2247 18.9232 13.8233 18.4262 15.2576 17.4327L19.3803 21.5432C19.6687 21.8477 20.0288 22 20.4619 22C20.8785 22 21.2393 21.8477 21.5436 21.5432C21.8479 21.2389 22.0003 20.8783 22.0003 20.4616C22.0004 20.0372 21.8521 19.6764 21.5557 19.3799ZM14.2659 14.2655C13.2122 15.3194 11.9442 15.8463 10.4617 15.8463C8.97943 15.8463 7.71147 15.3192 6.65771 14.2655C5.60395 13.2118 5.07709 11.944 5.07709 10.4615C5.07709 8.97923 5.60407 7.71106 6.65771 6.65751C7.71126 5.60371 8.97943 5.07689 10.4617 5.07689C11.9441 5.07689 13.212 5.60392 14.2659 6.65751C15.3197 7.71106 15.8466 8.97923 15.8466 10.4615C15.8466 11.944 15.3196 13.2118 14.2659 14.2655Z" fill="black"/>
</svg>
