<svg width="24" height="24" viewBox="0 0 24 24" fill="none" xmlns="http://www.w3.org/2000/svg">
<path d="M20.9764 9.90059L19.5726 9.66245C19.4264 9.19034 19.2384 8.73494 19.0086 8.30043L19.8358 7.14313C20.1868 6.65013 20.1324 5.97747 19.7021 5.55132L18.4571 4.30628C18.2231 4.07231 17.9139 3.94279 17.5839 3.94279C17.3248 3.94279 17.0783 4.02217 16.8694 4.17258L15.708 4.99982C15.2567 4.76168 14.7846 4.56531 14.2958 4.41908L14.0618 3.03199C13.9616 2.43454 13.4477 2.00003 12.8419 2.00003H11.0829C10.4771 2.00003 9.96323 2.43454 9.86296 3.03199L9.62064 4.45251C9.15271 4.59874 8.69731 4.79092 8.2628 5.02489L7.11385 4.19765C6.90495 4.04724 6.65427 3.96786 6.39524 3.96786C6.06518 3.96786 5.75183 4.09738 5.52204 4.33134L4.27282 5.57638C3.84667 6.00254 3.78818 6.67519 4.13913 7.16819L4.97472 8.34221C4.74493 8.7809 4.5611 9.2363 4.41905 9.70841L3.03196 9.94237C2.43451 10.0426 2 10.5565 2 11.1623V12.9213C2 13.5271 2.43451 14.041 3.03196 14.1412L4.45248 14.3836C4.59871 14.8515 4.79089 15.3069 5.02486 15.7414L4.2018 16.8862C3.85085 17.3792 3.90516 18.0518 4.33549 18.478L5.58053 19.723C5.8145 19.957 6.12367 20.0865 6.45373 20.0865C6.71276 20.0865 6.95926 20.0071 7.16816 19.8567L8.34218 19.0211C8.76415 19.2426 9.20702 19.4222 9.66242 19.5643L9.89639 20.9681C9.99666 21.5655 10.5105 22 11.1164 22H12.8795C13.4853 22 13.9992 21.5655 14.0994 20.9681L14.3376 19.5643C14.8097 19.418 15.2651 19.23 15.6996 19.0002L16.8569 19.8275C17.0658 19.9779 17.3165 20.0573 17.5755 20.0573C17.9056 20.0573 18.2148 19.9278 18.4487 19.6938L19.6938 18.4487C20.1199 18.0226 20.1784 17.3499 19.8275 16.8569L19.0002 15.6955C19.23 15.2568 19.4222 14.8014 19.5642 14.3334L20.968 14.0995C21.5655 13.9992 22 13.4853 22 12.8795V11.1206C22.0084 10.5148 21.5738 10.0009 20.9764 9.90059ZM20.8803 12.8795C20.8803 12.9338 20.8427 12.9798 20.7884 12.9881L19.0336 13.2806C18.8122 13.3182 18.6367 13.4811 18.5824 13.6942C18.4236 14.3084 18.1813 14.8975 17.8554 15.4448C17.7426 15.637 17.751 15.8751 17.8805 16.0589L18.9125 17.5129C18.9417 17.5547 18.9375 17.6173 18.8999 17.6549L17.6549 18.9C17.6257 18.9292 17.5964 18.9334 17.5755 18.9334C17.5504 18.9334 17.5296 18.925 17.5128 18.9125L16.0631 17.8805C15.8834 17.751 15.6411 17.7427 15.4489 17.8555C14.9016 18.1814 14.3125 18.4237 13.6984 18.5824C13.4811 18.6368 13.3182 18.8164 13.2847 19.0337L12.9881 20.7884C12.9797 20.8427 12.9338 20.8803 12.8795 20.8803H11.1205C11.0662 20.8803 11.0203 20.8427 11.0119 20.7884L10.7194 19.0337C10.6818 18.8122 10.5189 18.6368 10.3058 18.5824C9.70838 18.4279 9.13182 18.1897 8.59286 17.8805C8.50512 17.8304 8.40485 17.8053 8.30875 17.8053C8.19595 17.8053 8.07896 17.8388 7.98287 17.9098L6.52058 18.9501C6.49969 18.9626 6.4788 18.971 6.45791 18.971C6.4412 18.971 6.40777 18.9668 6.37853 18.9376L5.13349 17.6925C5.09589 17.6549 5.09171 17.5964 5.12095 17.5505L6.14874 16.1091C6.27825 15.9252 6.28661 15.6829 6.1738 15.4907C5.84792 14.9476 5.59724 14.3585 5.43848 13.7443C5.37999 13.5313 5.20451 13.3683 4.98726 13.3307L3.21997 13.0299C3.16566 13.0215 3.12806 12.9756 3.12806 12.9213V11.1623C3.12806 11.108 3.16566 11.0621 3.21997 11.0537L4.96219 10.7613C5.18362 10.7237 5.36328 10.5607 5.41759 10.3435C5.57218 9.7293 5.81032 9.13602 6.13202 8.58871C6.24483 8.39652 6.2323 8.15838 6.10278 7.97872L5.06246 6.51643C5.03322 6.47465 5.03739 6.41198 5.075 6.37438L6.32003 5.12934C6.34928 5.10009 6.37853 5.09592 6.39942 5.09592C6.42448 5.09592 6.44537 5.10427 6.46209 5.11681L7.90349 6.14459C8.08732 6.27411 8.32964 6.28246 8.52183 6.16966C9.06497 5.84377 9.65406 5.5931 10.2682 5.43433C10.4813 5.37584 10.6442 5.20037 10.6818 4.98311L10.9827 3.21582C10.991 3.16151 11.037 3.12391 11.0913 3.12391H12.8502C12.9045 3.12391 12.9505 3.16151 12.9588 3.21582L13.2513 4.95804C13.2889 5.17948 13.4518 5.35913 13.6691 5.41344C14.3 5.57221 14.9016 5.81871 15.4615 6.14877C15.6536 6.26157 15.8918 6.25322 16.0756 6.1237L17.517 5.08756C17.5379 5.07503 17.5588 5.06667 17.5797 5.06667C17.5964 5.06667 17.6298 5.07085 17.6591 5.10009L18.9041 6.34513C18.9417 6.38273 18.9459 6.44123 18.9167 6.48718L17.8847 7.93694C17.7552 8.1166 17.7468 8.35892 17.8596 8.55111C18.1855 9.09842 18.4278 9.68752 18.5866 10.3017C18.6409 10.5189 18.8206 10.6819 19.0378 10.7153L20.7926 11.0119C20.8469 11.0203 20.8845 11.0663 20.8845 11.1206V12.8795H20.8803Z" fill="black"/>
<path d="M12.0019 7.68134C9.62044 7.68134 7.68604 9.61574 7.68604 11.9972C7.68604 14.3786 9.62044 16.313 12.0019 16.313C14.3833 16.313 16.3177 14.3786 16.3177 11.9972C16.3177 9.61574 14.3833 7.68134 12.0019 7.68134ZM12.0019 15.185C10.243 15.185 8.81409 13.7561 8.81409 11.9972C8.81409 10.2383 10.243 8.80939 12.0019 8.80939C13.7608 8.80939 15.1897 10.2383 15.1897 11.9972C15.1897 13.7561 13.7608 15.185 12.0019 15.185Z" fill="black"/>
</svg>
