<svg width="24" height="24" viewBox="0 0 24 24" fill="none" xmlns="http://www.w3.org/2000/svg">
<path d="M21.6317 20.3069L18.4164 14.6585C18.7423 14.5064 18.9378 14.1589 18.9161 13.7678L18.6771 11.7692L20.0458 10.3354C20.3499 10.0312 20.3716 9.50984 20.0675 9.14053L18.6989 7.66327L18.9813 5.64291C19.0247 5.20842 18.7206 4.77393 18.2861 4.68703L16.3092 4.29599L15.3533 2.53632C15.1578 2.12356 14.6799 1.94976 14.2454 2.12356H14.2236L12.3988 2.97081L10.6174 2.10183C10.4219 1.99321 10.1829 1.97149 9.96566 2.03666C9.74842 2.10183 9.57463 2.2539 9.466 2.44942L8.48841 4.2091L6.51149 4.55669C6.05528 4.64358 5.75114 5.05635 5.79459 5.53428L6.03355 7.53293L4.66492 8.96673C4.36078 9.27088 4.33905 9.79226 4.64319 10.1616L6.01183 11.6388L5.72941 13.6592C5.68596 14.0502 5.92493 14.4196 6.29425 14.5716L3.05731 20.3069C2.97042 20.4372 2.99214 20.611 3.05731 20.7413C3.14421 20.8717 3.27456 20.9586 3.42663 20.9586H6.90253L8.48841 23.7176C8.57531 23.8479 8.70565 23.9348 8.85772 23.9348C9.00979 23.9348 9.16186 23.8479 9.22704 23.7176L12.3336 18.4168L15.4402 23.7828C15.5271 23.9131 15.6574 24 15.8095 24C15.9616 24 16.1137 23.9131 16.1788 23.7828L17.7647 20.9586H21.2406C21.3927 20.9586 21.5448 20.8717 21.6099 20.7413C21.7185 20.611 21.7185 20.4372 21.6317 20.3069ZM8.87945 22.6314L7.53254 20.3069C7.44564 20.1765 7.31529 20.0896 7.16322 20.0896H4.16526L7.16322 14.7889L8.40151 15.0061L9.35738 16.7658C9.5529 17.1785 10.0308 17.3523 10.4653 17.1785H10.487L11.3777 16.7658L11.8122 17.5261L8.87945 22.6314ZM10.1395 16.3965C10.1177 16.3965 10.1177 16.3965 10.1177 16.3965L9.16186 14.5933C9.03152 14.3761 8.81427 14.2023 8.55358 14.1806L6.55494 13.8113L6.83736 11.8126C6.8808 11.5519 6.79391 11.2695 6.62011 11.0957L5.2732 9.61847L6.64184 8.18466C6.83736 7.98914 6.92425 7.72845 6.8808 7.46775L6.64184 5.49083C6.64184 5.49083 6.64184 5.46911 6.66356 5.44739L8.64048 5.0998C8.87945 5.05635 9.11841 4.90428 9.24876 4.66531L10.2264 2.90563L12.0078 3.77461C12.2467 3.90496 12.5509 3.90496 12.7898 3.77461L14.593 2.94908C14.6147 2.94908 14.6147 2.94908 14.6147 2.94908L15.5706 4.75221C15.7009 4.96945 15.9181 5.14324 16.1571 5.16497L18.134 5.55601L17.8516 7.55465C17.8082 7.81534 17.8951 8.09776 18.0689 8.27155L19.4375 9.74881L18.0471 11.1826C17.8516 11.3781 17.7647 11.6388 17.8082 11.8995L18.0471 13.8982L16.0919 14.224C15.853 14.2675 15.614 14.4196 15.4837 14.6585L14.5061 16.4182L12.7247 15.5492C12.4857 15.4189 12.1816 15.4189 11.9426 15.5492L10.1395 16.3965ZM17.5257 20.0896C17.3737 20.0896 17.2216 20.1765 17.1564 20.3069L15.8095 22.6965L12.7464 17.3958C12.7247 17.3306 12.7029 17.2872 12.6595 17.2437L12.1816 16.3965L12.3336 16.3313L14.115 17.2003C14.2454 17.2654 14.3757 17.2872 14.5061 17.2872C14.8102 17.2872 15.1143 17.1351 15.2664 16.8527L16.244 15.093L17.5475 14.854L20.5237 20.0896H17.5257Z" fill="black"/>
<path d="M16.6783 9.66192C16.6783 7.27224 14.7231 5.31705 12.3334 5.31705C9.94372 5.31705 7.98853 7.27224 7.98853 9.66192C7.98853 12.0516 9.94372 14.0068 12.3334 14.0068C14.7231 14.0068 16.6783 12.0516 16.6783 9.66192ZM12.3334 13.1378C10.4217 13.1378 8.8575 11.5737 8.8575 9.66192C8.8575 7.75018 10.4217 6.18602 12.3334 6.18602C14.2451 6.18602 15.8093 7.75018 15.8093 9.66192C15.8093 11.5737 14.2451 13.1378 12.3334 13.1378Z" fill="black"/>
</svg>
