<svg width="24" height="24" viewBox="0 0 24 24" fill="none" xmlns="http://www.w3.org/2000/svg">
<path d="M17.9229 9.31236C17.8075 9.19614 17.6632 9.12834 17.4998 9.09928L14.1825 8.58597L12.6921 5.38985C12.5094 5.00244 12.0575 4.83779 11.6729 5.02181C11.5094 5.09929 11.3844 5.23488 11.3075 5.38985L9.81711 8.58597L6.4998 9.09928C6.21134 9.14771 5.98057 9.34141 5.88442 9.62229C5.78827 9.89347 5.86519 10.2034 6.06711 10.4068L8.49019 12.9056L7.91326 16.4407C7.84596 16.8668 8.1248 17.2639 8.54788 17.3317C8.72095 17.3608 8.89403 17.3317 9.04788 17.2445L11.9998 15.5981L14.9517 17.2445C15.3267 17.4479 15.7883 17.3123 15.9998 16.9443C16.0863 16.7893 16.1152 16.615 16.0863 16.4407L15.5094 12.9056L17.9325 10.4068C18.2306 10.1065 18.2209 9.6126 17.9229 9.31236ZM14.144 12.1114C13.9709 12.2857 13.894 12.5375 13.9325 12.7797L14.3171 15.1332L12.3748 14.0484C12.144 13.9225 11.8652 13.9225 11.6344 14.0484L9.69211 15.1332L10.0767 12.7797C10.1152 12.5375 10.0383 12.2857 9.86518 12.1114L8.21134 10.4068L10.4517 10.0581C10.7017 10.0194 10.9229 9.85473 11.0286 9.62229L11.9998 7.54965L12.9709 9.62229C13.0767 9.85473 13.2979 10.0194 13.5479 10.0581L15.7883 10.4068L14.144 12.1114Z" fill="black"/>
<path d="M13.4806 20.3245C12.9998 20.4116 12.5094 20.4504 12.019 20.4504H11.9998C11.5094 20.4504 11.019 20.4116 10.5383 20.3245L10.269 21.8547C10.846 21.9419 11.4229 21.9903 12.0094 22C12.5864 22 13.1729 21.9516 13.7402 21.845L13.4806 20.3245Z" fill="black"/>
<path d="M13.702 2L13.4424 3.53026C14.4135 3.69491 15.3462 4.0339 16.202 4.53753L16.9712 3.19128C15.9616 2.60048 14.8558 2.1937 13.702 2Z" fill="black"/>
<path d="M10.2308 2.0097C9.08657 2.21309 7.9808 2.61987 6.97119 3.21067L7.75004 4.54723C8.6058 4.0436 9.53849 3.70462 10.5096 3.53028L10.2308 2.0097Z" fill="black"/>
<path d="M18.481 17.3995C17.8463 18.1646 17.0867 18.8039 16.231 19.3075L17.0002 20.6441C18.0098 20.0533 18.904 19.2978 19.654 18.3971L18.481 17.3995Z" fill="black"/>
<path d="M21.6632 11.8983L20.4613 11.9273C20.4613 12.9249 20.2882 13.9128 19.9517 14.8426L21.394 15.3752C21.7978 14.2614 21.9997 13.0895 21.9901 11.9079L21.6632 11.8983Z" fill="black"/>
<path d="M19.6347 5.42853L18.4617 6.42611C19.0963 7.18155 19.5963 8.05322 19.9424 8.983L21.3847 8.45032C20.9809 7.3462 20.3944 6.31957 19.6347 5.42853Z" fill="black"/>
<path d="M4.32696 5.46729C3.57696 6.36801 2.99042 7.39464 2.59619 8.49875L4.0385 9.02176C4.37504 8.09198 4.86542 7.22031 5.50003 6.45518L4.32696 5.46729Z" fill="black"/>
<path d="M5.52903 17.4092L4.35596 18.4068C5.10596 19.3075 6.0098 20.063 7.01941 20.6538L7.78864 19.3075C6.92326 18.8136 6.16365 18.1743 5.52903 17.4092Z" fill="black"/>
<path d="M3.53846 11.9467H2C2 13.1186 2.20192 14.2905 2.60577 15.3849L4.04807 14.8523C3.71154 13.9225 3.53846 12.9346 3.53846 11.9467Z" fill="black"/>
</svg>
