<svg width="24" height="24" viewBox="0 0 24 24" fill="none" xmlns="http://www.w3.org/2000/svg">
<g clip-path="url(#clip0)">
<path d="M23.4561 4.44295C23.0791 4.61018 22.6915 4.75131 22.2954 4.86589C22.7643 4.33557 23.1218 3.71157 23.3401 3.02873C23.389 2.87567 23.3383 2.70814 23.2125 2.60804C23.0869 2.50786 22.9123 2.49586 22.7739 2.57784C21.9328 3.07673 21.0253 3.43526 20.0737 3.64491C19.1152 2.70829 17.8133 2.17526 16.4674 2.17526C13.6265 2.17526 11.3152 4.48646 11.3152 7.32729C11.3152 7.55103 11.3294 7.77353 11.3574 7.99294C7.83214 7.68341 4.55475 5.95069 2.30417 3.19C2.22396 3.0916 2.1004 3.03857 1.9739 3.04871C1.84732 3.05862 1.73359 3.13 1.66964 3.2397C1.21318 4.02295 0.971861 4.91877 0.971861 5.83023C0.971861 7.07165 1.41509 8.2495 2.19803 9.16987C1.95996 9.08741 1.72895 8.98437 1.50846 8.86197C1.39008 8.79608 1.24562 8.79709 1.12802 8.86452C1.01034 8.93196 0.936558 9.05598 0.933462 9.19154C0.93292 9.21438 0.93292 9.23722 0.93292 9.26037C0.93292 11.1134 1.93024 12.7817 3.45501 13.691C3.32402 13.6779 3.1931 13.6589 3.06304 13.6341C2.92895 13.6085 2.79106 13.6555 2.70064 13.7577C2.61005 13.8599 2.58009 14.0024 2.62182 14.1324C3.18621 15.8945 4.63929 17.1906 6.39594 17.5857C4.93898 18.4983 3.27284 18.9763 1.52378 18.9763C1.15883 18.9763 0.791784 18.9548 0.432558 18.9123C0.254107 18.8911 0.0834745 18.9965 0.0227003 19.1662C-0.0380739 19.3359 0.026339 19.5252 0.178158 19.6226C2.4251 21.0633 5.02322 21.8247 7.69147 21.8247C12.9369 21.8247 16.2184 19.3512 18.0474 17.2761C20.3282 14.6887 21.6362 11.2639 21.6362 7.87998C21.6362 7.73861 21.6341 7.59585 21.6297 7.45356C22.5296 6.7756 23.3043 5.95511 23.9347 5.01206C24.0305 4.86883 24.0201 4.67954 23.9092 4.5477C23.7984 4.41578 23.6138 4.37312 23.4561 4.44295Z" fill="black"/>
</g>
<defs>
<clipPath id="clip0">
<rect width="24" height="24" fill="white"/>
</clipPath>
</defs>
</svg>
