<svg width="24" height="24" viewBox="0 0 24 24" fill="none" xmlns="http://www.w3.org/2000/svg">
<path d="M12.0949 2C12.3664 2.038 12.6432 2.06514 12.9147 2.114C14.071 2.33115 15.0319 2.89031 15.8136 3.76434C16.4759 4.50265 16.8939 5.36039 17.0459 6.33756C17.2739 7.79246 16.9591 9.12793 16.0688 10.3114C15.2925 11.3429 14.2664 12.0106 13.007 12.2657C11.4761 12.5752 10.0592 12.2657 8.80512 11.3211C7.78452 10.5503 7.11135 9.52423 6.86706 8.27562C6.49791 6.34299 7.04078 4.67637 8.50111 3.33547C9.30456 2.60259 10.2654 2.20086 11.3349 2.04886C11.4815 2.02714 11.6281 2.02171 11.7746 2.00543C11.8832 2 11.9918 2 12.0949 2ZM6.6662 13.1398C5.03215 13.7532 3.84325 14.8661 3.0778 16.4404C2.9638 16.6739 2.97466 16.8747 3.1158 17.0756C3.3601 17.423 3.5881 17.7759 3.84868 18.1071C4.80414 19.3068 5.97132 20.2568 7.35022 20.9409C8.52282 21.5217 9.76057 21.8583 11.058 21.9669C11.7855 22.0266 12.5184 22.0049 13.2513 21.9072C14.185 21.7877 15.0916 21.5489 15.9493 21.1797C18.0122 20.2948 19.6083 18.8616 20.7809 16.9562C20.8732 16.8042 20.8895 16.6684 20.8135 16.5001C20.1295 15.0452 19.0546 13.9812 17.5997 13.3026C17.0568 13.0475 16.4868 12.9009 15.9005 12.7978C15.5205 12.7326 15.2327 12.9335 14.9342 13.1235C13.5987 13.9866 12.1438 14.2038 10.602 13.8509C9.90715 13.6935 9.27742 13.3786 8.69111 12.9823C8.53368 12.8738 8.33825 12.8195 8.14281 12.7326C7.64337 12.8683 7.1385 12.9606 6.6662 13.1398Z" fill="black"/>
</svg>
