<svg width="48" height="48" viewBox="0 0 48 48" fill="none" xmlns="http://www.w3.org/2000/svg">
<g clip-path="url(#clip0)">
<path d="M6.4314 48H36.8313C38.1566 48 39.2311 46.9255 39.2311 45.5999V7.99988H42.4314C43.3151 7.99988 44.0314 7.28357 44.0314 6.3999V4.00012C44.0284 1.79187 42.2391 0.00256348 40.0312 0H6.4314C5.10571 0 4.03125 1.07446 4.03125 2.40015V45.5999C4.03125 46.9255 5.10571 48 6.4314 48ZM40.0312 1.59998C41.3566 1.59998 42.4314 2.67444 42.4314 4.00012V6.3999H10.4312V4.00012C10.4282 3.13147 10.14 2.28845 9.61047 1.59998H40.0312ZM5.63123 2.40015C5.63123 1.95813 5.98938 1.59998 6.4314 1.59998C7.75671 1.59998 8.83118 2.67444 8.83118 4.00012V6.3999C8.83118 7.28357 9.54749 7.99988 10.4312 7.99988H37.6311V45.5999C37.6311 46.0419 37.2729 46.4 36.8313 46.4H6.4314C5.98938 46.4 5.63123 46.0419 5.63123 45.5999V2.40015Z" fill="#333333"/>
<path d="M10.431 19.9999H15.231C16.1146 19.9999 16.8313 19.2836 16.8313 18.3999V17.6001C16.8313 17.1581 16.4728 16.7999 16.0311 16.7999C15.5895 16.7999 15.231 17.1581 15.231 17.6001V18.3999H10.431V13.6H12.8312C13.2728 13.6 13.631 13.2418 13.631 12.8002C13.631 12.3582 13.2728 12 12.8312 12H10.431C9.54736 12 8.83105 12.7163 8.83105 13.6V18.3999C8.83105 19.2836 9.54736 19.9999 10.431 19.9999Z" fill="#333333"/>
<path d="M10.431 31.2001H15.231C16.1146 31.2001 16.8313 30.4838 16.8313 29.6001V24.8002C16.8313 23.9165 16.1146 23.1998 15.231 23.1998H10.431C9.54736 23.1998 8.83105 23.9165 8.83105 24.8002V29.6001C8.83105 30.4838 9.54736 31.2001 10.431 31.2001ZM10.431 24.8002H15.231V29.6001H10.431V24.8002Z" fill="#333333"/>
<path d="M10.431 42.3999H15.231C16.1146 42.3999 16.8313 41.6836 16.8313 40.7999V36C16.8313 35.1163 16.1146 34.4 15.231 34.4H10.431C9.54736 34.4 8.83105 35.1163 8.83105 36V40.7999C8.83105 41.6836 9.54736 42.3999 10.431 42.3999ZM10.431 36H15.231V40.7999H10.431V36Z" fill="#333333"/>
<path d="M20.0314 15.2H24.0311C24.4731 15.2 24.8313 14.8418 24.8313 14.4001C24.8313 13.9581 24.4731 13.6 24.0311 13.6H20.0314C19.5894 13.6 19.2312 13.9581 19.2312 14.4001C19.2312 14.8418 19.5894 15.2 20.0314 15.2Z" fill="#333333"/>
<path d="M27.2312 15.2H35.2314C35.6731 15.2 36.0312 14.8418 36.0312 14.4001C36.0312 13.9581 35.6731 13.6 35.2314 13.6H27.2312C26.7896 13.6 26.4314 13.9581 26.4314 14.4001C26.4314 14.8418 26.7896 15.2 27.2312 15.2Z" fill="#333333"/>
<path d="M20.0314 18.3999H28.0312C28.4729 18.3999 28.8314 18.0417 28.8314 17.6001C28.8314 17.1581 28.4729 16.7999 28.0312 16.7999H20.0314C19.5894 16.7999 19.2312 17.1581 19.2312 17.6001C19.2312 18.0417 19.5894 18.3999 20.0314 18.3999Z" fill="#333333"/>
<path d="M35.2313 16.7999H31.2312C30.7896 16.7999 30.4314 17.1581 30.4314 17.6001C30.4314 18.0417 30.7896 18.3999 31.2312 18.3999H35.2313C35.673 18.3999 36.0311 18.0417 36.0311 17.6001C36.0311 17.1581 35.673 16.7999 35.2313 16.7999Z" fill="#333333"/>
<path d="M20.0314 26.4001H24.0311C24.4731 26.4001 24.8313 26.042 24.8313 25.6C24.8313 25.1583 24.4731 24.8002 24.0311 24.8002H20.0314C19.5894 24.8002 19.2312 25.1583 19.2312 25.6C19.2312 26.042 19.5894 26.4001 20.0314 26.4001Z" fill="#333333"/>
<path d="M35.2314 24.8002H27.2312C26.7896 24.8002 26.4314 25.1583 26.4314 25.6C26.4314 26.042 26.7896 26.4001 27.2312 26.4001H35.2314C35.6731 26.4001 36.0312 26.042 36.0312 25.6C36.0312 25.1583 35.6731 24.8002 35.2314 24.8002Z" fill="#333333"/>
<path d="M20.0314 29.6001H28.0312C28.4729 29.6001 28.8314 29.2419 28.8314 28.7999C28.8314 28.3583 28.4729 28.0001 28.0312 28.0001H20.0314C19.5894 28.0001 19.2312 28.3583 19.2312 28.7999C19.2312 29.2419 19.5894 29.6001 20.0314 29.6001Z" fill="#333333"/>
<path d="M35.2313 28.0001H31.2312C30.7896 28.0001 30.4314 28.3583 30.4314 28.7999C30.4314 29.2419 30.7896 29.6001 31.2312 29.6001H35.2313C35.673 29.6001 36.0311 29.2419 36.0311 28.7999C36.0311 28.3583 35.673 28.0001 35.2313 28.0001Z" fill="#333333"/>
<path d="M20.0314 37.6H24.0311C24.4731 37.6 24.8313 37.2418 24.8313 36.8002C24.8313 36.3582 24.4731 36 24.0311 36H20.0314C19.5894 36 19.2312 36.3582 19.2312 36.8002C19.2312 37.2418 19.5894 37.6 20.0314 37.6Z" fill="#333333"/>
<path d="M35.2314 36H27.2312C26.7896 36 26.4314 36.3582 26.4314 36.8002C26.4314 37.2418 26.7896 37.6 27.2312 37.6H35.2314C35.6731 37.6 36.0312 37.2418 36.0312 36.8002C36.0312 36.3582 35.6731 36 35.2314 36Z" fill="#333333"/>
<path d="M20.0314 40.7999H28.0312C28.4729 40.7999 28.8314 40.4418 28.8314 40.0001C28.8314 39.5581 28.4729 39.2 28.0312 39.2H20.0314C19.5894 39.2 19.2312 39.5581 19.2312 40.0001C19.2312 40.4418 19.5894 40.7999 20.0314 40.7999Z" fill="#333333"/>
<path d="M35.2313 39.2H31.2312C30.7896 39.2 30.4314 39.5581 30.4314 40.0001C30.4314 40.4418 30.7896 40.7999 31.2312 40.7999H35.2313C35.673 40.7999 36.0311 40.4418 36.0311 40.0001C36.0311 39.5581 35.673 39.2 35.2313 39.2Z" fill="#333333"/>
<path d="M12.597 14.6345C12.2832 14.3313 11.7841 14.3357 11.4753 14.644C11.167 14.9528 11.1626 15.4515 11.4658 15.7657L13.0658 17.3657C13.2159 17.5155 13.4192 17.6001 13.6312 17.6001H13.6979C13.9323 17.5803 14.1461 17.4587 14.2827 17.2672L18.2825 11.6671C18.4487 11.4346 18.478 11.131 18.3594 10.871C18.2411 10.6106 17.9928 10.4333 17.7083 10.4059C17.4237 10.3784 17.1461 10.5051 16.9802 10.7377L13.5298 15.5687L12.597 14.6345Z" fill="#333333"/>
</g>
<defs>
<clipPath id="clip0">
<rect width="48" height="48" fill="white"/>
</clipPath>
</defs>
</svg>
