<svg width="48" height="48" viewBox="0 0 48 48" fill="none" xmlns="http://www.w3.org/2000/svg">
<path d="M21 21.1875H39V22.6875H21V21.1875Z" fill="#333333"/>
<path d="M21 24.1875H31.5V25.6875H21V24.1875Z" fill="#333333"/>
<path d="M21 33.1875H39V34.6875H21V33.1875Z" fill="#333333"/>
<path d="M21 36.1875H28.5V37.6875H21V36.1875Z" fill="#333333"/>
<path d="M0 0.1875V39.1875H4.5V47.9626L7.93359 46.0433L10.6179 47.5433L13.2968 46.0433L15.9756 47.5433L18.6533 46.0433L21.3322 47.5433L24.0121 46.0433L26.6909 47.5433L29.3687 46.0433L32.0453 47.5433L34.7234 46.0433L37.3989 47.5433L40.0763 46.0433L43.5 47.9685V39.1875H48V0.1875H0ZM4.5 37.6875H1.5V7.6875H4.5V37.6875ZM42 45.4065L40.0763 44.328L37.3989 45.828L34.7234 44.328L32.0453 45.828L29.3687 44.328L26.6909 45.828L24.0121 44.328L21.3322 45.828L18.6533 44.328L15.9756 45.828L13.2968 44.328L10.6168 45.828L7.93359 44.328L6 45.4124V7.6875H42V45.4065ZM46.5 37.6875H43.5V7.6875H46.5V37.6875ZM46.5 6.1875H1.5V1.6875H46.5V6.1875Z" fill="#333333"/>
<path d="M15 3.1875H45V4.6875H15V3.1875Z" fill="#333333"/>
<path d="M3 3.1875H4.5V4.6875H3V3.1875Z" fill="#333333"/>
<path d="M6 3.1875H7.5V4.6875H6V3.1875Z" fill="#333333"/>
<path d="M9 3.1875H10.5V4.6875H9V3.1875Z" fill="#333333"/>
<path d="M37.5 10.6875H10.5V16.6875H37.5V10.6875ZM36 15.1875H12V12.1875H36V15.1875Z" fill="#333333"/>
<path d="M14.25 28.6875C16.7351 28.6875 18.75 26.6726 18.75 24.1875C18.75 21.7024 16.7351 19.6875 14.25 19.6875C11.7649 19.6875 9.75 21.7024 9.75 24.1875C9.75256 26.6719 11.7656 28.6849 14.25 28.6875ZM14.25 21.1875C15.9067 21.1875 17.25 22.5308 17.25 24.1875C17.25 25.8442 15.9067 27.1875 14.25 27.1875C12.5933 27.1875 11.25 25.8442 11.25 24.1875C11.25 22.5308 12.5933 21.1875 14.25 21.1875Z" fill="#333333"/>
<path d="M14.25 40.6875C16.7351 40.6875 18.75 38.6726 18.75 36.1875C18.75 33.7024 16.7351 31.6875 14.25 31.6875C11.7649 31.6875 9.75 33.7024 9.75 36.1875C9.75256 38.6719 11.7656 40.6849 14.25 40.6875ZM14.25 33.1875C15.9067 33.1875 17.25 34.5308 17.25 36.1875C17.25 37.8442 15.9067 39.1875 14.25 39.1875C12.5933 39.1875 11.25 37.8442 11.25 36.1875C11.25 34.5308 12.5933 33.1875 14.25 33.1875Z" fill="#333333"/>
</svg>
