<svg width="48" height="48" viewBox="0 0 48 48" fill="none" xmlns="http://www.w3.org/2000/svg">
<path d="M35.806 45.2804L37.6321 43.4543L39.4583 45.2804L41.2844 47.1066L43.1105 45.2804V14.9528C43.1105 13.2052 41.6968 11.7816 39.9393 11.7816H14.4028C16.1504 11.7816 17.574 13.1953 17.574 14.9528V45.2706L19.4002 47.0968L21.2263 45.2706L23.0525 43.4445L24.8786 45.2706L26.7047 47.0968L28.5309 45.2706L30.357 43.4445L32.1832 45.2706L34.0093 47.0968L35.806 45.2804Z" fill="#05CC5C"/>
<path d="M22.11 19.5378H38.722C39.2129 19.5378 39.6154 19.1352 39.6154 18.6443C39.6154 18.1534 39.2129 17.7509 38.722 17.7509H22.11C21.6191 17.7509 21.2166 18.1534 21.2166 18.6443C21.2166 19.1352 21.6191 19.5378 22.11 19.5378Z" fill="#2C2F33"/>
<path d="M22.11 24.2799H34.1763C34.6672 24.2799 35.0697 23.8773 35.0697 23.3864C35.0697 22.8955 34.6672 22.493 34.1763 22.493H22.11C21.6191 22.493 21.2166 22.8955 21.2166 23.3864C21.2166 23.8871 21.6191 24.2799 22.11 24.2799Z" fill="#2C2F33"/>
<path d="M22.11 28.6291H38.722C39.2129 28.6291 39.6154 28.2266 39.6154 27.7357C39.6154 27.2448 39.2129 26.8423 38.722 26.8423H22.11C21.6191 26.8423 21.2166 27.2448 21.2166 27.7357C21.2166 28.2364 21.6191 28.6291 22.11 28.6291Z" fill="#2C2F33"/>
<path d="M23.6907 31.8003H22.11C21.6191 31.8003 21.2166 32.2029 21.2166 32.6938C21.2166 33.1847 21.6191 33.5872 22.11 33.5872H23.6907C24.1816 33.5872 24.5841 33.1847 24.5841 32.6938C24.5841 32.2029 24.1816 31.8003 23.6907 31.8003Z" fill="#2C2F33"/>
<path d="M23.6907 36.1498H22.11C21.6191 36.1498 21.2166 36.5523 21.2166 37.0432C21.2166 37.5341 21.6191 37.9366 22.11 37.9366H23.6907C24.1816 37.9366 24.5841 37.5341 24.5841 37.0432C24.5743 36.5425 24.1816 36.1498 23.6907 36.1498Z" fill="#2C2F33"/>
<path d="M38.7217 31.8003H27.2445C26.7536 31.8003 26.3511 32.2029 26.3511 32.6938C26.3511 33.1847 26.7536 33.5872 27.2445 33.5872H38.7217C39.2126 33.5872 39.6151 33.1847 39.6151 32.6938C39.6151 32.2029 39.2126 31.8003 38.7217 31.8003Z" fill="#2C2F33"/>
<path d="M35.0596 37.0334C35.0596 36.5425 34.6571 36.1399 34.1662 36.1399H27.2445C26.7536 36.1399 26.3511 36.5425 26.3511 37.0334C26.3511 37.5243 26.7536 37.9268 27.2445 37.9268H34.1662C34.6571 37.9268 35.0596 37.5243 35.0596 37.0334Z" fill="#2C2F33"/>
<path d="M33.3515 47.7349C33.6952 48.0785 34.2646 48.0785 34.6082 47.7349L37.6322 44.711L40.6561 47.7349C40.8328 47.9116 41.0586 48 41.2845 48C41.5103 48 41.7361 47.9116 41.9128 47.7349L43.7389 45.9088C43.9058 45.7419 44.004 45.5161 44.004 45.2804V14.9528C44.004 12.7143 42.1877 10.8979 39.9492 10.8979H33.1257V0.893434C33.1257 0.402536 32.7232 0 32.2323 0H4.88928C4.39839 0 3.99585 0.402536 3.99585 0.893434V31.2113C3.99585 33.4498 5.81217 35.2661 8.05067 35.2661H13.1953C13.6862 35.2661 14.0887 34.8636 14.0887 34.3727C14.0887 33.8818 13.6862 33.4792 13.1953 33.4792H11.4084C11.8502 32.8313 12.1153 32.0458 12.1153 31.2015V14.9528C12.1153 13.6961 13.1364 12.675 14.3931 12.675C15.6498 12.675 16.6708 13.6961 16.6708 14.9528V45.2706C16.6708 45.3295 16.6807 45.3884 16.6905 45.4473C16.7003 45.4866 16.7101 45.5161 16.7199 45.5553C16.7297 45.575 16.7297 45.5946 16.7396 45.6142C16.7592 45.6535 16.7788 45.6928 16.7985 45.7222C16.8083 45.7321 16.8083 45.7517 16.8181 45.7615C16.8476 45.8106 16.8868 45.8597 16.9261 45.899L18.7522 47.7251C19.0959 48.0687 19.6653 48.0687 20.0089 47.7251L23.0329 44.7012L26.0568 47.7251C26.4004 48.0687 26.9699 48.0687 27.3135 47.7251L30.3374 44.7012L33.3515 47.7349ZM10.3383 14.9528V31.2113C10.3383 32.468 9.31718 33.4891 8.06048 33.4891C6.80379 33.4891 5.78272 32.468 5.78272 31.2113V1.77705H31.3487V10.8979H14.3931C12.1546 10.8979 10.3383 12.7143 10.3383 14.9528ZM26.6852 45.84L23.6612 42.8161C23.4845 42.6394 23.2587 42.551 23.0329 42.551C22.8071 42.551 22.5812 42.6394 22.4045 42.8161L19.3806 45.84L18.4479 44.9073V14.9528C18.4479 14.8251 18.4381 14.6975 18.4282 14.5797C18.4282 14.5404 18.4184 14.5109 18.4184 14.4717C18.4086 14.3833 18.3988 14.2949 18.3792 14.2066C18.3693 14.1673 18.3693 14.1379 18.3595 14.0986C18.3399 13.9906 18.3104 13.8728 18.2712 13.7648C18.2712 13.755 18.2712 13.755 18.2613 13.7451C18.2221 13.6273 18.1828 13.5193 18.1337 13.4113C18.1239 13.3819 18.1043 13.3524 18.0944 13.3132C18.0552 13.2346 18.0257 13.1561 17.9766 13.0775C17.957 13.0481 17.9472 13.0186 17.9275 12.9793C17.8784 12.891 17.8195 12.7928 17.7606 12.7044C17.7508 12.6946 17.7508 12.6848 17.741 12.675C17.741 12.675 17.741 12.675 17.741 12.6652H39.9198C41.1765 12.6652 42.1975 13.6862 42.1975 14.9429V44.9073L41.2648 45.84L38.2409 42.8161C37.8973 42.4725 37.3278 42.4725 36.9842 42.8161L33.9603 45.84L30.9658 42.8259C30.6222 42.4823 30.0527 42.4823 29.7091 42.8259L26.6852 45.84Z" fill="#2C2F33"/>
</svg>
