<svg width="48" height="48" viewBox="0 0 48 48" fill="none" xmlns="http://www.w3.org/2000/svg">
<path d="M26.1031 21.8262V18.9027C26.1031 18.5145 25.7882 18.1996 25.4 18.1996H12.3486C11.9601 18.1996 11.6455 18.5145 11.6455 18.9027V21.8262C11.6455 22.2144 11.9601 22.5293 12.3486 22.5293H25.4C25.7882 22.5293 26.1031 22.2147 26.1031 21.8262ZM24.6969 21.123H13.0518V19.6058H24.6969V21.123Z" fill="black"/>
<path d="M26.7124 40.7161H35.786C36.1742 40.7161 36.4891 40.4011 36.4891 40.0129V37.0891C36.4891 36.7009 36.1742 36.386 35.786 36.386H26.7124C26.3239 36.386 26.0093 36.7009 26.0093 37.0891V40.0129C26.0093 40.4011 26.3239 40.7161 26.7124 40.7161ZM27.4155 37.7922H35.0829V39.3098H27.4155V37.7922Z" fill="black"/>
<path d="M35.7861 13.9402H12.3486C11.9601 13.9402 11.6455 14.2551 11.6455 14.6433C11.6455 15.0319 11.9601 15.3464 12.3486 15.3464H35.7861C36.1743 15.3464 36.4893 15.0319 36.4893 14.6433C36.4893 14.2551 36.1743 13.9402 35.7861 13.9402Z" fill="black"/>
<path d="M20.8531 25.6121C20.8531 25.2239 20.5382 24.9089 20.15 24.9089H12.3486C11.9601 24.9089 11.6455 25.2239 11.6455 25.6121C11.6455 26.0006 11.9601 26.3152 12.3486 26.3152H20.15C20.5382 26.3152 20.8531 26.0006 20.8531 25.6121Z" fill="black"/>
<path d="M18.8741 28.4561H12.3486C11.9601 28.4561 11.6455 28.7706 11.6455 29.1592C11.6455 29.5474 11.9601 29.8623 12.3486 29.8623H18.8741C19.2627 29.8623 19.5773 29.5474 19.5773 29.1592C19.5773 28.7706 19.2627 28.4561 18.8741 28.4561Z" fill="black"/>
<path d="M18.8741 32.0028H12.3486C11.9601 32.0028 11.6455 32.3177 11.6455 32.7059C11.6455 33.0945 11.9601 33.4091 12.3486 33.4091H18.8741C19.2627 33.4091 19.5773 33.0945 19.5773 32.7059C19.5773 32.3177 19.2627 32.0028 18.8741 32.0028Z" fill="black"/>
<path d="M35.7861 32.0028H32.5232C32.1346 32.0028 31.8201 32.3177 31.8201 32.7059C31.8201 33.0945 32.1346 33.4091 32.5232 33.4091H35.7861C36.1743 33.4091 36.4893 33.0945 36.4893 32.7059C36.4893 32.3177 36.1743 32.0028 35.7861 32.0028Z" fill="black"/>
<path d="M35.7861 28.4561H32.5232C32.1346 28.4561 31.8201 28.771 31.8201 29.1592C31.8201 29.5474 32.1346 29.8623 32.5232 29.8623H35.7861C36.1743 29.8623 36.4893 29.5474 36.4893 29.1592C36.4893 28.771 36.1743 28.4561 35.7861 28.4561Z" fill="black"/>
<path d="M35.7861 24.9089H32.5232C32.1346 24.9089 31.8201 25.2239 31.8201 25.6121C31.8201 26.0006 32.1346 26.3152 32.5232 26.3152H35.7861C36.1743 26.3152 36.4893 26.0006 36.4893 25.6121C36.4893 25.2239 36.1743 24.9089 35.7861 24.9089Z" fill="black"/>
<path d="M38.6188 16.5406C39.007 16.5406 39.3219 16.2257 39.3219 15.8375V0.703125C39.3219 0.314941 39.007 0 38.6188 0C36.39 0 36.2032 2.8125 34.9801 2.8125C33.7577 2.8125 33.5731 0 31.3418 0C29.1138 0 28.9263 2.8125 27.7042 2.8125C26.4778 2.8125 26.3013 0 24.0659 0C21.8379 0 21.6508 2.8125 20.4283 2.8125C19.2078 2.8125 19.0199 0 16.7908 0C14.5624 0 14.3756 2.8125 13.1532 2.8125C11.9268 2.8125 11.7513 0 9.51562 0C9.12708 0 8.8125 0.314941 8.8125 0.703125V47.2969C8.8125 47.6851 9.12708 48 9.51562 48C11.744 48 11.9312 45.1875 13.1532 45.1875C14.3793 45.1875 14.5554 48 16.7908 48C19.0188 48 19.2059 45.1875 20.4283 45.1875C21.6548 45.1875 21.8309 48 24.0659 48C26.2943 48 26.4818 45.1875 27.7042 45.1875C28.9307 45.1875 29.1064 48 31.3418 48C33.5706 48 33.7573 45.1875 34.9801 45.1875C36.2029 45.1875 36.3875 48 38.6188 48C39.007 48 39.3219 47.6851 39.3219 47.2969V18.4625C39.3219 18.074 39.007 17.7594 38.6188 17.7594C38.2302 17.7594 37.9156 18.074 37.9156 18.4625V46.2389C37.2136 45.4629 36.702 43.7812 34.9801 43.7812C32.7517 43.7812 32.5649 46.5938 31.3418 46.5938C30.1212 46.5938 29.9333 43.7812 27.7042 43.7812C25.4758 43.7812 25.2883 46.5938 24.0659 46.5938C22.8398 46.5938 22.6637 43.7812 20.4283 43.7812C18.2 43.7812 18.0128 46.5938 16.7908 46.5938C15.564 46.5938 15.3885 43.7812 13.1532 43.7812C11.4324 43.7812 10.9211 45.4618 10.2188 46.2385V1.76147C10.9197 2.53674 11.432 4.21875 13.1536 4.21875C15.3816 4.21875 15.5687 1.40625 16.7908 1.40625C18.0176 1.40625 18.193 4.21875 20.4283 4.21875C22.6567 4.21875 22.8439 1.40625 24.0663 1.40625C25.2927 1.40625 25.4689 4.21875 27.7042 4.21875C29.9326 4.21875 30.1194 1.40625 31.3422 1.40625C32.5649 1.40625 32.7495 4.21875 34.9805 4.21875C36.702 4.21875 37.214 2.53711 37.9156 1.76111V15.8375C37.9156 16.2257 38.2302 16.5406 38.6188 16.5406Z" fill="black"/>
<path d="M36.4893 7.98706C36.4893 7.59888 36.1743 7.28394 35.7861 7.28394H18.8741C18.4856 7.28394 18.171 7.59888 18.171 7.98706C18.171 8.37561 18.4856 8.69019 18.8741 8.69019H35.083V10.2078H13.0518V8.69019H16.2491C16.6377 8.69019 16.9523 8.37561 16.9523 7.98706C16.9523 7.59888 16.6377 7.28394 16.2491 7.28394H12.3486C11.9601 7.28394 11.6455 7.59888 11.6455 7.98706V10.9109C11.6455 11.2991 11.9601 11.614 12.3486 11.614H35.7861C36.1743 11.614 36.4893 11.2991 36.4893 10.9109V7.98706Z" fill="black"/>
</svg>
