<svg width="48" height="48" viewBox="0 0 48 48" fill="none" xmlns="http://www.w3.org/2000/svg">
<path d="M32.8773 46.5909H6.1991V11.8355C6.1991 11.4463 5.88363 11.1309 5.49457 11.1309C5.10551 11.1309 4.79004 11.4463 4.79004 11.8355V46.8258C4.79004 47.4733 5.31682 48 5.96426 48H32.8773C33.2663 48 33.5817 47.6846 33.5818 47.2955C33.5818 46.9063 33.2663 46.5909 32.8773 46.5909Z" fill="black"/>
<path d="M43.0111 6.37041L37.0227 0.213375C36.89 0.0769687 36.7079 0 36.5177 0H5.96426C5.31682 0 4.79013 0.526875 4.79004 1.17431V6.66928C4.79004 7.05844 5.10551 7.37381 5.49457 7.37381C5.88363 7.37381 6.1991 7.05844 6.1991 6.66928V1.40916H36.2201L41.8016 7.14778V46.5909H37.8088C37.4197 46.5909 37.1043 46.9063 37.1043 47.2955C37.1043 47.6846 37.4197 48 37.8088 48H42.0364C42.6839 48 43.2106 47.4733 43.2106 46.8259V6.86156C43.2106 6.67809 43.139 6.50194 43.0111 6.37041Z" fill="black"/>
<path d="M43.0108 6.37042L37.0225 0.213389C36.8225 0.00788904 36.518 -0.0560485 36.2524 0.0518578C35.9868 0.159764 35.813 0.417858 35.813 0.704639V6.86158C35.813 7.25073 36.1285 7.56611 36.5175 7.56611H42.5059C42.7891 7.56611 43.0448 7.39661 43.1548 7.1357C43.265 6.87489 43.2083 6.57329 43.0108 6.37042ZM37.2221 6.15704V2.4393L40.8379 6.15704H37.2221Z" fill="black"/>
<path d="M27.2607 3.74054H10.2858C9.63826 3.74054 9.11157 4.26732 9.11157 4.91476V8.80848C9.11157 9.45601 9.63835 9.9827 10.2858 9.9827H27.2607C27.9082 9.9827 28.4349 9.45591 28.4349 8.80857V4.91466C28.4349 4.26713 27.9082 3.74054 27.2607 3.74054ZM27.0259 8.57354H10.5206V5.14951H27.0259V8.57354Z" fill="black"/>
<path d="M16.1483 13.6698C15.8387 13.4346 15.3966 13.4946 15.1611 13.8044L12.0484 17.9002L11.1135 17.0821C10.8207 16.8258 10.3757 16.8555 10.1194 17.1484C9.86316 17.4413 9.89287 17.8863 10.1857 18.1425L11.6886 19.4575C11.8176 19.5703 11.9827 19.6318 12.1524 19.6318C12.1761 19.6318 12.1998 19.6306 12.2236 19.6284C12.4178 19.6086 12.5953 19.5092 12.7134 19.3537L16.283 14.657C16.5184 14.3472 16.4581 13.9052 16.1483 13.6698Z" fill="black"/>
<path d="M37.3507 13.526H19.6064C19.2173 13.526 18.9019 13.8413 18.9019 14.2305C18.9019 14.6197 19.2173 14.935 19.6064 14.935H37.3507C37.7398 14.935 38.0553 14.6197 38.0553 14.2305C38.0553 13.8413 37.7398 13.526 37.3507 13.526Z" fill="black"/>
<path d="M31.1269 15.8743H19.6064C19.2173 15.8743 18.9019 16.1897 18.9019 16.5788C18.9019 16.968 19.2173 17.2834 19.6064 17.2834H31.1269C31.5159 17.2834 31.8314 16.968 31.8314 16.5788C31.8314 16.1897 31.5159 15.8743 31.1269 15.8743Z" fill="black"/>
<path d="M33.757 18.2227H19.6064C19.2173 18.2227 18.9019 18.5381 18.9019 18.9273C18.9019 19.3164 19.2173 19.6318 19.6064 19.6318H33.757C34.1461 19.6318 34.4615 19.3164 34.4615 18.9273C34.4615 18.5381 34.1461 18.2227 33.757 18.2227Z" fill="black"/>
<path d="M16.1483 23.2513C15.8387 23.016 15.3966 23.0761 15.1611 23.3859L12.0484 27.4817L11.1135 26.6636C10.8207 26.4074 10.3757 26.4371 10.1194 26.7299C9.86316 27.0228 9.89287 27.4678 10.1857 27.724L11.6886 29.0391C11.8176 29.1518 11.9827 29.2133 12.1524 29.2133C12.1761 29.2133 12.1998 29.2121 12.2236 29.2099C12.4178 29.1901 12.5953 29.0907 12.7134 28.9352L16.283 24.2385C16.5184 23.9287 16.4581 23.4869 16.1483 23.2513Z" fill="black"/>
<path d="M37.3507 23.1076H19.6064C19.2173 23.1076 18.9019 23.423 18.9019 23.8121C18.9019 24.2013 19.2173 24.5167 19.6064 24.5167H37.3507C37.7398 24.5167 38.0553 24.2013 38.0553 23.8121C38.0553 23.423 37.7398 23.1076 37.3507 23.1076Z" fill="black"/>
<path d="M31.1269 25.4559H19.6064C19.2173 25.4559 18.9019 25.7713 18.9019 26.1605C18.9019 26.5496 19.2173 26.865 19.6064 26.865H31.1269C31.5159 26.865 31.8314 26.5496 31.8314 26.1605C31.8314 25.7713 31.5159 25.4559 31.1269 25.4559Z" fill="black"/>
<path d="M33.757 27.8043H19.6064C19.2173 27.8043 18.9019 28.1196 18.9019 28.5088C18.9019 28.898 19.2173 29.2133 19.6064 29.2133H33.757C34.1461 29.2133 34.4615 28.898 34.4615 28.5088C34.4615 28.1196 34.1461 27.8043 33.757 27.8043Z" fill="black"/>
<path d="M37.3507 32.6892H19.6064C19.2173 32.6892 18.9019 33.0046 18.9019 33.3938C18.9019 33.7829 19.2173 34.0983 19.6064 34.0983H37.3507C37.7398 34.0983 38.0552 33.7829 38.0553 33.3938C38.0553 33.0046 37.7398 32.6892 37.3507 32.6892Z" fill="black"/>
<path d="M31.1269 35.0376H19.6064C19.2173 35.0376 18.9019 35.3529 18.9019 35.7421C18.9019 36.1313 19.2173 36.4466 19.6064 36.4466H31.1269C31.5159 36.4466 31.8314 36.1313 31.8314 35.7421C31.8314 35.3529 31.5159 35.0376 31.1269 35.0376Z" fill="black"/>
<path d="M33.757 37.3859H19.6064C19.2173 37.3859 18.9019 37.7013 18.9019 38.0904C18.9019 38.4796 19.2173 38.795 19.6064 38.795H33.757C34.1461 38.795 34.4615 38.4796 34.4615 38.0904C34.4615 37.7013 34.1461 37.3859 33.757 37.3859Z" fill="black"/>
<path d="M14.8762 32.6892H11.1188C10.4713 32.6892 9.94458 33.216 9.94458 33.8634V37.6208C9.94458 38.2683 10.4714 38.795 11.1188 38.795H14.8762C15.5237 38.795 16.0504 38.2683 16.0504 37.6208V33.8634C16.0504 33.2159 15.5236 32.6892 14.8762 32.6892ZM14.6414 37.386H11.3537V34.0983H14.6414V37.386Z" fill="black"/>
</svg>
