<svg width="48" height="48" viewBox="0 0 48 48" fill="none" xmlns="http://www.w3.org/2000/svg">
<g clip-path="url(#clip0)">
<path d="M45.0006 23.0625H38.0631V0.937524C38.0631 0.562524 37.8381 0.215649 37.4819 0.0750244C37.135 -0.0656006 36.7319 0.00939941 36.46 0.281274L33.8069 2.9344L31.1538 0.271899C30.7788 -0.0937256 30.1881 -0.0937256 29.8225 0.271899L27.1694 2.92502L24.5163 0.271899C24.1506 -0.0937256 23.56 -0.0937256 23.1944 0.271899L20.5319 2.9344L17.8788 0.271899C17.5131 -0.0937256 16.9225 -0.0937256 16.5569 0.271899L13.9038 2.92502L11.2413 0.271899C10.8756 -0.0937256 10.2756 -0.0937256 9.91001 0.271899L7.25689 2.9344L4.60376 0.271899C4.23814 -0.0937256 3.64751 -0.0937256 3.28189 0.271899C3.08501 0.459399 2.99126 0.712524 3.00064 0.965649V43.125C3.00064 45.8156 5.18501 48 7.87564 48H41.0631C43.7538 48 45.9381 45.8156 45.9381 43.125V24C45.9381 23.4844 45.5163 23.0625 45.0006 23.0625ZM7.87564 46.125C6.22564 46.125 4.87564 44.775 4.87564 43.125V3.20627L6.59126 4.9219C6.95689 5.28752 7.54751 5.28752 7.91314 4.9219L10.5663 2.26877L13.2194 4.9219C13.585 5.28752 14.1756 5.28752 14.5413 4.9219L17.1944 2.26877L19.8475 4.9219C20.2131 5.28752 20.8038 5.28752 21.1694 4.9219L23.8225 2.26877L26.4756 4.9219C26.8413 5.28752 27.4319 5.28752 27.7975 4.9219L30.4506 2.26877L33.1038 4.9219C33.4694 5.28752 34.06 5.28752 34.4256 4.9219L36.1881 3.1969V24C36.1881 24.0094 36.1881 24.0188 36.1881 24.0281V43.125C36.1881 44.2594 36.5725 45.3 37.2288 46.125H7.87564ZM44.0631 43.125C44.0631 44.775 42.7131 46.125 41.0631 46.125C39.4131 46.125 38.0631 44.775 38.0631 43.125V24.9375H44.0631V43.125Z" fill="#333333"/>
<path d="M29.9536 14.8969H28.1255C27.6099 14.8969 27.188 15.3187 27.188 15.8344C27.188 16.35 27.6099 16.7719 28.1255 16.7719H29.9536C30.4692 16.7719 30.8911 16.35 30.8911 15.8344C30.8911 15.3187 30.4692 14.8969 29.9536 14.8969Z" fill="#333333"/>
<path d="M12.938 14.8969H11.1099C10.5942 14.8969 10.1724 15.3187 10.1724 15.8344C10.1724 16.35 10.5942 16.7719 11.1099 16.7719H12.938C13.4536 16.7719 13.8755 16.35 13.8755 15.8344C13.8755 15.3187 13.4536 14.8969 12.938 14.8969Z" fill="#333333"/>
<path d="M30.4223 25.3125H15.5723C15.0566 25.3125 14.6348 25.7344 14.6348 26.25C14.6348 26.7656 15.0566 27.1875 15.5723 27.1875H30.4223C30.9379 27.1875 31.3598 26.7656 31.3598 26.25C31.3598 25.7344 30.9379 25.3125 30.4223 25.3125Z" fill="#333333"/>
<path d="M11.2975 25.5844C11.1193 25.4062 10.885 25.3125 10.6318 25.3125C10.3787 25.3125 10.1443 25.4156 9.96621 25.5844C9.78809 25.7531 9.69434 25.9969 9.69434 26.25C9.69434 26.5031 9.79746 26.7375 9.96621 26.9156C10.1443 27.0938 10.3787 27.1875 10.6318 27.1875C10.885 27.1875 11.1193 27.0844 11.2975 26.9156C11.4756 26.7469 11.5693 26.5031 11.5693 26.25C11.5693 25.9969 11.4756 25.7625 11.2975 25.5844Z" fill="#333333"/>
<path d="M30.4223 31.5H15.5723C15.0566 31.5 14.6348 31.9219 14.6348 32.4375C14.6348 32.9531 15.0566 33.375 15.5723 33.375H30.4223C30.9379 33.375 31.3598 32.9531 31.3598 32.4375C31.3598 31.9219 30.9379 31.5 30.4223 31.5Z" fill="#333333"/>
<path d="M11.2975 31.7719C11.1193 31.5937 10.885 31.5 10.6318 31.5C10.3787 31.5 10.1443 31.6031 9.96621 31.7719C9.78809 31.9406 9.69434 32.1844 9.69434 32.4375C9.69434 32.6906 9.79746 32.925 9.96621 33.1031C10.1443 33.2813 10.3787 33.375 10.6318 33.375C10.885 33.375 11.1193 33.2719 11.2975 33.1031C11.4756 32.9344 11.5693 32.6906 11.5693 32.4375C11.5693 32.1844 11.4756 31.95 11.2975 31.7719Z" fill="#333333"/>
<path d="M30.4223 37.6875H15.5723C15.0566 37.6875 14.6348 38.1094 14.6348 38.625C14.6348 39.1406 15.0566 39.5625 15.5723 39.5625H30.4223C30.9379 39.5625 31.3598 39.1406 31.3598 38.625C31.3598 38.1094 30.9379 37.6875 30.4223 37.6875Z" fill="#333333"/>
<path d="M11.2975 37.9594C11.1193 37.7812 10.885 37.6875 10.6318 37.6875C10.3787 37.6875 10.1443 37.7906 9.96621 37.9594C9.78809 38.1281 9.69434 38.3719 9.69434 38.625C9.69434 38.8781 9.79746 39.1125 9.96621 39.2906C10.1443 39.4688 10.3787 39.5625 10.6318 39.5625C10.885 39.5625 11.1193 39.4594 11.2975 39.2906C11.4756 39.1219 11.5693 38.8781 11.5693 38.625C11.5693 38.3719 11.4756 38.1375 11.2975 37.9594Z" fill="#333333"/>
<path d="M17.7193 17.4093C17.2225 17.4093 16.8193 17.8125 16.8193 18.3093C16.8193 18.8062 17.2225 19.2093 17.7193 19.2093H18.7506V20.2406C18.7506 20.7375 19.1537 21.1406 19.6506 21.1406C20.1475 21.1406 20.5506 20.7375 20.5506 20.2406V19.2093H21.5818C22.0787 19.2093 22.4818 18.8062 22.4818 18.3093C22.4818 17.8125 22.0787 17.4093 21.5818 17.4093H20.5506V16.3125H21.5818C23.1287 16.3125 24.4225 15.0562 24.4225 13.4718C24.4225 11.9062 23.1475 10.6312 21.5818 10.6312H19.6506C19.1537 10.6312 18.7506 11.0344 18.7506 11.5312V14.4937H17.7193C17.2225 14.4937 16.8193 14.8968 16.8193 15.3937C16.8193 15.8906 17.2225 16.2937 17.7193 16.2937H18.7506V17.3906L17.7193 17.4093ZM20.56 12.4406H21.5912C22.1631 12.4406 22.6225 12.9 22.6225 13.4718C22.6225 14.0437 22.1631 14.5031 21.5912 14.5031H20.56V12.4406Z" fill="#333333"/>
</g>
<defs>
<clipPath id="clip0">
<rect width="48" height="48" fill="white"/>
</clipPath>
</defs>
</svg>
