<svg width="115" height="39" viewBox="0 0 115 39" fill="none" xmlns="http://www.w3.org/2000/svg">
<path d="M14.4576 0L10.8432 1.64265L7.2288 0L3.6144 1.64265L0 0L0 10.2308L7.66216 10.2308V12.4231L0 12.4231L0 14.6154L10.2162 14.6154L10.2162 16.8077H0L0 19H4.37838L4.37838 21.1923H0L0 23.3846H8.75676V25.5769H0L0 29.1944C0 33.9385 2.2701 37.781 5.07284 37.781H16.5882C15.2693 35.5914 14.4576 34.2073 14.4576 30.837L14.4576 0Z" fill="#05CC5C"/>
<path d="M28.8584 9.94237H24.1846C19.7664 9.94237 16.1846 13.5241 16.1846 17.9424L16.1846 32.8098C16.1846 35.5564 18.4131 37.781 21.1645 37.781C23.9159 37.781 26.1444 35.5564 26.1444 32.8098L26.1444 15.9078C26.1444 13.534 27.2026 11.3964 28.8584 9.94237Z" fill="#0FA65D"/>
<path d="M43.1085 22.6686C44.7559 21.8473 45.9092 19.4928 45.9092 17.3574C45.9092 12.7579 42.8888 10.1297 38.1661 10.1297H33.2786C30.549 10.1297 28.3363 12.336 28.3363 15.0576V33.6744C28.3667 35.7633 28.0227 36.6746 26.6888 37.781H38.6054C44.0969 37.781 47.282 34.8242 47.282 29.6772C47.3369 26.4467 45.7444 23.8185 43.1085 22.6686ZM32.6746 16.4265C32.6746 15.2169 33.658 14.2363 34.8712 14.2363H37.7268C40.2529 14.2363 41.5159 15.3862 41.5159 17.6311C41.5159 19.8761 40.2529 21.0259 37.7268 21.0259H32.6746V16.4265ZM38.0563 33.6744H32.7295V25.1326H38.0563C41.2963 25.1326 42.9437 26.5562 42.9437 29.4035C42.8888 32.2507 41.2963 33.6744 38.0563 33.6744ZM48.8746 37.781H52.9932V17.9049H48.8746V37.781ZM48.9295 10.294C47.8312 11.3891 47.8312 13.196 48.8746 14.2911C49.9729 15.3314 51.8949 15.3314 52.9383 14.2911C54.0366 13.196 54.0366 11.3891 52.9383 10.294C51.84 9.14411 50.0278 9.14411 48.9295 10.294ZM55.08 37.781H59.1986V9.85592H55.08V37.781ZM61.3953 37.781H65.5139V9.85592H61.3953V37.781ZM78.419 27.487C77.3207 26.7205 76.7166 26.5562 75.3437 26.0087C73.6414 25.3516 72.9824 25.0778 72.3234 24.366C71.9939 24.0375 71.8292 23.5994 71.8292 23.1614C71.8292 21.902 72.7078 21.1902 73.8061 21.1902C75.179 21.1902 76.3322 21.7925 77.2658 22.9971L79.9017 20.6974C78.6386 18.781 76.442 17.5216 74.0258 17.5216C72.2685 17.5216 70.7858 18.0692 69.6325 19.1643C68.4793 20.2046 67.8753 21.5735 67.8753 23.1614C67.8753 25.6254 69.3031 27.4323 72.1586 28.5821C72.8176 28.8559 74.2454 29.3487 74.8495 29.6225C75.179 29.732 75.5085 29.951 75.8929 30.17C76.6617 30.6081 76.9363 31.1009 76.9363 31.7579C76.9363 33.5101 76.0027 34.3862 74.2454 34.3862C72.3783 34.3862 70.9505 33.1816 69.8522 30.7723L66.3925 32.6888C67.6007 35.5908 70.2915 38 74.0807 38C76.1675 38 77.8149 37.3977 79.078 36.1931C80.341 34.9885 81 33.4553 81 31.7032C80.7803 29.5677 80.0115 28.4179 78.419 27.487Z" fill="#315658"/>
<path d="M88.378 36.038C87.874 36.542 87.874 37.406 88.378 37.928C88.9 38.432 89.764 38.432 90.268 37.928C90.79 37.406 90.79 36.542 90.268 36.038C89.764 35.516 88.9 35.516 88.378 36.038Z" fill="#D0D0D0"/>
<path d="M93.7485 38.216H95.6205V34.778C95.6205 32.186 96.5385 30.656 97.7445 30.656C98.5545 30.656 99.0765 31.178 99.0765 32.132V38.216H100.948V34.58C100.948 32.186 101.902 30.656 103.072 30.656C103.882 30.656 104.404 31.178 104.404 32.132V38.216H106.276V31.718C106.276 30.08 105.322 29 103.684 29C102.514 29 101.488 29.666 100.858 30.872C100.588 29.738 99.5805 29 98.3565 29C97.2585 29 96.3585 29.558 95.6205 30.692V29.144H93.7485V38.216Z" fill="#D0D0D0"/>
<path d="M111.494 29C110.684 29 110.018 29.252 109.497 29.756C108.975 30.242 108.705 30.854 108.705 31.574C108.705 32.69 109.352 33.518 110.648 34.058C110.936 34.184 111.602 34.418 111.872 34.544C112.016 34.598 112.178 34.688 112.34 34.796C112.682 34.994 112.809 35.21 112.809 35.516C112.809 36.308 112.394 36.704 111.584 36.704C110.738 36.704 110.073 36.164 109.587 35.066L108.002 35.93C108.56 37.244 109.784 38.36 111.512 38.36C112.466 38.36 113.222 38.09 113.799 37.532C114.375 36.974 114.663 36.29 114.663 35.48C114.59 34.49 114.249 33.95 113.528 33.518C113.024 33.176 112.754 33.086 112.125 32.852C111.351 32.564 111.044 32.42 110.738 32.114C110.576 31.952 110.504 31.754 110.504 31.556C110.504 30.98 110.9 30.656 111.404 30.656C112.034 30.656 112.556 30.926 112.988 31.484L114.177 30.44C113.601 29.558 112.592 29 111.494 29Z" fill="#D0D0D0"/>
</svg>
