<svg width="211" height="99" viewBox="0 0 211 99" fill="none" xmlns="http://www.w3.org/2000/svg">
<path d="M37.6612 0L28.2459 4.27954L18.8306 0L9.41529 4.27954L0 0L0 26.6538L19.9595 26.6538V32.3654H0L0 38.0769L26.6126 38.0769V43.7885L0 43.7885L0 49.5H11.4054L11.4054 55.2115H0L0 60.9231L22.8108 60.9231V66.6346H0L0 76.0591C0 88.4187 5.91346 98.4294 13.2144 98.4294H43.2112C39.7755 92.7249 37.6612 89.1189 37.6612 80.3386L37.6612 0Z" fill="#05CC5C"/>
<path d="M75.1745 25.9025L50.16 25.9025C45.7417 25.9025 42.16 29.4842 42.16 33.9025L42.16 85.4781C42.16 92.6337 47.9651 98.4294 55.1323 98.4294C62.2995 98.4294 68.1046 92.6337 68.1046 85.4781L68.1046 41.4439C68.1046 35.2597 70.8612 29.6907 75.1745 25.9025Z" fill="#0FA65D"/>
<path d="M112.295 59.0576C116.586 56.9179 119.591 50.7839 119.591 45.2205C119.591 33.2378 111.723 26.3905 99.4203 26.3905H86.6888C79.5784 26.3905 73.8142 32.1385 73.8142 39.2291V87.7306C73.8935 93.1728 72.9974 95.5469 69.5227 98.4294H100.565C114.87 98.4294 123.167 90.7262 123.167 77.317C123.31 68.9006 119.161 62.0533 112.295 59.0576ZM85.1153 42.7954C85.1153 39.644 87.6771 37.0893 90.8373 37.0893H98.2759C104.856 37.0893 108.146 40.085 108.146 45.9337C108.146 51.7824 104.856 54.7781 98.2759 54.7781H85.1153V42.7954ZM99.1342 87.7306H85.2583V65.4769H99.1342C107.574 65.4769 111.866 69.1859 111.866 76.6038C111.723 84.0216 107.574 87.7306 99.1342 87.7306ZM127.315 98.4294H138.044V46.647H127.315V98.4294ZM127.458 26.8184C124.597 29.6715 124.597 34.379 127.315 37.232C130.176 39.9424 135.183 39.9424 137.901 37.232C140.762 34.379 140.762 29.6715 137.901 26.8184C135.04 23.8228 130.319 23.8228 127.458 26.8184ZM143.48 98.4294H154.209V25.6772H143.48V98.4294ZM159.931 98.4294H170.66V25.6772H159.931V98.4294ZM204.277 71.611C201.416 69.6138 199.842 69.1859 196.266 67.7594C191.831 66.0476 190.115 65.3343 188.398 63.4798C187.54 62.6239 187.111 61.4827 187.111 60.3415C187.111 57.0605 189.399 55.2061 192.26 55.2061C195.837 55.2061 198.841 56.7752 201.273 59.9135L208.139 53.9222C204.849 48.9294 199.127 45.6484 192.833 45.6484C188.255 45.6484 184.393 47.0749 181.388 49.928C178.384 52.6383 176.811 56.2046 176.811 60.3415C176.811 66.7608 180.53 71.4683 187.969 74.464C189.685 75.1772 193.405 76.4611 194.978 77.1744C195.837 77.4597 196.695 78.0303 197.696 78.6009C199.699 79.7421 200.414 81.0259 200.414 82.7378C200.414 87.3026 197.982 89.585 193.405 89.585C188.541 89.585 184.822 86.4467 181.961 80.17L172.948 85.1628C176.096 92.7234 183.105 99 192.976 99C198.412 99 202.703 97.4308 205.993 94.2925C209.283 91.1542 211 87.16 211 82.5951C210.428 77.0317 208.425 74.036 204.277 71.611Z" fill="#146F3E"/>
</svg>
