<svg width="219" height="107" viewBox="0 0 219 107" fill="none" xmlns="http://www.w3.org/2000/svg">
<g filter="url(#filter0_d)">
<path d="M41.6612 0L32.2459 4.27954L22.8306 0L13.4153 4.27954L4 0L4 26.6538L23.9595 26.6538V32.3654H4L4 38.0769L30.6126 38.0769V43.7885L4 43.7885L4 49.5H15.4054L15.4054 55.2115H4L4 60.9231L26.8108 60.9231V66.6346H4L4 76.0591C4 88.4187 9.91346 98.4294 17.2144 98.4294H47.2112C43.7755 92.7249 41.6612 89.1189 41.6612 80.3386L41.6612 0Z" fill="white"/>
<path d="M79.1745 25.9025L54.16 25.9025C49.7417 25.9025 46.16 29.4842 46.16 33.9025L46.16 85.4781C46.16 92.6337 51.9651 98.4294 59.1323 98.4294C66.2995 98.4294 72.1046 92.6337 72.1046 85.4781L72.1046 41.4439C72.1046 35.2597 74.8612 29.6907 79.1745 25.9025Z" fill="white"/>
<path d="M116.295 59.0576C120.586 56.9179 123.591 50.7839 123.591 45.2205C123.591 33.2378 115.723 26.3905 103.42 26.3905H90.6888C83.5784 26.3905 77.8142 32.1385 77.8142 39.2291V87.7306C77.8935 93.1728 76.9974 95.5469 73.5227 98.4294H104.565C118.87 98.4294 127.167 90.7262 127.167 77.317C127.31 68.9006 123.161 62.0533 116.295 59.0576ZM89.1152 42.7954C89.1152 39.644 91.6771 37.0893 94.8373 37.0893H102.276C108.856 37.0893 112.146 40.085 112.146 45.9337C112.146 51.7824 108.856 54.7781 102.276 54.7781H89.1152V42.7954ZM103.134 87.7306H89.2583V65.4769H103.134C111.574 65.4769 115.866 69.1859 115.866 76.6038C115.723 84.0216 111.574 87.7306 103.134 87.7306ZM131.315 98.4294H142.044V46.647H131.315V98.4294ZM131.458 26.8184C128.597 29.6715 128.597 34.379 131.315 37.232C134.176 39.9424 139.183 39.9424 141.901 37.232C144.762 34.379 144.762 29.6715 141.901 26.8184C139.04 23.8228 134.319 23.8228 131.458 26.8184ZM147.48 98.4294H158.209V25.6772H147.48V98.4294ZM163.931 98.4294H174.66V25.6772H163.931V98.4294ZM208.277 71.611C205.416 69.6138 203.842 69.1859 200.266 67.7594C195.831 66.0476 194.115 65.3343 192.398 63.4798C191.54 62.6239 191.111 61.4827 191.111 60.3415C191.111 57.0605 193.399 55.2061 196.26 55.2061C199.837 55.2061 202.841 56.7752 205.273 59.9135L212.139 53.9222C208.849 48.9294 203.127 45.6484 196.833 45.6484C192.255 45.6484 188.393 47.0749 185.388 49.928C182.384 52.6383 180.811 56.2046 180.811 60.3415C180.811 66.7608 184.53 71.4683 191.969 74.464C193.685 75.1772 197.405 76.4611 198.978 77.1744C199.837 77.4597 200.695 78.0303 201.696 78.6009C203.699 79.7421 204.414 81.0259 204.414 82.7378C204.414 87.3026 201.982 89.585 197.405 89.585C192.541 89.585 188.822 86.4467 185.961 80.17L176.948 85.1628C180.096 92.7234 187.105 99 196.976 99C202.412 99 206.703 97.4308 209.993 94.2925C213.283 91.1542 215 87.16 215 82.5951C214.428 77.0317 212.425 74.036 208.277 71.611Z" fill="white"/>
</g>
<defs>
<filter id="filter0_d" x="0" y="0" width="219" height="107" filterUnits="userSpaceOnUse" color-interpolation-filters="sRGB">
<feFlood flood-opacity="0" result="BackgroundImageFix"/>
<feColorMatrix in="SourceAlpha" type="matrix" values="0 0 0 0 0 0 0 0 0 0 0 0 0 0 0 0 0 0 127 0"/>
<feOffset dy="4"/>
<feGaussianBlur stdDeviation="2"/>
<feColorMatrix type="matrix" values="0 0 0 0 0 0 0 0 0 0 0 0 0 0 0 0 0 0 0.25 0"/>
<feBlend mode="normal" in2="BackgroundImageFix" result="effect1_dropShadow"/>
<feBlend mode="normal" in="SourceGraphic" in2="effect1_dropShadow" result="shape"/>
</filter>
</defs>
</svg>
