<svg width="230" height="212" viewBox="0 0 230 212" fill="none" xmlns="http://www.w3.org/2000/svg">
<path fill-rule="evenodd" clip-rule="evenodd" d="M111.395 3.60004C130.617 6.8607 145.043 21.1281 162.537 30.1633C185.173 41.8543 221.364 38.8105 228.839 64.2568C236.345 89.8063 205.482 109.506 192.611 132.537C183.221 149.34 177.259 167.541 163.712 180.794C148.646 195.534 131.914 211.647 111.395 211.995C90.7817 212.345 75.5656 193.735 57.8459 182.589C37.7945 169.975 7.47078 166.275 1.0173 142.56C-5.46629 118.735 20.8489 99.5525 28.9146 76.2739C36.5188 54.3273 29.7872 25.4847 46.7657 10.525C63.8209 -4.50238 89.4787 -0.117688 111.395 3.60004Z" fill="url(#paint0_linear)"/>
<path d="M107.804 81.1016V77.2036C107.804 76.686 107.384 76.2661 106.867 76.2661H89.4648C88.9468 76.2661 88.5273 76.686 88.5273 77.2036V81.1016C88.5273 81.6191 88.9468 82.0391 89.4648 82.0391H106.867C107.384 82.0391 107.804 81.6196 107.804 81.1016ZM105.929 80.1641H90.4023V78.1411H105.929V80.1641Z" fill="#315658"/>
<path d="M108.617 106.288H120.715C121.232 106.288 121.652 105.868 121.652 105.351V101.452C121.652 100.935 121.232 100.515 120.715 100.515H108.617C108.099 100.515 107.679 100.935 107.679 101.452V105.351C107.679 105.868 108.099 106.288 108.617 106.288ZM109.554 102.39H119.777V104.413H109.554V102.39Z" fill="#315658"/>
<path d="M120.715 70.5869H89.4648C88.9468 70.5869 88.5273 71.0068 88.5273 71.5244C88.5273 72.0425 88.9468 72.4619 89.4648 72.4619H120.715C121.232 72.4619 121.652 72.0425 121.652 71.5244C121.652 71.0068 121.232 70.5869 120.715 70.5869Z" fill="#315658"/>
<path d="M100.804 86.1494C100.804 85.6318 100.384 85.2119 99.8667 85.2119H89.4648C88.9468 85.2119 88.5273 85.6318 88.5273 86.1494C88.5273 86.6675 88.9468 87.0869 89.4648 87.0869H99.8667C100.384 87.0869 100.804 86.6675 100.804 86.1494Z" fill="#315658"/>
<path d="M98.1655 89.9414H89.4648C88.9468 89.9414 88.5273 90.3608 88.5273 90.8789C88.5273 91.3965 88.9468 91.8164 89.4648 91.8164H98.1655C98.6836 91.8164 99.103 91.3965 99.103 90.8789C99.103 90.3608 98.6836 89.9414 98.1655 89.9414Z" fill="#315658"/>
<path d="M98.1655 94.6704H89.4648C88.9468 94.6704 88.5273 95.0903 88.5273 95.6079C88.5273 96.126 88.9468 96.5454 89.4648 96.5454H98.1655C98.6836 96.5454 99.103 96.126 99.103 95.6079C99.103 95.0903 98.6836 94.6704 98.1655 94.6704Z" fill="#315658"/>
<path d="M120.715 94.6704H116.364C115.846 94.6704 115.427 95.0903 115.427 95.6079C115.427 96.126 115.846 96.5454 116.364 96.5454H120.715C121.232 96.5454 121.652 96.126 121.652 95.6079C121.652 95.0903 121.232 94.6704 120.715 94.6704Z" fill="#315658"/>
<path d="M120.715 89.9414H116.364C115.846 89.9414 115.427 90.3613 115.427 90.8789C115.427 91.3965 115.846 91.8164 116.364 91.8164H120.715C121.232 91.8164 121.652 91.3965 121.652 90.8789C121.652 90.3613 121.232 89.9414 120.715 89.9414Z" fill="#315658"/>
<path d="M120.715 85.2119H116.364C115.846 85.2119 115.427 85.6318 115.427 86.1494C115.427 86.6675 115.846 87.0869 116.364 87.0869H120.715C121.232 87.0869 121.652 86.6675 121.652 86.1494C121.652 85.6318 121.232 85.2119 120.715 85.2119Z" fill="#315658"/>
<path d="M124.492 74.0542C125.009 74.0542 125.429 73.6343 125.429 73.1167V52.9375C125.429 52.4199 125.009 52 124.492 52C121.52 52 121.271 55.75 119.64 55.75C118.01 55.75 117.764 52 114.789 52C111.818 52 111.568 55.75 109.939 55.75C108.304 55.75 108.068 52 105.088 52C102.117 52 101.868 55.75 100.238 55.75C98.6104 55.75 98.3599 52 95.3877 52C92.4165 52 92.1675 55.75 90.5376 55.75C88.9023 55.75 88.6685 52 85.6875 52C85.1694 52 84.75 52.4199 84.75 52.9375V115.062C84.75 115.58 85.1694 116 85.6875 116C88.6587 116 88.9082 112.25 90.5376 112.25C92.1724 112.25 92.4072 116 95.3877 116C98.3584 116 98.6079 112.25 100.238 112.25C101.873 112.25 102.108 116 105.088 116C108.059 116 108.309 112.25 109.939 112.25C111.574 112.25 111.809 116 114.789 116C117.761 116 118.01 112.25 119.64 112.25C121.271 112.25 121.517 116 124.492 116C125.009 116 125.429 115.58 125.429 115.062V76.6167C125.429 76.0986 125.009 75.6792 124.492 75.6792C123.974 75.6792 123.554 76.0986 123.554 76.6167V113.652C122.618 112.617 121.936 110.375 119.64 110.375C116.669 110.375 116.42 114.125 114.789 114.125C113.162 114.125 112.911 110.375 109.939 110.375C106.968 110.375 106.718 114.125 105.088 114.125C103.453 114.125 103.218 110.375 100.238 110.375C97.2666 110.375 97.0171 114.125 95.3877 114.125C93.752 114.125 93.5181 110.375 90.5376 110.375C88.2432 110.375 87.5615 112.616 86.625 113.651V54.3486C87.5596 55.3823 88.2427 57.625 90.5381 57.625C93.5088 57.625 93.7583 53.875 95.3877 53.875C97.0234 53.875 97.2573 57.625 100.238 57.625C103.209 57.625 103.458 53.875 105.088 53.875C106.724 53.875 106.958 57.625 109.939 57.625C112.91 57.625 113.159 53.875 114.79 53.875C116.42 53.875 116.666 57.625 119.641 57.625C121.936 57.625 122.619 55.3828 123.554 54.3481V73.1167C123.554 73.6343 123.974 74.0542 124.492 74.0542Z" fill="#315658"/>
<path d="M121.652 62.6494C121.652 62.1318 121.232 61.7119 120.715 61.7119H98.1655C97.6475 61.7119 97.228 62.1318 97.228 62.6494C97.228 63.1675 97.6475 63.5869 98.1655 63.5869H119.777V65.6104H90.4023V63.5869H94.6655C95.1836 63.5869 95.603 63.1675 95.603 62.6494C95.603 62.1318 95.1836 61.7119 94.6655 61.7119H89.4648C88.9468 61.7119 88.5273 62.1318 88.5273 62.6494V66.5479C88.5273 67.0654 88.9468 67.4854 89.4648 67.4854H120.715C121.232 67.4854 121.652 67.0654 121.652 66.5479V62.6494Z" fill="#315658"/>
<path d="M45.818 138.4C45.95 138.4 46.064 138.448 46.16 138.544C46.256 138.64 46.304 138.754 46.304 138.886V150.514C46.304 150.646 46.256 150.76 46.16 150.856C46.064 150.952 45.95 151 45.818 151H45.08C44.948 151 44.834 150.952 44.738 150.856C44.642 150.76 44.594 150.646 44.594 150.514V145.438H38.258V150.514C38.258 150.646 38.21 150.76 38.114 150.856C38.018 150.952 37.904 151 37.772 151H37.034C36.902 151 36.788 150.958 36.692 150.874C36.596 150.778 36.548 150.658 36.548 150.514V138.886C36.548 138.754 36.596 138.64 36.692 138.544C36.788 138.448 36.902 138.4 37.034 138.4H37.772C37.904 138.4 38.018 138.448 38.114 138.544C38.21 138.64 38.258 138.754 38.258 138.886V143.818H44.594V138.886C44.594 138.754 44.642 138.64 44.738 138.544C44.834 138.448 44.948 138.4 45.08 138.4H45.818ZM48.7676 145.42C48.8156 144.868 48.9476 144.352 49.1636 143.872C49.3796 143.392 49.6616 142.972 50.0096 142.612C50.3576 142.252 50.7716 141.97 51.2516 141.766C51.7436 141.562 52.2896 141.46 52.8896 141.46C53.5376 141.46 54.1136 141.568 54.6176 141.784C55.1336 141.988 55.5716 142.288 55.9316 142.684C56.2916 143.08 56.5676 143.56 56.7596 144.124C56.9516 144.688 57.0476 145.318 57.0476 146.014V146.5C57.0476 146.632 56.9996 146.746 56.9036 146.842C56.8076 146.938 56.6936 146.986 56.5616 146.986H50.3696V147.094C50.3936 147.91 50.6396 148.54 51.1076 148.984C51.5876 149.416 52.1816 149.632 52.8896 149.632C53.5496 149.632 54.0416 149.542 54.3656 149.362C54.7016 149.17 54.9716 148.96 55.1756 148.732C55.2716 148.636 55.3556 148.57 55.4276 148.534C55.4996 148.498 55.6076 148.48 55.7516 148.48H56.2916C56.4236 148.48 56.5436 148.528 56.6516 148.624C56.7596 148.72 56.8016 148.834 56.7776 148.966C56.7416 149.182 56.6396 149.422 56.4716 149.686C56.3036 149.938 56.0576 150.178 55.7336 150.406C55.4216 150.622 55.0256 150.808 54.5456 150.964C54.0776 151.108 53.5256 151.18 52.8896 151.18C52.2896 151.18 51.7496 151.078 51.2696 150.874C50.7896 150.658 50.3696 150.37 50.0096 150.01C49.6616 149.638 49.3796 149.206 49.1636 148.714C48.9476 148.21 48.8156 147.664 48.7676 147.076C48.7076 146.524 48.7076 145.972 48.7676 145.42ZM50.3696 145.474H55.4276V145.42C55.4276 144.688 55.1936 144.106 54.7256 143.674C54.2696 143.23 53.6576 143.008 52.8896 143.008C52.5416 143.008 52.2176 143.068 51.9176 143.188C51.6176 143.296 51.3536 143.458 51.1256 143.674C50.8976 143.878 50.7176 144.13 50.5856 144.43C50.4536 144.73 50.3816 145.06 50.3696 145.42V145.474ZM66.3505 141.64C66.4825 141.64 66.5965 141.688 66.6925 141.784C66.7885 141.88 66.8365 141.994 66.8365 142.126V142.702C66.8365 142.834 66.7885 142.948 66.6925 143.044C66.5965 143.14 66.4825 143.188 66.3505 143.188H63.2365V150.514C63.2365 150.646 63.1885 150.76 63.0925 150.856C62.9965 150.952 62.8825 151 62.7505 151H62.0845C61.9525 151 61.8385 150.952 61.7425 150.856C61.6465 150.76 61.5985 150.646 61.5985 150.514V143.188H58.4845C58.3525 143.188 58.2385 143.14 58.1425 143.044C58.0465 142.948 57.9985 142.834 57.9985 142.702V142.126C57.9985 141.994 58.0465 141.88 58.1425 141.784C58.2385 141.688 58.3525 141.64 58.4845 141.64H66.3505ZM73.6878 142.126C73.6878 141.994 73.7298 141.88 73.8138 141.784C73.9098 141.688 74.0238 141.64 74.1558 141.64H79.1778C79.3098 141.64 79.4238 141.688 79.5198 141.784C79.6158 141.88 79.6638 141.994 79.6638 142.126V149.452H80.0058C80.1378 149.452 80.2518 149.5 80.3478 149.596C80.4438 149.692 80.4918 149.806 80.4918 149.938V152.494C80.4918 152.626 80.4438 152.74 80.3478 152.836C80.2518 152.932 80.1378 152.98 80.0058 152.98H79.3398C79.2078 152.98 79.0938 152.932 78.9978 152.836C78.9018 152.74 78.8538 152.626 78.8538 152.494V151H73.5258V152.494C73.5258 152.626 73.4778 152.74 73.3818 152.836C73.2858 152.932 73.1718 152.98 73.0398 152.98H72.3738C72.2418 152.98 72.1278 152.932 72.0318 152.836C71.9358 152.74 71.8878 152.626 71.8878 152.494V149.938C71.8878 149.806 71.9358 149.692 72.0318 149.596C72.1278 149.5 72.2418 149.452 72.3738 149.452H72.7878C72.9798 149.452 73.1358 149.404 73.2558 149.308C73.3758 149.212 73.4658 149.08 73.5258 148.912C73.5978 148.744 73.6398 148.558 73.6518 148.354C73.6758 148.138 73.6878 147.91 73.6878 147.67V142.126ZM78.0258 143.188H75.3258V147.958C75.3258 148.618 75.2118 149.116 74.9838 149.452H78.0258V143.188ZM86.432 141.46C87.08 141.46 87.656 141.562 88.16 141.766C88.664 141.958 89.096 142.228 89.456 142.576C89.816 142.924 90.098 143.35 90.302 143.854C90.518 144.346 90.65 144.886 90.698 145.474C90.71 145.582 90.716 145.714 90.716 145.87C90.716 146.014 90.716 146.17 90.716 146.338C90.716 146.494 90.716 146.65 90.716 146.806C90.716 146.95 90.71 147.07 90.698 147.166C90.638 147.766 90.506 148.312 90.302 148.804C90.098 149.296 89.816 149.716 89.456 150.064C89.096 150.412 88.664 150.688 88.16 150.892C87.656 151.084 87.08 151.18 86.432 151.18C85.784 151.18 85.208 151.084 84.704 150.892C84.2 150.688 83.768 150.412 83.408 150.064C83.048 149.716 82.76 149.296 82.544 148.804C82.34 148.312 82.214 147.766 82.166 147.166C82.154 147.07 82.142 146.95 82.13 146.806C82.13 146.65 82.13 146.494 82.13 146.338C82.13 146.17 82.13 146.014 82.13 145.87C82.142 145.714 82.154 145.582 82.166 145.474C82.214 144.886 82.34 144.346 82.544 143.854C82.76 143.35 83.048 142.924 83.408 142.576C83.768 142.228 84.2 141.958 84.704 141.766C85.208 141.562 85.784 141.46 86.432 141.46ZM89.06 147.076C89.084 146.872 89.096 146.626 89.096 146.338C89.096 146.038 89.084 145.78 89.06 145.564C89.024 145.204 88.946 144.868 88.826 144.556C88.706 144.244 88.538 143.974 88.322 143.746C88.106 143.518 87.842 143.338 87.53 143.206C87.218 143.074 86.852 143.008 86.432 143.008C86.012 143.008 85.646 143.074 85.334 143.206C85.022 143.338 84.758 143.518 84.542 143.746C84.326 143.974 84.158 144.244 84.038 144.556C83.918 144.868 83.84 145.204 83.804 145.564C83.78 145.78 83.768 146.038 83.768 146.338C83.768 146.626 83.78 146.872 83.804 147.076C83.84 147.436 83.918 147.772 84.038 148.084C84.158 148.396 84.326 148.666 84.542 148.894C84.758 149.122 85.022 149.302 85.334 149.434C85.646 149.566 86.012 149.632 86.432 149.632C86.852 149.632 87.218 149.566 87.53 149.434C87.842 149.302 88.106 149.122 88.322 148.894C88.538 148.666 88.706 148.396 88.826 148.084C88.946 147.772 89.024 147.436 89.06 147.076ZM94.6247 145.24L98.3687 141.946C98.4407 141.886 98.5307 141.82 98.6387 141.748C98.7587 141.676 98.9027 141.64 99.0707 141.64H99.9347C100.055 141.64 100.157 141.682 100.241 141.766C100.325 141.85 100.367 141.952 100.367 142.072C100.367 142.132 100.355 142.192 100.331 142.252C100.319 142.3 100.265 142.36 100.169 142.432L95.8127 146.248L100.601 150.226C100.721 150.322 100.781 150.436 100.781 150.568C100.781 150.688 100.739 150.79 100.655 150.874C100.571 150.958 100.469 151 100.349 151H99.4127C99.2327 151 99.0767 150.964 98.9447 150.892C98.8247 150.82 98.7347 150.754 98.6747 150.694L94.6247 147.328V150.514C94.6247 150.646 94.5767 150.76 94.4807 150.856C94.3847 150.952 94.2707 151 94.1387 151H93.4727C93.3407 151 93.2267 150.952 93.1307 150.856C93.0347 150.76 92.9867 150.646 92.9867 150.514V142.126C92.9867 141.994 93.0347 141.88 93.1307 141.784C93.2267 141.688 93.3407 141.64 93.4727 141.64H94.1387C94.2707 141.64 94.3847 141.688 94.4807 141.784C94.5767 141.88 94.6247 141.994 94.6247 142.126V145.24ZM101.617 142.198C101.605 142.162 101.599 142.12 101.599 142.072C101.599 141.952 101.641 141.85 101.725 141.766C101.809 141.682 101.911 141.64 102.031 141.64H102.769C102.913 141.64 103.021 141.688 103.093 141.784C103.177 141.88 103.243 141.976 103.291 142.072L106.387 148.588L109.465 142.072C109.513 141.976 109.573 141.88 109.645 141.784C109.729 141.688 109.843 141.64 109.987 141.64H110.725C110.845 141.64 110.947 141.682 111.031 141.766C111.115 141.85 111.157 141.952 111.157 142.072C111.157 142.12 111.151 142.162 111.139 142.198L107.341 150.28C107.101 150.772 106.873 151.264 106.657 151.756C106.453 152.248 106.219 152.692 105.955 153.088C105.703 153.484 105.409 153.802 105.073 154.042C104.737 154.294 104.329 154.42 103.849 154.42H103.111C102.979 154.42 102.865 154.372 102.769 154.276C102.673 154.18 102.625 154.066 102.625 153.934V153.358C102.625 153.226 102.673 153.112 102.769 153.016C102.865 152.92 102.979 152.872 103.111 152.872H103.579C103.831 152.872 104.041 152.806 104.209 152.674C104.377 152.554 104.533 152.386 104.677 152.17C104.821 151.954 104.953 151.696 105.073 151.396C105.205 151.108 105.349 150.79 105.505 150.442L101.617 142.198ZM117.563 147.4L120.425 142C120.461 141.928 120.527 141.85 120.623 141.766C120.731 141.682 120.887 141.64 121.091 141.64H121.685C121.817 141.64 121.931 141.688 122.027 141.784C122.123 141.88 122.171 141.994 122.171 142.126V150.514C122.171 150.646 122.123 150.76 122.027 150.856C121.931 150.952 121.817 151 121.685 151H121.019C120.887 151 120.773 150.952 120.677 150.856C120.581 150.76 120.533 150.646 120.533 150.514V145.096L118.409 149.02C118.349 149.128 118.271 149.23 118.175 149.326C118.091 149.422 117.959 149.47 117.779 149.47H117.347C117.167 149.47 117.029 149.422 116.933 149.326C116.849 149.23 116.777 149.128 116.717 149.02L114.593 145.096V150.514C114.593 150.646 114.545 150.76 114.449 150.856C114.353 150.952 114.239 151 114.107 151H113.441C113.309 151 113.195 150.952 113.099 150.856C113.003 150.76 112.955 150.646 112.955 150.514V142.126C112.955 141.994 113.003 141.88 113.099 141.784C113.195 141.688 113.309 141.64 113.441 141.64H114.035C114.239 141.64 114.389 141.682 114.485 141.766C114.593 141.85 114.665 141.928 114.701 142L117.563 147.4ZM124.441 145.42C124.489 144.868 124.621 144.352 124.837 143.872C125.053 143.392 125.335 142.972 125.683 142.612C126.031 142.252 126.445 141.97 126.925 141.766C127.417 141.562 127.963 141.46 128.563 141.46C129.211 141.46 129.787 141.568 130.291 141.784C130.807 141.988 131.245 142.288 131.605 142.684C131.965 143.08 132.241 143.56 132.433 144.124C132.625 144.688 132.721 145.318 132.721 146.014V146.5C132.721 146.632 132.673 146.746 132.577 146.842C132.481 146.938 132.367 146.986 132.235 146.986H126.043V147.094C126.067 147.91 126.313 148.54 126.781 148.984C127.261 149.416 127.855 149.632 128.563 149.632C129.223 149.632 129.715 149.542 130.039 149.362C130.375 149.17 130.645 148.96 130.849 148.732C130.945 148.636 131.029 148.57 131.101 148.534C131.173 148.498 131.281 148.48 131.425 148.48H131.965C132.097 148.48 132.217 148.528 132.325 148.624C132.433 148.72 132.475 148.834 132.451 148.966C132.415 149.182 132.313 149.422 132.145 149.686C131.977 149.938 131.731 150.178 131.407 150.406C131.095 150.622 130.699 150.808 130.219 150.964C129.751 151.108 129.199 151.18 128.563 151.18C127.963 151.18 127.423 151.078 126.943 150.874C126.463 150.658 126.043 150.37 125.683 150.01C125.335 149.638 125.053 149.206 124.837 148.714C124.621 148.21 124.489 147.664 124.441 147.076C124.381 146.524 124.381 145.972 124.441 145.42ZM126.043 145.474H131.101V145.42C131.101 144.688 130.867 144.106 130.399 143.674C129.943 143.23 129.331 143.008 128.563 143.008C128.215 143.008 127.891 143.068 127.591 143.188C127.291 143.296 127.027 143.458 126.799 143.674C126.571 143.878 126.391 144.13 126.259 144.43C126.127 144.73 126.055 145.06 126.043 145.42V145.474ZM142.759 141.64C142.891 141.64 143.005 141.688 143.101 141.784C143.197 141.88 143.245 141.994 143.245 142.126V150.514C143.245 150.646 143.197 150.76 143.101 150.856C143.005 150.952 142.891 151 142.759 151H142.093C141.961 151 141.847 150.952 141.751 150.856C141.655 150.76 141.607 150.646 141.607 150.514V147.004H136.531V150.514C136.531 150.646 136.483 150.76 136.387 150.856C136.291 150.952 136.177 151 136.045 151H135.379C135.247 151 135.133 150.958 135.037 150.874C134.941 150.778 134.893 150.658 134.893 150.514V142.126C134.893 141.994 134.941 141.88 135.037 141.784C135.133 141.688 135.247 141.64 135.379 141.64H136.045C136.177 141.64 136.291 141.688 136.387 141.784C136.483 141.88 136.531 141.994 136.531 142.126V145.456H141.607V142.126C141.607 141.994 141.655 141.88 141.751 141.784C141.847 141.688 141.961 141.64 142.093 141.64H142.759ZM153.222 141.64C153.354 141.64 153.468 141.688 153.564 141.784C153.66 141.88 153.708 141.994 153.708 142.126V142.702C153.708 142.834 153.66 142.948 153.564 143.044C153.468 143.14 153.354 143.188 153.222 143.188H150.108V150.514C150.108 150.646 150.06 150.76 149.964 150.856C149.868 150.952 149.754 151 149.622 151H148.956C148.824 151 148.71 150.952 148.614 150.856C148.518 150.76 148.47 150.646 148.47 150.514V143.188H145.356C145.224 143.188 145.11 143.14 145.014 143.044C144.918 142.948 144.87 142.834 144.87 142.702V142.126C144.87 141.994 144.918 141.88 145.014 141.784C145.11 141.688 145.224 141.64 145.356 141.64H153.222ZM158.959 141.46C159.607 141.46 160.183 141.562 160.687 141.766C161.191 141.958 161.623 142.228 161.983 142.576C162.343 142.924 162.625 143.35 162.829 143.854C163.045 144.346 163.177 144.886 163.225 145.474C163.237 145.582 163.243 145.714 163.243 145.87C163.243 146.014 163.243 146.17 163.243 146.338C163.243 146.494 163.243 146.65 163.243 146.806C163.243 146.95 163.237 147.07 163.225 147.166C163.165 147.766 163.033 148.312 162.829 148.804C162.625 149.296 162.343 149.716 161.983 150.064C161.623 150.412 161.191 150.688 160.687 150.892C160.183 151.084 159.607 151.18 158.959 151.18C158.311 151.18 157.735 151.084 157.231 150.892C156.727 150.688 156.295 150.412 155.935 150.064C155.575 149.716 155.287 149.296 155.071 148.804C154.867 148.312 154.741 147.766 154.693 147.166C154.681 147.07 154.669 146.95 154.657 146.806C154.657 146.65 154.657 146.494 154.657 146.338C154.657 146.17 154.657 146.014 154.657 145.87C154.669 145.714 154.681 145.582 154.693 145.474C154.741 144.886 154.867 144.346 155.071 143.854C155.287 143.35 155.575 142.924 155.935 142.576C156.295 142.228 156.727 141.958 157.231 141.766C157.735 141.562 158.311 141.46 158.959 141.46ZM161.587 147.076C161.611 146.872 161.623 146.626 161.623 146.338C161.623 146.038 161.611 145.78 161.587 145.564C161.551 145.204 161.473 144.868 161.353 144.556C161.233 144.244 161.065 143.974 160.849 143.746C160.633 143.518 160.369 143.338 160.057 143.206C159.745 143.074 159.379 143.008 158.959 143.008C158.539 143.008 158.173 143.074 157.861 143.206C157.549 143.338 157.285 143.518 157.069 143.746C156.853 143.974 156.685 144.244 156.565 144.556C156.445 144.868 156.367 145.204 156.331 145.564C156.307 145.78 156.295 146.038 156.295 146.338C156.295 146.626 156.307 146.872 156.331 147.076C156.367 147.436 156.445 147.772 156.565 148.084C156.685 148.396 156.853 148.666 157.069 148.894C157.285 149.122 157.549 149.302 157.861 149.434C158.173 149.566 158.539 149.632 158.959 149.632C159.379 149.632 159.745 149.566 160.057 149.434C160.369 149.302 160.633 149.122 160.849 148.894C161.065 148.666 161.233 148.396 161.353 148.084C161.473 147.772 161.551 147.436 161.587 147.076ZM167.152 147.058V149.434H170.194C170.794 149.434 171.274 149.35 171.634 149.182C171.994 149.002 172.174 148.684 172.174 148.228C172.174 147.772 172 147.466 171.652 147.31C171.316 147.142 170.848 147.058 170.248 147.058H167.152ZM167.152 143.206V145.492H170.104C170.704 145.492 171.166 145.414 171.49 145.258C171.814 145.09 171.976 144.778 171.976 144.322C171.976 143.866 171.796 143.566 171.436 143.422C171.088 143.278 170.614 143.206 170.014 143.206H167.152ZM165.874 151C165.778 151 165.694 150.964 165.622 150.892C165.55 150.82 165.514 150.736 165.514 150.64V142C165.514 141.904 165.55 141.82 165.622 141.748C165.694 141.676 165.778 141.64 165.874 141.64H170.338C171.37 141.64 172.174 141.868 172.75 142.324C173.326 142.78 173.614 143.386 173.614 144.142C173.614 144.418 173.578 144.658 173.506 144.862C173.446 145.066 173.362 145.246 173.254 145.402C173.158 145.558 173.044 145.696 172.912 145.816C172.792 145.936 172.666 146.044 172.534 146.14C173.026 146.416 173.362 146.734 173.542 147.094C173.722 147.454 173.812 147.868 173.812 148.336C173.812 149.2 173.512 149.86 172.912 150.316C172.324 150.772 171.532 151 170.536 151H165.874Z" fill="#315658"/>
<defs>
<linearGradient id="paint0_linear" x1="0" y1="0" x2="157.165" y2="224.354" gradientUnits="userSpaceOnUse">
<stop stop-color="#CAFFDF"/>
<stop offset="1" stop-color="#D6FFBD" stop-opacity="0"/>
</linearGradient>
</defs>
</svg>
