<svg viewBox="0 0 48 48" width="100%" height="auto" fill="none" xmlns="http://www.w3.org/2000/svg"><g clip-path="url(#clip0)" fill="#333"><path d="M45 23.063h-6.937V.938a.926.926 0 00-.581-.863.943.943 0 00-1.022.206l-2.653 2.653L31.154.272a.945.945 0 00-1.331 0l-2.654 2.653L24.516.272a.934.934 0 00-1.322 0l-2.662 2.662L17.879.272a.934.934 0 00-1.322 0l-2.653 2.653L11.24.272a.945.945 0 00-1.331 0L7.257 2.934 4.604.272a.934.934 0 00-1.322 0A.906.906 0 003 .966v42.159A4.877 4.877 0 007.876 48h33.187a4.877 4.877 0 004.875-4.875V24a.94.94 0 00-.937-.938zM7.877 46.124c-1.65 0-3-1.35-3-3V3.206L6.59 4.922a.934.934 0 001.322 0l2.653-2.653 2.653 2.653a.934.934 0 001.322 0l2.653-2.653 2.654 2.653a.934.934 0 001.321 0l2.654-2.653 2.653 2.653a.934.934 0 001.322 0l2.653-2.653 2.653 2.653a.934.934 0 001.322 0l1.762-1.725v39.928c0 1.134.384 2.175 1.04 3H7.877zm36.187-3c0 1.65-1.35 3-3 3s-3-1.35-3-3V24.937h6v18.188z"/><path d="M29.954 14.897h-1.829a.94.94 0 00-.937.937.94.94 0 00.938.938h1.828a.94.94 0 00.937-.938.94.94 0 00-.937-.937zm-17.016 0H11.11a.94.94 0 00-.938.937.94.94 0 00.938.938h1.828a.94.94 0 00.938-.938.94.94 0 00-.938-.937zm17.484 10.416h-14.85a.94.94 0 00-.937.937.94.94 0 00.937.938h14.85a.94.94 0 00.938-.938.94.94 0 00-.938-.938zm-19.125.271a.928.928 0 00-.665-.271.968.968 0 00-.666.271.912.912 0 00-.272.666c0 .253.103.488.272.666a.928.928 0 00.666.271.968.968 0 00.665-.271.912.912 0 00.272-.666.928.928 0 00-.272-.666zM30.422 31.5h-14.85a.94.94 0 00-.937.938.94.94 0 00.937.937h14.85a.94.94 0 00.938-.938.94.94 0 00-.938-.937zm-19.125.272a.928.928 0 00-.665-.272.968.968 0 00-.666.272.912.912 0 00-.272.666c0 .253.103.487.272.665a.928.928 0 00.666.272.968.968 0 00.665-.272.912.912 0 00.272-.666.928.928 0 00-.272-.665zm19.125 5.916h-14.85a.94.94 0 00-.937.937.94.94 0 00.937.938h14.85a.94.94 0 00.938-.938.94.94 0 00-.938-.938zm-19.125.272a.928.928 0 00-.665-.273.968.968 0 00-.666.272.912.912 0 00-.272.666.97.97 0 00.272.666.928.928 0 00.666.272.968.968 0 00.665-.272.912.912 0 00.272-.666.928.928 0 00-.272-.666zm6.423-20.55a.9.9 0 000 1.8h1.03v1.03a.9.9 0 001.8 0v-1.03h1.032a.9.9 0 000-1.8H20.55v-1.098h1.03a2.845 2.845 0 002.841-2.84 2.845 2.845 0 00-2.84-2.84H19.65a.9.9 0 00-.9.9v2.962h-1.032a.9.9 0 000 1.8h1.032v1.097l-1.032.018zm2.84-4.97h1.031c.572 0 1.031.46 1.031 1.032 0 .572-.459 1.031-1.03 1.031H20.56v-2.062z"/></g><defs><clipPath id="clip0"><path fill="#fff" d="M0 0h48v48H0z"/></clipPath></defs></svg>