<svg width="48" height="48" fill="none" xmlns="http://www.w3.org/2000/svg"><path d="M32.877 46.59H6.2V11.836a.705.705 0 10-1.409 0v34.99c0 .648.527 1.175 1.174 1.175h26.913a.705.705 0 000-1.41zM43.011 6.37L37.023.213A.705.705 0 0036.518 0H5.964C5.317 0 4.79.527 4.79 1.174V6.67a.705.705 0 101.41 0V1.41h30.02l5.582 5.739V46.59h-3.993a.705.705 0 000 1.409h4.227c.648 0 1.175-.527 1.175-1.174V6.862a.704.704 0 00-.2-.492z" fill="#000"/><path d="M43.01 6.37L37.024.213a.705.705 0 00-1.21.492v6.157c0 .389.316.704.704.704h5.989a.704.704 0 00.505-1.196zm-5.788-.213V2.439l3.616 3.718h-3.616zM27.26 3.74H10.287c-.648 0-1.174.527-1.174 1.175v3.893c0 .648.526 1.175 1.174 1.175H27.26c.647 0 1.174-.527 1.174-1.174V4.915c0-.648-.527-1.174-1.174-1.174zm-.234 4.834H10.52V5.15h16.505v3.424zM16.148 13.67a.705.705 0 00-.987.134L12.048 17.9l-.934-.818a.704.704 0 10-.928 1.06l1.503 1.316a.705.705 0 001.024-.104l3.57-4.697a.705.705 0 00-.135-.987zm21.202-.144H19.607a.704.704 0 100 1.409h17.745a.705.705 0 100-1.409zm-6.223 2.348h-11.52a.704.704 0 100 1.41h11.52a.705.705 0 000-1.41zm2.63 2.349h-14.15a.705.705 0 000 1.409h14.15a.704.704 0 100-1.41zm-17.609 5.028a.705.705 0 00-.987.135l-3.113 4.096-.934-.818a.705.705 0 00-.928 1.06l1.503 1.315a.705.705 0 001.024-.104l3.57-4.697a.705.705 0 00-.135-.987zm21.202-.143H19.607a.704.704 0 100 1.409h17.745a.705.705 0 100-1.41zm-6.223 2.348h-11.52a.705.705 0 000 1.409h11.52a.705.705 0 000-1.41zm2.63 2.348h-14.15a.704.704 0 100 1.41h14.15a.704.704 0 100-1.41zm3.593 4.886H19.607a.705.705 0 000 1.408h17.745a.705.705 0 000-1.409zm-6.223 2.348h-11.52a.704.704 0 100 1.409h11.52a.704.704 0 100-1.41zm2.63 2.348h-14.15a.704.704 0 100 1.409h14.15a.705.705 0 000-1.41zM14.876 32.69H11.12c-.648 0-1.174.526-1.174 1.173v3.758c0 .647.526 1.174 1.174 1.174h3.757c.648 0 1.174-.527 1.174-1.174v-3.758c0-.647-.526-1.174-1.174-1.174zm-.235 4.696h-3.287v-3.288h3.287v3.288z" fill="#000"/></svg>