<svg width="48" height="48" fill="none" xmlns="http://www.w3.org/2000/svg"><path d="M26.103 21.826v-2.923a.703.703 0 00-.703-.703H12.349a.703.703 0 00-.704.703v2.923c0 .388.315.703.704.703H25.4a.703.703 0 00.703-.703zm-1.406-.703H13.052v-1.517h11.645v1.517zm2.015 19.593h9.074a.703.703 0 00.703-.703v-2.924a.703.703 0 00-.703-.703h-9.074a.703.703 0 00-.703.703v2.924c0 .388.315.703.703.703zm.704-2.924h7.667v1.518h-7.667v-1.518zm8.37-23.852H12.35a.703.703 0 100 1.406h23.437a.703.703 0 100-1.406zM20.853 25.612a.703.703 0 00-.703-.703h-7.801a.703.703 0 000 1.406h7.801a.703.703 0 00.703-.703zm-1.979 2.844H12.35a.703.703 0 100 1.406h6.525a.703.703 0 100-1.406zm0 3.547H12.35a.703.703 0 100 1.406h6.525a.703.703 0 100-1.406zm16.912 0h-3.263a.703.703 0 100 1.406h3.263a.703.703 0 100-1.406zm0-3.547h-3.263a.703.703 0 100 1.406h3.263a.703.703 0 000-1.406zm0-3.547h-3.263a.703.703 0 100 1.406h3.263a.703.703 0 100-1.406z" fill="#000"/><path d="M38.619 16.54a.703.703 0 00.703-.702V.703A.703.703 0 0038.619 0c-2.229 0-2.416 2.813-3.639 2.813C33.758 2.813 33.573 0 31.342 0c-2.228 0-2.416 2.813-3.638 2.813C26.478 2.813 26.301 0 24.066 0c-2.228 0-2.415 2.813-3.638 2.813C19.208 2.813 19.02 0 16.791 0s-2.415 2.813-3.638 2.813C11.927 2.813 11.751 0 9.516 0a.703.703 0 00-.704.703v46.594c0 .388.315.703.704.703 2.228 0 2.415-2.813 3.637-2.813 1.226 0 1.402 2.813 3.638 2.813 2.228 0 2.415-2.813 3.637-2.813 1.227 0 1.403 2.813 3.638 2.813 2.228 0 2.416-2.813 3.638-2.813 1.227 0 1.402 2.813 3.638 2.813 2.229 0 2.415-2.813 3.638-2.813 1.223 0 1.408 2.813 3.639 2.813a.703.703 0 00.703-.703V18.463a.703.703 0 10-1.406 0v27.776c-.702-.776-1.214-2.458-2.936-2.458-2.228 0-2.415 2.813-3.638 2.813-1.22 0-1.409-2.813-3.638-2.813-2.228 0-2.416 2.813-3.638 2.813-1.226 0-1.402-2.813-3.638-2.813-2.228 0-2.415 2.813-3.637 2.813-1.227 0-1.402-2.813-3.638-2.813-1.72 0-2.232 1.68-2.934 2.458V1.76c.7.776 1.213 2.458 2.935 2.458 2.228 0 2.415-2.813 3.637-2.813 1.227 0 1.402 2.813 3.637 2.813 2.229 0 2.416-2.813 3.638-2.813 1.227 0 1.403 2.813 3.638 2.813 2.229 0 2.415-2.813 3.638-2.813 1.223 0 1.407 2.813 3.639 2.813 1.721 0 2.233-1.682 2.935-2.458v14.076c0 .389.314.704.703.704z" fill="#000"/><path d="M36.49 7.987a.703.703 0 00-.704-.703H18.874a.703.703 0 100 1.406h16.209v1.518H13.052V8.69h3.197a.703.703 0 100-1.406h-3.9a.703.703 0 00-.704.703v2.924c0 .388.315.703.704.703h23.437a.703.703 0 00.703-.703V7.987z" fill="#000"/></svg>