<svg width="48" height="48" fill="none" xmlns="http://www.w3.org/2000/svg"><g clip-path="url(#clip0)" fill="#333"><path d="M6.431 48h30.4a2.4 2.4 0 002.4-2.4V8h3.2a1.6 1.6 0 001.6-1.6V4a4.005 4.005 0 00-4-4h-33.6a2.4 2.4 0 00-2.4 2.4v43.2a2.4 2.4 0 002.4 2.4zm33.6-46.4a2.4 2.4 0 012.4 2.4v2.4h-32V4a3.958 3.958 0 00-.82-2.4h30.42zm-34.4.8a.8.8 0 01.8-.8 2.4 2.4 0 012.4 2.4v2.4a1.6 1.6 0 001.6 1.6h27.2v37.6a.8.8 0 01-.8.8h-30.4a.8.8 0 01-.8-.8V2.4z"/><path d="M10.431 20h4.8a1.6 1.6 0 001.6-1.6v-.8a.8.8 0 00-1.6 0v.8h-4.8v-4.8h2.4a.8.8 0 000-1.6h-2.4a1.6 1.6 0 00-1.6 1.6v4.8a1.6 1.6 0 001.6 1.6zm0 11.2h4.8a1.6 1.6 0 001.6-1.6v-4.8a1.6 1.6 0 00-1.6-1.6h-4.8a1.6 1.6 0 00-1.6 1.6v4.8a1.6 1.6 0 001.6 1.6zm0-6.4h4.8v4.8h-4.8v-4.8zm0 17.6h4.8a1.6 1.6 0 001.6-1.6V36a1.6 1.6 0 00-1.6-1.6h-4.8a1.6 1.6 0 00-1.6 1.6v4.8a1.6 1.6 0 001.6 1.6zm0-6.4h4.8v4.8h-4.8V36zm9.6-20.8h4a.8.8 0 100-1.6h-4a.8.8 0 100 1.6zm7.2 0h8a.8.8 0 000-1.6h-8a.8.8 0 000 1.6zm-7.2 3.2h8a.8.8 0 000-1.6h-8a.8.8 0 100 1.6zm15.2-1.6h-4a.8.8 0 000 1.6h4a.8.8 0 000-1.6zm-15.2 9.6h4a.8.8 0 100-1.6h-4a.8.8 0 100 1.6zm15.2-1.6h-8a.8.8 0 000 1.6h8a.8.8 0 000-1.6zm-15.2 4.8h8a.8.8 0 000-1.6h-8a.8.8 0 100 1.6zm15.2-1.6h-4a.8.8 0 000 1.6h4a.8.8 0 000-1.6zm-15.2 9.6h4a.8.8 0 100-1.6h-4a.8.8 0 100 1.6zm15.2-1.6h-8a.8.8 0 000 1.6h8a.8.8 0 000-1.6zm-15.2 4.8h8a.8.8 0 100-1.6h-8a.8.8 0 100 1.6zm15.2-1.6h-4a.8.8 0 000 1.6h4a.8.8 0 000-1.6z"/><path d="M12.597 14.634a.8.8 0 00-1.131 1.132l1.6 1.6a.8.8 0 00.565.234h.067a.8.8 0 00.585-.333l4-5.6a.799.799 0 10-1.303-.93l-3.45 4.832-.933-.935z"/></g><defs><clipPath id="clip0"><path fill="#fff" d="M0 0h48v48H0z"/></clipPath></defs></svg>