<svg viewBox="0 0 48 48" width="100%" height="auto" fill="none" xmlns="http://www.w3.org/2000/svg"><path d="M35.806 45.28l1.826-1.826 1.826 1.826 1.826 1.827 1.827-1.827V14.953a3.17 3.17 0 00-3.172-3.171H14.403a3.17 3.17 0 013.171 3.17v30.319l1.826 1.826 1.826-1.826 1.826-1.827 1.827 1.827 1.826 1.826 1.826-1.826 1.826-1.827 1.826 1.827 1.826 1.826 1.797-1.817z" fill="#05CC5C"/><path d="M22.11 19.538h16.612c.49 0 .893-.403.893-.894a.897.897 0 00-.893-.893H22.11a.897.897 0 00-.893.893c0 .491.402.894.893.894zm0 4.742h12.066a.898.898 0 00.894-.894.897.897 0 00-.894-.893H22.11a.897.897 0 00-.893.893.89.89 0 00.893.894zm0 4.35h16.612c.49 0 .893-.403.893-.894a.897.897 0 00-.893-.894H22.11a.897.897 0 00-.893.894c0 .5.402.893.893.893zm1.58 3.17h-1.58a.897.897 0 00-.893.894c0 .49.402.893.893.893h1.58a.896.896 0 00.894-.893.897.897 0 00-.893-.894zm0 4.35h-1.58a.897.897 0 00-.893.893c0 .491.402.894.893.894h1.58a.897.897 0 00.894-.894.897.897 0 00-.893-.893zm15.032-4.35H27.244a.897.897 0 00-.893.894c0 .49.403.893.893.893h11.478c.49 0 .893-.402.893-.893a.897.897 0 00-.893-.894zm-3.662 5.233a.897.897 0 00-.894-.893h-6.921a.897.897 0 00-.894.893c0 .491.403.894.893.894h6.922a.898.898 0 00.894-.894z" fill="#2C2F33"/><path d="M33.352 47.735a.895.895 0 001.256 0l3.024-3.024 3.024 3.024a.886.886 0 00.629.265.886.886 0 00.628-.265l1.826-1.826a.893.893 0 00.265-.629V14.953a4.056 4.056 0 00-4.055-4.055h-6.823V.893A.897.897 0 0032.232 0H4.89a.897.897 0 00-.893.893v30.318a4.056 4.056 0 004.055 4.055h5.144a.897.897 0 00.894-.893.897.897 0 00-.894-.894h-1.787a4.037 4.037 0 00.707-2.277v-16.25a2.28 2.28 0 012.278-2.277 2.28 2.28 0 012.278 2.278V45.27c0 .059.01.117.02.176.01.04.02.07.029.108.01.02.01.04.02.06.02.038.039.078.059.107.01.01.01.03.02.04a.72.72 0 00.107.137l1.826 1.826a.895.895 0 001.257 0l3.024-3.024 3.024 3.024a.895.895 0 001.257 0l3.023-3.024 3.015 3.034zM10.338 14.953V31.21a2.28 2.28 0 01-2.278 2.28 2.28 2.28 0 01-2.277-2.278V1.777h25.566v9.12H14.393a4.056 4.056 0 00-4.055 4.056zM26.685 45.84l-3.024-3.024a.886.886 0 00-.628-.265.886.886 0 00-.629.265l-3.023 3.024-.933-.933V14.953c0-.128-.01-.255-.02-.373 0-.04-.01-.07-.01-.108a2.467 2.467 0 00-.039-.265c-.01-.04-.01-.07-.02-.108a2.1 2.1 0 00-.088-.334c0-.01 0-.01-.01-.02a3.341 3.341 0 00-.127-.334c-.01-.03-.03-.059-.04-.098-.039-.078-.068-.157-.117-.236-.02-.029-.03-.058-.05-.098a4.142 4.142 0 00-.166-.275c-.01-.01-.01-.02-.02-.029v-.01H39.92a2.28 2.28 0 012.277 2.278v29.964l-.932.933-3.024-3.024a.895.895 0 00-1.257 0L33.96 45.84l-2.994-3.014a.895.895 0 00-1.257 0l-3.024 3.014z" fill="#2C2F33"/></svg>