<svg width="48" height="48" fill="none" xmlns="http://www.w3.org/2000/svg"><path d="M21 21.188h18v1.5H21v-1.5zm0 3h10.5v1.5H21v-1.5zm0 9h18v1.5H21v-1.5zm0 3h7.5v1.5H21v-1.5z" fill="#333"/><path d="M0 .188v39h4.5v8.775l3.434-1.92 2.684 1.5 2.679-1.5 2.679 1.5 2.677-1.5 2.68 1.5 2.68-1.5 2.678 1.5 2.678-1.5 2.676 1.5 2.678-1.5 2.676 1.5 2.677-1.5 3.424 1.925v-8.78H48v-39H0zm4.5 37.5h-3v-30h3v30zM42 45.406l-1.924-1.078-2.677 1.5-2.676-1.5-2.678 1.5-2.676-1.5-2.678 1.5-2.679-1.5-2.68 1.5-2.679-1.5-2.677 1.5-2.68-1.5-2.68 1.5-2.682-1.5L6 45.412V7.688h36v37.718zm4.5-7.718h-3v-30h3v30zm0-31.5h-45v-4.5h45v4.5z" fill="#333"/><path d="M15 3.188h30v1.5H15v-1.5zm-12 0h1.5v1.5H3v-1.5zm3 0h1.5v1.5H6v-1.5zm3 0h1.5v1.5H9v-1.5zm28.5 7.5h-27v6h27v-6zm-1.5 4.5H12v-3h24v3zm-21.75 13.5a4.5 4.5 0 100-9.001 4.5 4.5 0 000 9zm0-7.5a3 3 0 110 6 3 3 0 010-6zm0 19.5a4.5 4.5 0 100-9.001 4.5 4.5 0 000 9zm0-7.5a3 3 0 110 6 3 3 0 010-6z" fill="#333"/></svg>