<svg viewBox="0 0 211 99" width="100%" height="auto" fill="none" xmlns="http://www.w3.org/2000/svg"><path d="M37.661 0l-9.415 4.28L18.83 0 9.415 4.28 0 0v26.654h19.96v5.711H0v5.712h26.613v5.712H0V49.5h11.405v5.712H0v5.711h22.81v5.712H0v9.424c0 12.36 5.913 22.37 13.214 22.37h29.997c-3.435-5.704-5.55-9.31-5.55-18.09V0z" fill="#05CC5C"/><path d="M75.174 25.902H50.16a8 8 0 00-8 8v51.576c0 7.156 5.805 12.951 12.972 12.951 7.168 0 12.973-5.795 12.973-12.95V41.443c0-6.184 2.756-11.753 7.07-15.542z" fill="#0FA65D"/><path d="M112.295 59.058c4.291-2.14 7.296-8.274 7.296-13.837 0-11.983-7.868-18.83-20.17-18.83H86.688c-7.11 0-12.875 5.748-12.875 12.838v48.502c.08 5.442-.817 7.816-4.291 10.698h31.042c14.305 0 22.602-7.703 22.602-21.112.143-8.416-4.006-15.264-10.872-18.26zm-27.18-16.263c0-3.151 2.562-5.706 5.722-5.706h7.439c6.58 0 9.87 2.996 9.87 8.845 0 5.848-3.29 8.844-9.87 8.844h-13.16V42.795zm14.02 44.936H85.257V65.477h13.876c8.44 0 12.732 3.709 12.732 11.127-.143 7.418-4.292 11.127-12.732 11.127zm28.18 10.698h10.729V46.647h-10.729v51.782zm.143-71.61c-2.861 2.853-2.861 7.56-.143 10.413 2.861 2.71 7.868 2.71 10.586 0 2.861-2.853 2.861-7.56 0-10.414a7.19 7.19 0 00-10.443 0zm16.022 71.61h10.729V25.677H143.48V98.43zm16.451 0h10.729V25.677h-10.729V98.43zm44.346-26.818c-2.861-1.997-4.435-2.425-8.011-3.852-4.435-1.711-6.151-2.425-7.868-4.28a4.42 4.42 0 01-1.287-3.137c0-3.282 2.288-5.136 5.149-5.136 3.577 0 6.581 1.57 9.013 4.707l6.866-5.99c-3.29-4.994-9.012-8.275-15.306-8.275-4.578 0-8.44 1.427-11.445 4.28-3.004 2.71-4.577 6.277-4.577 10.414 0 6.419 3.719 11.126 11.158 14.122 1.716.713 5.436 1.997 7.009 2.71.859.286 1.717.856 2.718 1.427 2.003 1.141 2.718 2.425 2.718 4.137 0 4.565-2.432 6.847-7.009 6.847-4.864 0-8.583-3.138-11.444-9.415l-9.013 4.993C176.096 92.723 183.105 99 192.976 99c5.436 0 9.727-1.57 13.017-4.707 3.29-3.139 5.007-7.133 5.007-11.698-.572-5.563-2.575-8.559-6.723-10.984z" fill="#146F3E"/></svg>