<svg width="115" height="39" fill="none" xmlns="http://www.w3.org/2000/svg"><path d="M14.458 0l-3.615 1.643L7.23 0 3.614 1.643 0 0v10.23h7.662v2.193H0v2.192h10.216v2.193H0V19h4.378v2.192H0v2.193h8.757v2.192H0v3.617c0 4.744 2.27 8.587 5.073 8.587h11.515c-1.319-2.19-2.13-3.574-2.13-6.944V0z" fill="#05CC5C"/><path d="M28.858 9.942h-4.673a8 8 0 00-8 8V32.81a4.974 4.974 0 004.98 4.971 4.974 4.974 0 004.98-4.971V15.908a7.935 7.935 0 012.713-5.966z" fill="#0FA65D"/><path d="M43.108 22.669c1.648-.822 2.801-3.176 2.801-5.312 0-4.6-3.02-7.227-7.743-7.227H33.28a4.935 4.935 0 00-4.943 4.928v18.616c.03 2.09-.313 3-1.647 4.107h11.916c5.492 0 8.677-2.957 8.677-8.104.055-3.23-1.538-5.858-4.173-7.008zm-10.433-6.242c0-1.21.983-2.19 2.196-2.19h2.856c2.526 0 3.789 1.15 3.789 3.394 0 2.245-1.263 3.395-3.79 3.395h-5.051v-4.6zm5.381 17.247H32.73v-8.541h5.326c3.24 0 4.888 1.423 4.888 4.27-.055 2.848-1.648 4.271-4.888 4.271zm10.819 4.107h4.118V17.905h-4.118V37.78zm.054-27.487c-1.098 1.095-1.098 2.902-.054 3.997 1.098 1.04 3.02 1.04 4.063 0a2.836 2.836 0 000-3.997 2.76 2.76 0 00-4.009 0zm6.151 27.487h4.119V9.856H55.08V37.78zm6.315 0h4.119V9.856h-4.119V37.78zM78.42 27.487c-1.098-.766-1.702-.93-3.075-1.478-1.703-.657-2.362-.931-3.02-1.643a1.696 1.696 0 01-.495-1.205c0-1.259.879-1.97 1.977-1.97 1.373 0 2.526.602 3.46 1.806l2.636-2.3c-1.263-1.916-3.46-3.175-5.876-3.175-1.757 0-3.24.547-4.394 1.642-1.153 1.04-1.757 2.41-1.757 3.997 0 2.464 1.428 4.271 4.284 5.421.659.274 2.086.767 2.69 1.04.33.11.66.329 1.044.548.769.438 1.043.93 1.043 1.588 0 1.752-.933 2.628-2.69 2.628-1.868 0-3.295-1.204-4.394-3.614l-3.46 1.917C67.602 35.59 70.293 38 74.082 38c2.087 0 3.734-.602 4.997-1.807C80.341 34.99 81 33.455 81 31.703c-.22-2.135-.989-3.285-2.581-4.216z" fill="#315658"/><path d="M88.378 36.038c-.504.504-.504 1.368 0 1.89.522.504 1.386.504 1.89 0 .522-.522.522-1.386 0-1.89-.504-.522-1.368-.522-1.89 0zm5.371 2.178h1.872v-3.438c0-2.592.918-4.122 2.124-4.122.81 0 1.331.522 1.331 1.476v6.084h1.872V34.58c0-2.394.954-3.924 2.124-3.924.81 0 1.332.522 1.332 1.476v6.084h1.872v-6.498c0-1.638-.954-2.718-2.592-2.718-1.17 0-2.196.666-2.826 1.872-.27-1.134-1.278-1.872-2.502-1.872-1.097 0-1.997.558-2.735 1.692v-1.548h-1.872v9.072zM111.494 29c-.81 0-1.476.252-1.997.756a2.399 2.399 0 00-.792 1.818c0 1.116.647 1.944 1.943 2.484.288.126.954.36 1.224.486.144.054.306.144.468.252.342.198.469.414.469.72 0 .792-.415 1.188-1.225 1.188-.846 0-1.511-.54-1.997-1.638l-1.585.864c.558 1.314 1.782 2.43 3.51 2.43.954 0 1.71-.27 2.287-.828a2.746 2.746 0 00.864-2.052c-.073-.99-.414-1.53-1.135-1.962-.504-.342-.774-.432-1.403-.666-.774-.288-1.081-.432-1.387-.738a.777.777 0 01-.234-.558c0-.576.396-.9.9-.9.63 0 1.152.27 1.584.828l1.189-1.044a3.21 3.21 0 00-2.683-1.44z" fill="#D0D0D0"/></svg>