<svg width="230" height="212" fill="none" xmlns="http://www.w3.org/2000/svg"><path fill-rule="evenodd" clip-rule="evenodd" d="M111.395 3.6c19.222 3.26 33.648 17.528 51.142 26.563 22.636 11.691 58.827 8.647 66.302 34.094 7.506 25.55-23.357 45.249-36.228 68.28-9.39 16.803-15.352 35.004-28.899 48.257-15.066 14.74-31.798 30.853-52.317 31.201-20.613.35-35.83-18.26-53.55-29.406-20.05-12.614-50.374-16.314-56.828-40.029-6.483-23.825 19.832-43.008 27.898-66.286 7.604-21.947.872-50.79 17.85-65.749C63.822-4.502 89.48-.118 111.396 3.6z" fill="url(#paint0_linear)"/><path d="M107.804 81.102v-3.898a.938.938 0 00-.937-.938H89.465a.937.937 0 00-.938.938v3.898c0 .517.42.937.938.937h17.402c.517 0 .937-.42.937-.937zm-1.875-.938H90.402v-2.023h15.527v2.023zm2.688 26.124h12.098c.517 0 .937-.42.937-.937v-3.899a.938.938 0 00-.937-.937h-12.098a.938.938 0 00-.938.937v3.899c0 .517.42.937.938.937zm.937-3.898h10.223v2.023h-10.223v-2.023zm11.161-31.803h-31.25a.937.937 0 100 1.875h31.25a.937.937 0 000-1.875zM100.804 86.15a.938.938 0 00-.937-.938H89.465a.937.937 0 100 1.875h10.402c.517 0 .937-.42.937-.938zm-2.639 3.791h-8.7a.937.937 0 100 1.875h8.7a.937.937 0 100-1.875zm0 4.729h-8.7a.937.937 0 100 1.875h8.7a.937.937 0 100-1.875zm22.55 0h-4.351a.937.937 0 000 1.875h4.351a.937.937 0 000-1.875zm0-4.729h-4.351a.937.937 0 000 1.875h4.351a.938.938 0 000-1.875zm0-4.729h-4.351a.937.937 0 000 1.875h4.351a.937.937 0 000-1.875z" fill="#315658"/><path d="M124.492 74.054c.517 0 .937-.42.937-.937v-20.18a.938.938 0 00-.937-.937c-2.972 0-3.221 3.75-4.852 3.75-1.63 0-1.876-3.75-4.851-3.75-2.971 0-3.221 3.75-4.85 3.75-1.635 0-1.871-3.75-4.851-3.75-2.971 0-3.22 3.75-4.85 3.75-1.628 0-1.878-3.75-4.85-3.75-2.972 0-3.22 3.75-4.85 3.75-1.636 0-1.87-3.75-4.85-3.75a.937.937 0 00-.938.938v62.124c0 .518.42.938.938.938 2.97 0 3.22-3.75 4.85-3.75 1.634 0 1.87 3.75 4.85 3.75 2.97 0 3.22-3.75 4.85-3.75 1.635 0 1.87 3.75 4.85 3.75 2.971 0 3.221-3.75 4.851-3.75 1.635 0 1.87 3.75 4.85 3.75 2.972 0 3.221-3.75 4.851-3.75 1.631 0 1.877 3.75 4.852 3.75.517 0 .937-.42.937-.938V76.617a.937.937 0 10-1.875 0v37.035c-.936-1.035-1.618-3.277-3.914-3.277-2.971 0-3.22 3.75-4.851 3.75-1.627 0-1.878-3.75-4.85-3.75-2.971 0-3.221 3.75-4.851 3.75-1.635 0-1.87-3.75-4.85-3.75-2.971 0-3.22 3.75-4.85 3.75-1.636 0-1.87-3.75-4.85-3.75-2.295 0-2.977 2.241-3.913 3.276V54.349c.935 1.033 1.618 3.276 3.913 3.276 2.97 0 3.22-3.75 4.85-3.75 1.635 0 1.87 3.75 4.85 3.75 2.971 0 3.22-3.75 4.85-3.75 1.636 0 1.87 3.75 4.851 3.75 2.971 0 3.22-3.75 4.851-3.75 1.63 0 1.876 3.75 4.851 3.75 2.295 0 2.978-2.242 3.913-3.277v18.769c0 .517.42.937.938.937z" fill="#315658"/><path d="M121.652 62.65a.938.938 0 00-.937-.938h-22.55a.937.937 0 100 1.875h21.612v2.023H90.402v-2.023h4.263a.937.937 0 100-1.875h-5.2a.937.937 0 00-.938.937v3.899c0 .517.42.937.938.937h31.25c.517 0 .937-.42.937-.937v-3.899zM45.818 138.4c.132 0 .246.048.342.144.096.096.144.21.144.342v11.628a.467.467 0 01-.144.342.467.467 0 01-.342.144h-.738a.467.467 0 01-.342-.144.467.467 0 01-.144-.342v-5.076h-6.336v5.076a.467.467 0 01-.144.342.467.467 0 01-.342.144h-.738a.502.502 0 01-.342-.126.488.488 0 01-.144-.36v-11.628c0-.132.048-.246.144-.342a.467.467 0 01.342-.144h.738c.132 0 .246.048.342.144.096.096.144.21.144.342v4.932h6.336v-4.932c0-.132.048-.246.144-.342a.467.467 0 01.342-.144h.738zm2.95 7.02c.048-.552.18-1.068.396-1.548.216-.48.498-.9.846-1.26s.762-.642 1.242-.846a4.238 4.238 0 011.638-.306c.648 0 1.224.108 1.728.324.516.204.954.504 1.314.9.36.396.636.876.828 1.44a5.84 5.84 0 01.288 1.89v.486a.467.467 0 01-.144.342.467.467 0 01-.342.144H50.37v.108c.024.816.27 1.446.738 1.89.48.432 1.074.648 1.782.648.66 0 1.152-.09 1.476-.27.336-.192.606-.402.81-.63.096-.096.18-.162.252-.198a.752.752 0 01.324-.054h.54a.53.53 0 01.36.144.35.35 0 01.126.342c-.036.216-.138.456-.306.72-.168.252-.414.492-.738.72-.312.216-.708.402-1.188.558-.468.144-1.02.216-1.656.216-.6 0-1.14-.102-1.62-.306-.48-.216-.9-.504-1.26-.864a4.565 4.565 0 01-.846-1.296 5.204 5.204 0 01-.396-1.638 7.64 7.64 0 010-1.656zm1.602.054h5.058v-.054c0-.732-.234-1.314-.702-1.746-.456-.444-1.068-.666-1.836-.666-.348 0-.672.06-.972.18-.3.108-.564.27-.792.486a2.173 2.173 0 00-.54.756c-.132.3-.204.63-.216.99v.054zm15.98-3.834c.133 0 .247.048.343.144.096.096.144.21.144.342v.576a.467.467 0 01-.145.342.467.467 0 01-.341.144h-3.114v7.326a.467.467 0 01-.145.342.467.467 0 01-.341.144h-.666a.467.467 0 01-.343-.144.467.467 0 01-.143-.342v-7.326h-3.114a.467.467 0 01-.343-.144.467.467 0 01-.144-.342v-.576c0-.132.049-.246.145-.342a.467.467 0 01.341-.144h7.866zm7.338.486c0-.132.042-.246.126-.342a.467.467 0 01.342-.144h5.022c.132 0 .246.048.342.144.096.096.144.21.144.342v7.326h.342c.132 0 .246.048.342.144.096.096.144.21.144.342v2.556a.467.467 0 01-.144.342.467.467 0 01-.342.144h-.666a.467.467 0 01-.342-.144.467.467 0 01-.144-.342V151h-5.328v1.494a.467.467 0 01-.144.342.467.467 0 01-.342.144h-.666a.467.467 0 01-.342-.144.467.467 0 01-.144-.342v-2.556c0-.132.048-.246.144-.342a.467.467 0 01.342-.144h.414a.726.726 0 00.468-.144.865.865 0 00.27-.396c.072-.168.114-.354.126-.558a6.2 6.2 0 00.036-.684v-5.544zm4.338 1.062h-2.7v4.77c0 .66-.114 1.158-.342 1.494h3.042v-6.264zm8.406-1.728c.648 0 1.224.102 1.728.306a3.77 3.77 0 011.296.81c.36.348.642.774.846 1.278.216.492.348 1.032.396 1.62.012.108.018.24.018.396v.936c0 .144-.006.264-.018.36a5.75 5.75 0 01-.396 1.638 3.698 3.698 0 01-.846 1.26 4 4 0 01-1.296.828c-.504.192-1.08.288-1.728.288-.648 0-1.224-.096-1.728-.288a4 4 0 01-1.296-.828 3.923 3.923 0 01-.864-1.26 5.371 5.371 0 01-.378-1.638 9.047 9.047 0 01-.036-.36v-.936c.012-.156.024-.288.036-.396a5.338 5.338 0 01.378-1.62c.216-.504.504-.93.864-1.278a3.77 3.77 0 011.296-.81c.504-.204 1.08-.306 1.728-.306zm2.628 5.616c.024-.204.036-.45.036-.738 0-.3-.012-.558-.036-.774a3.867 3.867 0 00-.234-1.008 2.433 2.433 0 00-.504-.81 2.32 2.32 0 00-.792-.54 2.803 2.803 0 00-1.098-.198c-.42 0-.786.066-1.098.198a2.32 2.32 0 00-.792.54 2.433 2.433 0 00-.504.81c-.12.312-.198.648-.234 1.008a7.138 7.138 0 00-.036.774c0 .288.012.534.036.738.036.36.114.696.234 1.008.12.312.288.582.504.81.216.228.48.408.792.54.312.132.678.198 1.098.198.42 0 .786-.066 1.098-.198a2.32 2.32 0 00.792-.54c.216-.228.384-.498.504-.81.12-.312.198-.648.234-1.008zm5.565-1.836l3.744-3.294a3.2 3.2 0 01.27-.198.824.824 0 01.432-.108h.864c.12 0 .222.042.306.126a.417.417 0 01.126.306c0 .06-.012.12-.036.18-.012.048-.066.108-.162.18l-4.356 3.816 4.788 3.978c.12.096.18.21.18.342 0 .12-.042.222-.126.306a.417.417 0 01-.306.126h-.936a.963.963 0 01-.468-.108 1.43 1.43 0 01-.27-.198l-4.05-3.366v3.186a.467.467 0 01-.144.342.467.467 0 01-.342.144h-.666a.467.467 0 01-.342-.144.467.467 0 01-.144-.342v-8.388c0-.132.048-.246.144-.342a.467.467 0 01.342-.144h.666c.132 0 .246.048.342.144.096.096.144.21.144.342v3.114zm6.992-3.042a.399.399 0 01-.018-.126c0-.12.042-.222.126-.306a.417.417 0 01.306-.126h.738c.144 0 .252.048.324.144.084.096.15.192.198.288l3.096 6.516 3.078-6.516c.048-.096.108-.192.18-.288a.431.431 0 01.342-.144h.738c.12 0 .222.042.306.126a.417.417 0 01.126.306c0 .048-.006.09-.018.126l-3.798 8.082c-.24.492-.468.984-.684 1.476a7.736 7.736 0 01-.702 1.332 3.385 3.385 0 01-.882.954c-.336.252-.744.378-1.224.378h-.738a.467.467 0 01-.342-.144.467.467 0 01-.144-.342v-.576c0-.132.048-.246.144-.342a.467.467 0 01.342-.144h.468a.988.988 0 00.63-.198 1.91 1.91 0 00.468-.504c.144-.216.276-.474.396-.774.132-.288.276-.606.432-.954l-3.888-8.244zm15.946 5.202l2.862-5.4a.82.82 0 01.198-.234c.108-.084.264-.126.468-.126h.594c.132 0 .246.048.342.144.096.096.144.21.144.342v8.388a.467.467 0 01-.144.342.467.467 0 01-.342.144h-.666a.467.467 0 01-.342-.144.467.467 0 01-.144-.342v-5.418l-2.124 3.924c-.06.108-.138.21-.234.306-.084.096-.216.144-.396.144h-.432c-.18 0-.318-.048-.414-.144a1.768 1.768 0 01-.216-.306l-2.124-3.924v5.418a.467.467 0 01-.144.342.467.467 0 01-.342.144h-.666a.467.467 0 01-.342-.144.467.467 0 01-.144-.342v-8.388c0-.132.048-.246.144-.342a.467.467 0 01.342-.144h.594c.204 0 .354.042.45.126a.75.75 0 01.216.234l2.862 5.4zm6.878-1.98c.048-.552.18-1.068.396-1.548.216-.48.498-.9.846-1.26s.762-.642 1.242-.846a4.238 4.238 0 011.638-.306c.648 0 1.224.108 1.728.324.516.204.954.504 1.314.9.36.396.636.876.828 1.44a5.84 5.84 0 01.288 1.89v.486a.467.467 0 01-.144.342.467.467 0 01-.342.144h-6.192v.108c.024.816.27 1.446.738 1.89.48.432 1.074.648 1.782.648.66 0 1.152-.09 1.476-.27.336-.192.606-.402.81-.63.096-.096.18-.162.252-.198a.752.752 0 01.324-.054h.54a.53.53 0 01.36.144.35.35 0 01.126.342c-.036.216-.138.456-.306.72-.168.252-.414.492-.738.72-.312.216-.708.402-1.188.558-.468.144-1.02.216-1.656.216-.6 0-1.14-.102-1.62-.306-.48-.216-.9-.504-1.26-.864a4.565 4.565 0 01-.846-1.296 5.204 5.204 0 01-.396-1.638 7.64 7.64 0 010-1.656zm1.602.054h5.058v-.054c0-.732-.234-1.314-.702-1.746-.456-.444-1.068-.666-1.836-.666-.348 0-.672.06-.972.18-.3.108-.564.27-.792.486a2.173 2.173 0 00-.54.756c-.132.3-.204.63-.216.99v.054zm16.716-3.834c.132 0 .246.048.342.144.096.096.144.21.144.342v8.388a.467.467 0 01-.144.342.467.467 0 01-.342.144h-.666a.467.467 0 01-.342-.144.467.467 0 01-.144-.342v-3.51h-5.076v3.51a.467.467 0 01-.144.342.467.467 0 01-.342.144h-.666a.502.502 0 01-.342-.126.488.488 0 01-.144-.36v-8.388c0-.132.048-.246.144-.342a.467.467 0 01.342-.144h.666c.132 0 .246.048.342.144.096.096.144.21.144.342v3.33h5.076v-3.33c0-.132.048-.246.144-.342a.467.467 0 01.342-.144h.666zm10.463 0c.132 0 .246.048.342.144.096.096.144.21.144.342v.576a.467.467 0 01-.144.342.467.467 0 01-.342.144h-3.114v7.326a.467.467 0 01-.144.342.467.467 0 01-.342.144h-.666a.467.467 0 01-.342-.144.467.467 0 01-.144-.342v-7.326h-3.114a.467.467 0 01-.342-.144.467.467 0 01-.144-.342v-.576c0-.132.048-.246.144-.342a.467.467 0 01.342-.144h7.866zm5.737-.18c.648 0 1.224.102 1.728.306a3.77 3.77 0 011.296.81c.36.348.642.774.846 1.278.216.492.348 1.032.396 1.62.012.108.018.24.018.396v.936c0 .144-.006.264-.018.36a5.75 5.75 0 01-.396 1.638 3.698 3.698 0 01-.846 1.26 4 4 0 01-1.296.828c-.504.192-1.08.288-1.728.288-.648 0-1.224-.096-1.728-.288a4 4 0 01-1.296-.828 3.923 3.923 0 01-.864-1.26 5.371 5.371 0 01-.378-1.638 9.047 9.047 0 01-.036-.36v-.936c.012-.156.024-.288.036-.396a5.338 5.338 0 01.378-1.62c.216-.504.504-.93.864-1.278a3.77 3.77 0 011.296-.81c.504-.204 1.08-.306 1.728-.306zm2.628 5.616c.024-.204.036-.45.036-.738 0-.3-.012-.558-.036-.774a3.867 3.867 0 00-.234-1.008 2.433 2.433 0 00-.504-.81 2.32 2.32 0 00-.792-.54 2.803 2.803 0 00-1.098-.198c-.42 0-.786.066-1.098.198a2.32 2.32 0 00-.792.54 2.433 2.433 0 00-.504.81c-.12.312-.198.648-.234 1.008a7.138 7.138 0 00-.036.774c0 .288.012.534.036.738.036.36.114.696.234 1.008.12.312.288.582.504.81.216.228.48.408.792.54.312.132.678.198 1.098.198.42 0 .786-.066 1.098-.198a2.32 2.32 0 00.792-.54c.216-.228.384-.498.504-.81.12-.312.198-.648.234-1.008zm5.565-.018v2.376h3.042c.6 0 1.08-.084 1.44-.252.36-.18.54-.498.54-.954 0-.456-.174-.762-.522-.918-.336-.168-.804-.252-1.404-.252h-3.096zm0-3.852v2.286h2.952c.6 0 1.062-.078 1.386-.234.324-.168.486-.48.486-.936 0-.456-.18-.756-.54-.9-.348-.144-.822-.216-1.422-.216h-2.862zM165.874 151a.345.345 0 01-.252-.108.345.345 0 01-.108-.252V142c0-.096.036-.18.108-.252a.345.345 0 01.252-.108h4.464c1.032 0 1.836.228 2.412.684.576.456.864 1.062.864 1.818 0 .276-.036.516-.108.72-.06.204-.144.384-.252.54-.096.156-.21.294-.342.414-.12.12-.246.228-.378.324.492.276.828.594 1.008.954.18.36.27.774.27 1.242 0 .864-.3 1.524-.9 1.98-.588.456-1.38.684-2.376.684h-4.662z" fill="#315658"/><defs><linearGradient id="paint0_linear" x1="0" y1="0" x2="157.165" y2="224.354" gradientUnits="userSpaceOnUse"><stop stop-color="#CAFFDF"/><stop offset="1" stop-color="#D6FFBD" stop-opacity="0"/></linearGradient></defs></svg>